<svg width="24" height="24" viewBox="0 0 24 24" fill="none" xmlns="http://www.w3.org/2000/svg">
<path fill-rule="evenodd" clip-rule="evenodd" d="M16.1858 7.23474H16.3799C18.9302 7.23474 21 9.36632 21 11.9811V17.2105C21 19.8253 18.9302 21.9474 16.3799 21.9474H7.62012C5.06982 21.9474 3 19.8253 3 17.2105V11.9811C3 9.36632 5.06982 7.23474 7.62012 7.23474H7.81417C7.83265 6.09789 8.26694 5.03684 9.05236 4.24105C9.84702 3.43579 10.8634 3.02842 12.0092 3C14.3008 3 16.1581 4.89474 16.1858 7.23474ZM10.0226 5.25474C9.50515 5.78526 9.2187 6.48632 9.20022 7.23474H14.7998C14.7721 5.68105 13.5339 4.42105 12.0093 4.42105C11.2978 4.42105 10.5585 4.71474 10.0226 5.25474ZM15.5113 10.8821C15.8994 10.8821 16.2043 10.56 16.2043 10.1716V9.07264C16.2043 8.68422 15.8994 8.36211 15.5113 8.36211C15.1325 8.36211 14.8183 8.68422 14.8183 9.07264V10.1716C14.8183 10.56 15.1325 10.8821 15.5113 10.8821ZM9.09859 10.1716C9.09859 10.56 8.79367 10.8821 8.40557 10.8821C8.02672 10.8821 7.71256 10.56 7.71256 10.1716V9.07264C7.71256 8.68421 8.02672 8.36211 8.40557 8.36211C8.79367 8.36211 9.09859 8.68421 9.09859 9.07264V10.1716Z" fill="#636363"/>
</svg>
