<svg width="21" height="24" viewBox="0 0 21 24" fill="none" xmlns="http://www.w3.org/2000/svg">
<path d="M20.5102 21.1105L19.2865 18.0502C19.0011 17.3387 18.8571 16.5888 18.8571 15.822V10.2857C18.8571 6.44532 16.3011 3.22489 12.8134 2.13838C12.606 0.926939 11.5554 0 10.2856 0C9.01591 0 7.96522 0.926939 7.75794 2.13838C4.27027 3.22489 1.71425 6.44532 1.71425 10.2857V15.822C1.71425 16.5888 1.57026 17.3387 1.28484 18.0502L0.0610874 21.1105C-0.0444083 21.375 -0.0117386 21.673 0.147278 21.909C0.307162 22.1451 0.572479 22.2857 0.8571 22.2857H7.37284C7.98057 23.3186 9.06454 24 10.2857 24C11.5068 24 12.5908 23.3186 13.1986 22.2857H19.7143C19.9989 22.2857 20.2642 22.1451 20.4241 21.909C20.5831 21.673 20.6157 21.375 20.5102 21.1105ZM2.12268 20.5714L2.87686 18.6863C3.24267 17.7722 3.42847 16.808 3.42847 15.8219V10.2856C3.42847 6.5038 6.50462 3.42846 10.2856 3.42846C14.0666 3.42846 17.1427 6.5038 17.1427 10.2856V15.8219C17.1427 16.8079 17.3285 17.7722 17.6943 18.6863L18.4485 20.5714H2.12268Z" fill="white"/>
</svg>
