<svg width="29" height="24" viewBox="0 0 29 24" fill="none" xmlns="http://www.w3.org/2000/svg">
<path fill-rule="evenodd" clip-rule="evenodd" d="M26.9531 2.66667H1.17188C0.524998 2.66667 0 2.06934 0 1.33333C0 0.597331 0.524998 0 1.17188 0H26.9531C27.6 0 28.125 0.597331 28.125 1.33333C28.125 2.06934 27.6 2.66667 26.9531 2.66667ZM26.9531 13.3333H1.17188C0.524998 13.3333 0 12.736 0 12C0 11.264 0.524998 10.6667 1.17188 10.6667H26.9531C27.6 10.6667 28.125 11.264 28.125 12C28.125 12.736 27.6 13.3333 26.9531 13.3333ZM0.805664 24H18.5303C18.975 24 19.3359 23.4027 19.3359 22.6667C19.3359 21.9307 18.975 21.3333 18.5303 21.3333H0.805664C0.360936 21.3333 0 21.9307 0 22.6667C0 23.4027 0.360936 24 0.805664 24Z" fill="#003927"/>
</svg>
