<svg width="24" height="24" viewBox="0 0 24 24" fill="none" xmlns="http://www.w3.org/2000/svg">
<path fill-rule="evenodd" clip-rule="evenodd" d="M7.79179 0H21.6578C22.9493 0 24 1.05068 24 2.34223V21.6422C24 22.9337 22.9493 23.9844 21.6578 23.9844H6.74561C3.02606 23.9844 0 20.9583 0 17.2388C0 13.9624 2.34799 11.2247 5.44956 10.6186V2.34223C5.44956 1.05072 6.50029 0 7.79179 0ZM6.74561 11.4301C3.54266 11.4301 0.936891 14.0358 0.936891 17.2388C0.936891 20.4417 3.54266 23.0475 6.74561 23.0475C9.94856 23.0475 12.5543 20.4417 12.5543 17.2388C12.5543 14.0358 9.94856 11.4301 6.74561 11.4301ZM8.63499 9.27522V10.3995C8.63499 10.6578 8.84514 10.8679 9.10344 10.8679H10.2277C10.486 10.8679 10.6962 10.6578 10.6962 10.3995V9.27522C10.6962 9.01692 10.486 8.80677 10.2277 8.80677H9.10344C8.84514 8.80677 8.63499 9.01692 8.63499 9.27522ZM21.6578 23.0475C22.4327 23.0475 23.0631 22.4171 23.0631 21.6422V2.34223C23.0631 1.56732 22.4327 0.936891 21.6578 0.936891H7.79179C7.01689 0.936891 6.38646 1.56732 6.38646 2.34223V10.5028C6.50539 10.4965 6.62513 10.4932 6.74561 10.4932C7.07226 10.4932 7.39342 10.517 7.7078 10.5621C7.70162 10.5087 7.6981 10.4545 7.6981 10.3995V9.27522C7.6981 8.50031 8.32854 7.86988 9.10344 7.86988H10.2277C11.0026 7.86988 11.633 8.50031 11.633 9.27522V10.3995C11.633 11.0276 11.2188 11.5607 10.6491 11.7402C11.5378 12.3729 12.2669 13.2155 12.7643 14.1948C12.8346 13.4852 13.4349 12.9291 14.1626 12.9291H15.2869C16.0618 12.9291 16.6923 13.5595 16.6923 14.3344V15.4587C16.6923 16.2336 16.0618 16.864 15.2869 16.864H14.1626C13.91 16.864 13.6729 16.7967 13.4678 16.6795C13.4831 16.864 13.4912 17.0504 13.4912 17.2388C13.4912 17.565 13.4674 17.8858 13.4225 18.1998C13.6376 18.0659 13.8912 17.9883 14.1626 17.9883H15.2869C16.0618 17.9883 16.6923 18.6187 16.6923 19.3936V20.5179C16.6923 21.2928 16.0618 21.9232 15.2869 21.9232H14.1626C13.3877 21.9232 12.7573 21.2928 12.7573 20.5179V20.2968C12.1733 21.4402 11.2724 22.3957 10.1714 23.0475H21.6578ZM13.6942 19.3936V20.5179C13.6942 20.7762 13.9043 20.9863 14.1626 20.9863H15.2869C15.5452 20.9863 15.7554 20.7762 15.7554 20.5179V19.3936C15.7554 19.1353 15.5452 18.9252 15.2869 18.9252H14.1626C13.9043 18.9252 13.6942 19.1353 13.6942 19.3936ZM13.6942 14.3344V15.4587C13.6942 15.717 13.9043 15.9271 14.1626 15.9271H15.2869C15.5452 15.9271 15.7554 15.717 15.7554 15.4587V14.3344C15.7554 14.0761 15.5452 13.866 15.2869 13.866H14.1626C13.9043 13.866 13.6942 14.0761 13.6942 14.3344ZM17.3512 2.06116H21.283C21.5417 2.06116 21.7515 2.27088 21.7515 2.5296V6.27717C21.7515 6.53589 21.5417 6.74561 21.283 6.74561H8.16656C7.90789 6.74561 7.69812 6.53589 7.69812 6.27717V2.5296C7.69812 2.27088 7.90789 2.06116 8.16656 2.06116H16.8328H17.3512ZM17.3512 2.99805H16.8328H8.63501V5.80872H20.8146V2.99805H17.3512ZM15.2869 7.86988H14.1627C13.3878 7.86988 12.7573 8.50031 12.7573 9.27522V10.3995C12.7573 11.1744 13.3878 11.8048 14.1627 11.8048H15.2869C16.0618 11.8048 16.6923 11.1744 16.6923 10.3995V9.27522C16.6923 8.50031 16.0618 7.86988 15.2869 7.86988ZM15.7554 10.3995C15.7554 10.6578 15.5452 10.8679 15.2869 10.8679H14.1627C13.9044 10.8679 13.6942 10.6578 13.6942 10.3995V9.27522C13.6942 9.01692 13.9044 8.80677 14.1627 8.80677H15.2869C15.5452 8.80677 15.7554 9.01692 15.7554 9.27522V10.3995ZM19.2219 7.86988H20.3461C21.121 7.86988 21.7515 8.50031 21.7515 9.27522V10.3995C21.7515 11.1744 21.121 11.8048 20.3461 11.8048H19.2219C18.447 11.8048 17.8165 11.1744 17.8165 10.3995V9.27522C17.8165 8.50031 18.447 7.86988 19.2219 7.86988ZM20.3461 10.8679C20.6044 10.8679 20.8146 10.6578 20.8146 10.3995V9.27522C20.8146 9.01692 20.6044 8.80677 20.3461 8.80677H19.2219C18.9636 8.80677 18.7534 9.01692 18.7534 9.27522V10.3995C18.7534 10.6578 18.9636 10.8679 19.2219 10.8679H20.3461ZM20.3461 12.9291H19.2219C18.447 12.9291 17.8165 13.5595 17.8165 14.3344V20.5179C17.8165 21.2928 18.447 21.9232 19.2219 21.9232H20.3461C21.121 21.9232 21.7515 21.2928 21.7515 20.5179V14.3344C21.7515 13.5595 21.121 12.9291 20.3461 12.9291ZM20.8146 20.5179C20.8146 20.7762 20.6044 20.9863 20.3461 20.9863H19.2219C18.9636 20.9863 18.7534 20.7762 18.7534 20.5179V14.3344C18.7534 14.0761 18.9636 13.866 19.2219 13.866H20.3461C20.6044 13.866 20.8146 14.0761 20.8146 14.3344V20.5179ZM7.647 14.3726C7.75998 14.1398 8.04035 14.0429 8.27298 14.1558C8.50575 14.2689 8.60281 14.5491 8.48973 14.7819L5.91215 20.0896C5.83116 20.2564 5.66421 20.3535 5.49046 20.3535C5.42179 20.3535 5.35208 20.3383 5.28617 20.3063C5.05345 20.1933 4.95639 19.913 5.06942 19.6803L7.647 14.3726ZM5.56156 13.8927C4.97704 13.3082 4.02586 13.3082 3.44124 13.8927C2.85666 14.4773 2.85666 15.4285 3.44124 16.0131C3.73355 16.3053 4.11749 16.4514 4.50138 16.4514C4.88531 16.4514 5.2693 16.3053 5.56156 16.0131C6.14609 15.4285 6.14609 14.4773 5.56156 13.8927ZM4.89904 15.3506C4.67976 15.5698 4.32299 15.5699 4.10371 15.3506C3.88439 15.1313 3.88439 14.7745 4.10371 14.5553C4.21333 14.4456 4.35733 14.3908 4.50138 14.3908C4.64538 14.3908 4.78938 14.4456 4.89899 14.5553C5.11837 14.7745 5.11837 15.1313 4.89904 15.3506ZM8.01297 20.5848C7.4284 20.0002 7.4284 19.0491 8.01297 18.4645C8.5975 17.88 9.54863 17.88 10.1333 18.4645C10.7179 19.0491 10.7179 20.0002 10.1333 20.5848C9.84103 20.8771 9.45705 21.0232 9.07311 21.0232C8.68922 21.0232 8.30523 20.8771 8.01297 20.5848ZM8.67545 19.9223C8.89463 20.1416 9.25149 20.1417 9.47077 19.9223C9.69005 19.703 9.69005 19.3462 9.47073 19.127C9.36111 19.0173 9.21711 18.9625 9.07311 18.9625C8.92906 18.9625 8.78506 19.0174 8.67545 19.127C8.45612 19.3462 8.45612 19.703 8.67545 19.9223Z" fill="#003927"/>
</svg>
