<svg width="266" height="206" viewBox="0 0 266 206" fill="none" xmlns="http://www.w3.org/2000/svg">
<g opacity="0.15">
<path fill-rule="evenodd" clip-rule="evenodd" d="M266 28.2538C266 25.999 264.172 24.1729 261.915 24.1729H229.652C227.395 24.1729 225.568 25.999 225.568 28.2538V277.886C225.568 280.141 227.395 281.967 229.652 281.967H261.915C264.172 281.967 266 280.141 266 277.886V28.2538ZM86.8883 89.5513C89.1451 89.5513 90.9728 91.3774 90.9728 93.6323V277.886C90.9728 280.141 89.1451 281.967 86.8883 281.967H54.6249C52.3681 281.967 50.5404 280.141 50.5404 277.886V93.6323C50.5404 91.3774 52.3681 89.5513 54.6249 89.5513H86.8883ZM139.516 117.722H107.332C105.075 117.722 103.208 119.891 103.208 122.414V277.112C103.208 279.638 105.075 281.965 107.332 281.965H139.516C141.773 281.965 144.171 279.638 144.171 277.112V122.417C144.174 119.891 141.773 117.722 139.516 117.722ZM40.4324 139.345C40.4324 137.09 38.6047 135.264 36.3479 135.264H4.08453C1.82771 135.264 0 137.09 0 139.345V277.886C0 280.141 1.82771 281.967 4.08453 281.967H36.3479C38.6047 281.967 40.4324 280.141 40.4324 277.886V139.345ZM201.8 59.7843C204.057 59.7843 205.885 61.6104 205.885 63.8652V277.884C205.885 280.139 204.057 281.965 201.8 281.965H169.537C167.28 281.965 165.452 280.139 165.452 277.884V63.8652C165.452 61.6104 167.28 59.7843 169.537 59.7843H201.8Z" fill="#336152"/>
<path fill-rule="evenodd" clip-rule="evenodd" d="M221.55 5.78191C221.55 8.97517 218.959 11.5638 215.763 11.5638C213.928 11.5638 212.293 10.7106 211.233 9.37962L169.526 33.9722C169.663 34.4652 169.736 34.9846 169.736 35.5211C169.736 38.7144 167.145 41.3031 163.949 41.3031C162.974 41.3031 162.056 41.0621 161.249 40.6366L127.145 74.0603C127.593 74.8814 127.847 75.823 127.847 76.8241C127.847 80.0173 125.256 82.606 122.06 82.606C118.864 82.606 116.273 80.0173 116.273 76.8241C116.273 76.6359 116.282 76.4499 116.3 76.2663L76.8291 58.9307C75.8097 60.5791 73.9845 61.6775 71.9026 61.6775C69.9986 61.6775 68.3093 60.7588 67.2547 59.3409L23.8513 83.0363C24.0924 83.6726 24.2244 84.3625 24.2244 85.0833C24.2244 88.2766 21.6336 90.8652 18.4374 90.8652C15.2412 90.8652 12.6504 88.2766 12.6504 85.0833C12.6504 81.8899 15.2412 79.3014 18.4374 79.3014C20.3411 79.3014 22.0301 80.2197 23.0848 81.6373L66.4886 57.9422C66.2475 57.306 66.1156 56.6162 66.1156 55.8956C66.1156 52.7024 68.7065 50.1137 71.9026 50.1137C75.0987 50.1137 77.6896 52.7024 77.6896 55.8956C77.6896 56.442 77.6138 56.9706 77.472 57.4716L116.679 74.6923C117.529 72.5541 119.618 71.0422 122.06 71.0422C123.675 71.0422 125.134 71.7025 126.184 72.7675L159.938 39.6883C158.843 38.6364 158.162 37.1582 158.162 35.5211C158.162 32.3279 160.753 29.7392 163.949 29.7392C166.036 29.7392 167.865 30.843 168.883 32.4981L210.42 8.00696C210.134 7.32206 209.976 6.57042 209.976 5.78191C209.976 2.58865 212.567 0 215.763 0C218.959 0 221.55 2.58865 221.55 5.78191Z" fill="#003927"/>
</g>
</svg>
