<svg width="24" height="24" viewBox="0 0 24 24" fill="none" xmlns="http://www.w3.org/2000/svg">
<path d="M19.3014 2.88382L19.3017 2.88401C22.1604 5.12364 23.8 8.4767 23.8 12.0874C23.8 18.5436 18.5072 23.8 12 23.8C5.4928 23.8 0.2 18.5446 0.2 12.0874C0.2 8.47869 1.83759 5.12574 4.69512 2.88715C5.21999 2.47828 5.97731 2.56728 6.38898 3.08496C6.80032 3.60321 6.71118 4.35373 6.18952 4.76244C3.91514 6.54408 2.61025 9.214 2.61025 12.0874C2.61025 17.2297 6.82452 21.4112 12.001 21.4112C17.1765 21.4112 21.3907 17.2297 21.3907 12.0874C21.3907 9.21302 20.0849 6.54214 17.8086 4.75954C17.2867 4.34972 17.1979 3.59927 17.6088 3.08225C18.021 2.56463 18.7813 2.475 19.3014 2.88382ZM10.3268 11.1571V1.85952C10.3268 0.94531 11.0755 0.2 12 0.2C12.9245 0.2 13.6732 0.94531 13.6732 1.85952V11.1571C13.6732 12.0714 12.9245 12.8167 12 12.8167C11.0755 12.8167 10.3268 12.0714 10.3268 11.1571Z" fill="#1A4D3D" stroke="white" stroke-width="0.4"/>
</svg>
