<svg width="24" height="24" viewBox="0 0 24 24" fill="none" xmlns="http://www.w3.org/2000/svg">
<path d="M19.2705 2.92313L19.2708 2.92337C22.1175 5.15359 23.75 8.49218 23.75 12.0874C23.75 18.5157 18.4799 23.75 12 23.75C5.52007 23.75 0.25 18.5167 0.25 12.0874C0.25 8.49417 1.88044 5.1557 4.72593 2.92653C5.22937 2.53442 5.95551 2.62007 6.34994 3.1162C6.74385 3.61266 6.65851 4.33147 6.15869 4.72308C3.87229 6.51413 2.56025 9.19853 2.56025 12.0874C2.56025 17.2577 6.79725 21.4612 12.001 21.4612C17.2038 21.4612 21.4407 17.2577 21.4407 12.0874C21.4407 9.1975 20.1277 6.51211 17.8393 4.72009C17.3392 4.32725 17.2544 3.6084 17.6481 3.11324C18.0432 2.6172 18.7722 2.53139 19.2705 2.92313ZM10.3768 11.1571V1.85952C10.3768 0.973268 11.1028 0.25 12 0.25C12.8972 0.25 13.6232 0.973268 13.6232 1.85952V11.1571C13.6232 12.0434 12.8972 12.7667 12 12.7667C11.1028 12.7667 10.3768 12.0434 10.3768 11.1571Z" fill="white" stroke="#1A4D3D" stroke-width="0.5"/>
</svg>
