<svg width="20" height="14" viewBox="0 0 20 14" fill="none" xmlns="http://www.w3.org/2000/svg">
<path d="M19.8359 6.66625C18.1708 3.16079 14.3846 0 9.95556 0C4.97201 0 1.38982 3.89846 0.0751953 6.66625C-0.0250651 6.87741 -0.0250651 7.12259 0.0751953 7.33375C1.74028 10.8392 5.52648 14 9.95556 14C14.9391 14 18.5213 10.1014 19.8359 7.33375C19.9362 7.12259 19.9362 6.87741 19.8359 6.66625ZM9.95556 12.4444C6.37231 12.4444 3.40141 10.083 1.6587 7C3.39412 3.9296 6.36319 1.55556 9.95556 1.55556C13.5385 1.55556 16.5097 3.91669 18.2524 7C16.517 10.0702 13.5479 12.4444 9.95556 12.4444ZM9.95556 3.11111C7.8112 3.11111 6.06667 4.85564 6.06667 7C6.06667 9.14436 7.8112 10.8889 9.95556 10.8889C12.0999 10.8889 13.8444 9.14436 13.8444 7C13.8444 4.85564 12.0999 3.11111 9.95556 3.11111ZM9.95556 9.33333C8.66903 9.33333 7.62222 8.28652 7.62222 7C7.62222 5.71333 8.66903 4.66667 9.95556 4.66667C11.2422 4.66667 12.2889 5.71333 12.2889 7C12.2889 8.28652 11.2422 9.33333 9.95556 9.33333Z" fill="#AAAAAA"/>
</svg>
