<svg width="156" height="304" viewBox="0 0 156 304" fill="none" xmlns="http://www.w3.org/2000/svg">
<path d="M63.9535 286.545C63.9535 286.545 62.9128 292.441 62.4011 298.276C62.2022 300.556 63.9593 302.536 66.2473 302.631C74.0189 302.955 90.6453 303.585 96.6116 303.318C97.5075 303.278 98.0945 302.361 97.7624 301.527C97.4843 300.828 96.9476 300.262 96.264 299.949L68.8018 287.329L63.9535 286.545Z" fill="#003927"/>
<path d="M63.1001 283.081L63.9362 290.134C63.9362 290.134 68.7478 292.374 72.0321 289.852L70.0395 281.994L63.1001 283.081Z" fill="url(#paint0_linear)"/>
<path d="M63.7296 150.507C63.3685 152.349 61.7891 242.403 71.4162 282.759C71.5726 283.417 71.2386 284.097 70.613 284.352C69.1359 284.954 66.2416 285.829 62.7719 285.944C61.6983 285.981 60.7348 285.282 60.4317 284.251C57.6803 274.888 44.4927 227.975 42.7723 183.16C40.8492 133.085 42.7723 181.456 42.7723 181.456L43.8999 150.502L63.7296 150.507Z" fill="url(#paint1_linear)"/>
<path d="M32.3631 289.62C32.3631 289.62 30.7046 292.597 29.1 300.505C28.8104 301.934 29.8086 303.301 31.2587 303.444C33.8248 303.697 37.7753 304.021 40.9399 303.998C42.3996 303.988 43.5369 302.718 43.3612 301.27C43.0097 298.384 41.9188 293.648 38.5457 289.956L32.3631 289.62Z" fill="#003927"/>
<path d="M30.9073 280.55L32.8633 291.215C32.8633 291.215 34.796 292.653 38.621 291.611L37.6884 280.137L30.9073 280.55Z" fill="url(#paint2_linear)"/>
<path d="M25.6245 153.27C17.7506 200.783 27.3333 270.704 30.5636 284.388C30.7625 285.226 31.4383 285.867 32.2878 286.008C33.7302 286.248 36.1051 286.443 38.4472 285.763C39.2543 285.529 39.82 284.801 39.8528 283.962C40.2873 272.897 39.5053 204.975 46.8425 178.133C47.2151 176.772 48.0454 175.587 49.1942 174.77L63.4341 164.647L64.525 148.285L25.6245 153.27Z" fill="url(#paint3_linear)"/>
<path d="M75.7972 63.242C52.2005 62.852 26.1652 69.4374 26.1652 69.4374C19.1312 110.473 24.9352 157.805 24.9352 157.805C43.2028 162.595 63.8087 154.876 63.8087 154.876C66.844 137.724 81.0105 89.4525 81.0105 89.4525C92.5395 88.0218 102.037 84.6953 109.857 80.2992C103.891 73.3837 101.08 64.5857 99.8573 59.3845C91.5161 61.9774 83.0745 63.3617 75.7972 63.242Z" fill="url(#paint4_linear)"/>
<path d="M145.494 28.4883C143.176 25.6889 140.243 27.0133 140.243 27.0133C136.771 41.6785 118.563 53.5713 99.8593 59.3826C101.081 64.5838 103.893 73.3818 109.859 80.2973C140.901 62.8462 145.494 28.4883 145.494 28.4883Z" fill="url(#paint5_linear)"/>
<path d="M144.931 29.2008C145.174 29.9711 142.365 31.1449 140.712 27.9922C140.654 26.4805 139.735 20.007 140.638 18.7753C145.448 12.2188 154.772 4 154.772 4C156.348 5.55417 155.05 7.08325 155.05 7.08325L150.526 11.794C151.472 13.5046 152.627 14.9468 153.168 17.0145C153.577 18.5803 153.326 20.2541 152.536 21.679C151.743 23.1096 150.659 24.9688 149.634 26.4245C147.696 29.1795 144.931 29.2008 144.931 29.2008Z" fill="url(#paint6_linear)"/>
<path d="M148.549 14.8522L144.427 18.3467L143.133 21.8257L146.809 25.9033C146.809 25.9033 148.045 18.9993 148.964 17.5069C149.879 16.0106 149.404 15.2886 148.549 14.8522Z" fill="url(#paint7_linear)"/>
<path d="M35.215 92.2809L26.1652 69.4355C26.1652 69.4355 4.12478 84.4097 0.50061 103.394C4.66541 103.701 12.242 104.784 19.6602 108.527C21.2899 99.5653 35.215 92.2809 35.215 92.2809Z" fill="#1A4D3D"/>
<path d="M54.477 113.779C54.477 113.779 29.7314 127.762 21.3825 115.821C19.6486 113.342 19.2354 110.879 19.6622 108.529C12.2458 104.784 4.66733 103.701 0.502522 103.396C-0.590328 109.118 -0.0130094 115.205 3.3505 121.358C17.9765 148.109 57.7517 119.88 57.7517 119.88L54.477 113.779Z" fill="url(#paint8_linear)"/>
<path d="M125.479 69.3641C125.474 69.3467 125.466 69.3216 125.46 69.3042L125.392 69.2579L125.047 69.0011L120.133 65.4236C119.438 64.9178 118.544 64.7691 117.721 65.0259C116.901 65.2827 116.248 65.9121 115.964 66.7249L113.508 73.7351L108.818 87.1183C108.816 87.1164 130.54 87.2322 125.479 69.3641Z" fill="url(#paint9_linear)"/>
<path d="M125.487 69.3641C125.456 69.3235 125.427 69.2869 125.396 69.2579L125.049 69.0011C126.794 71.5669 123.803 72.0515 113.508 73.7351C111.875 73.9996 110.054 74.295 108.042 74.6367C96.9533 76.5017 86.7469 71.1828 82.0781 68.2018C81.4004 67.7694 80.5663 67.6574 79.7998 67.8987C79.0332 68.14 78.4115 68.7057 78.1026 69.449C74.1251 78.9613 62.3663 107.06 61.7832 108.118L50.287 135.041C50.287 135.041 50.1422 139.472 56.6221 143.711C63.1077 147.951 65.0926 149.559 74.2988 147.909C79.0274 147.065 84.9647 145.229 89.618 143.654C89.618 143.654 89.618 143.654 89.6238 143.648C89.6296 143.648 89.6431 143.988 89.6489 143.988C93.6921 142.619 96.7544 141.597 97.2139 141.597H97.2197C97.2564 141.597 97.5576 141.227 97.5576 141.227L110.834 110.356V110.35L110.985 109.33C116.298 101.423 119.793 95.0224 122.23 89.8425C122.265 89.7691 122.226 89.6958 122.266 89.6166C122.832 88.4138 123.296 87.2728 123.738 86.2013C128.25 75.1695 126.559 70.8217 125.487 69.3641Z" fill="#F3FAFD"/>
<path d="M89.645 143.986C93.6882 142.617 96.7505 141.596 97.21 141.596H97.2158L110.411 110.902C110.457 110.835 110.83 110.421 110.83 110.354V110.348C115.987 101.898 119.955 95.1808 122.369 89.8368C122.404 89.7634 122.293 89.6919 122.334 89.6109C122.67 88.856 122.909 88.1281 123.199 87.4234L123.197 87.3269C122.894 87.7227 113.12 100.729 109.704 105.151C106.629 109.139 92.715 137.678 89.645 143.986Z" fill="url(#paint10_linear)"/>
<path d="M54.7646 120.076C54.7646 120.076 52.884 112.342 53.6428 109.597C54.4016 106.853 55.8729 103.324 60.7734 104.108C65.6738 104.892 71.4547 106.956 71.4547 106.956C71.4547 106.956 71.1631 110.529 67.4386 109.377L69.7478 111.165C69.7478 111.165 69.4177 114.026 66.2704 112.497L68.4194 114.866C68.4194 114.866 67.0679 117.217 64.7528 115.709C62.4397 114.203 61.3294 121.007 54.7646 120.076Z" fill="url(#paint11_linear)"/>
<path d="M51.8955 44.0861L44.3884 65.7963C44.2648 66.1554 44.4116 66.555 44.7456 66.7384C46.7923 67.8698 54.1661 71.1403 63.0518 65.5067C63.9767 64.9198 64.6081 63.9622 64.749 62.8752L67.1799 44.0861H51.8955Z" fill="url(#paint12_linear)"/>
<path d="M68.2322 23.9823C68.2322 23.9823 76.4768 39.4989 75.4187 45.7678C74.3626 52.0366 64.1446 51.5867 55.2222 46.4956L48.9875 29.7395L68.2322 23.9823Z" fill="url(#paint13_linear)"/>
<path d="M55.6161 38.2671C55.9791 38.1068 56.1123 37.6628 55.8961 37.3307C55.2357 36.321 53.9981 34.2629 53.6023 32.4616C53.6023 32.4616 52.1194 31.5118 57.3751 30.2549C62.6289 28.998 70.4642 27.0462 72.1112 22.5728C73.7177 18.2134 67.1779 11.2245 62.7679 15.9855C62.4821 16.2924 62.011 16.3253 61.7542 15.9932C60.6498 14.5568 57.7497 11.5759 53.722 13.383C49.953 15.0742 49.5282 17.835 49.5803 19.227C49.5958 19.6363 49.2289 19.9549 48.8273 19.8777C46.9216 19.5147 42.3494 19.2019 40.2139 23.8934C38.4549 27.7566 39.5979 29.9441 40.6386 31.0136C40.9765 31.3592 40.8279 31.9307 40.3664 32.0716C39.1133 32.4558 37.4972 33.5177 37.6594 36.4504C37.8834 40.5066 42.4189 40.1495 43.7106 39.9641C43.923 39.9332 44.1354 40.0066 44.2783 40.1649C45.3846 41.3909 50.3739 46.5921 55.7725 47.2195C56.2398 47.2736 56.6028 46.8121 56.4502 46.3681L54.1139 39.5761C54.0058 39.2614 54.1564 38.9139 54.4615 38.7787L55.6161 38.2671Z" fill="#181818"/>
<path d="M56.5564 39.2305C56.5564 39.2305 50.6867 35.2031 50.2581 38.5953C49.8294 41.9874 55.5447 43.5069 58.3753 42.2423L56.5564 39.2305Z" fill="url(#paint14_linear)"/>
<path d="M66.696 13.1841C66.696 13.1841 53.4385 -1.53791 38.2047 12.1526C22.971 25.8432 34.9608 36.1735 34.9608 36.1735L66.696 13.1841Z" fill="url(#paint15_linear)"/>
<path d="M31.3052 21.5883C31.3052 21.5883 48.6825 0.473494 62.354 16.329C66.017 13.6967 66.696 13.1841 66.696 13.1841C66.696 13.1841 54.5252 -1.03323 43.7053 6.90861C32.8815 14.8494 30.5371 18.0586 31.3052 21.5883Z" fill="url(#paint16_linear)"/>
<path d="M56.2563 21.3522C56.2025 21.393 56.1323 21.4078 56.0623 21.3896L55.9114 21.3444C52.4462 20.3363 46.648 18.65 43.4929 20.8114C41.9713 21.8528 40.5679 23.2363 39.2108 24.5697C38.2537 25.5119 37.2631 26.4868 36.2416 27.3325C34.8515 28.4837 33.3159 29.7281 31.5496 31.1315L31.5447 31.1343C31.4497 31.2058 31.3143 31.1904 31.2393 31.0961C31.1622 31.0004 31.179 30.8628 31.275 30.7874C33.0417 29.3859 34.5724 28.1443 35.9593 26.9956C36.9669 26.1621 37.9502 25.196 38.8992 24.2591C40.2709 22.908 41.7031 21.5129 43.2421 20.4495C46.5684 18.1693 52.4924 19.8951 56.0315 20.9224L56.182 20.9659C56.2993 20.9998 56.3654 21.1217 56.3332 21.2387C56.3228 21.2849 56.2944 21.324 56.2563 21.3522Z" fill="white"/>
<path d="M35.5887 38.8755L73.4665 14.2959C73.7054 14.1407 73.8205 13.852 73.7531 13.5762C73.6873 13.3 73.453 13.0943 73.1699 13.066C70.8975 12.8303 67.1757 12.6146 65.9001 13.5433C61.8077 16.5234 34.959 36.1739 34.959 36.1739C34.959 36.1739 34.2943 36.6761 35.5887 38.8755Z" fill="url(#paint17_linear)"/>
<defs>
<linearGradient id="paint0_linear" x1="63.1006" y1="286.521" x2="72.0334" y2="286.521" gradientUnits="userSpaceOnUse">
<stop stop-color="#FEBBBA"/>
<stop offset="1" stop-color="#FF928E"/>
</linearGradient>
<linearGradient id="paint1_linear" x1="41.9181" y1="218.224" x2="71.455" y2="218.224" gradientUnits="userSpaceOnUse">
<stop stop-color="#303030"/>
<stop offset="1" stop-color="#535353"/>
</linearGradient>
<linearGradient id="paint2_linear" x1="30.9073" y1="286.063" x2="38.6198" y2="286.063" gradientUnits="userSpaceOnUse">
<stop stop-color="#FEBBBA"/>
<stop offset="1" stop-color="#FF928E"/>
</linearGradient>
<linearGradient id="paint3_linear" x1="22.5942" y1="217.258" x2="64.5258" y2="217.258" gradientUnits="userSpaceOnUse">
<stop stop-color="#303030"/>
<stop offset="1" stop-color="#535353"/>
</linearGradient>
<linearGradient id="paint4_linear" x1="66.271" y1="59.3845" x2="66.271" y2="159.372" gradientUnits="userSpaceOnUse">
<stop stop-color="#1A4D3D"/>
<stop offset="1" stop-color="#336152"/>
</linearGradient>
<linearGradient id="paint5_linear" x1="99.8586" y1="53.4997" x2="145.494" y2="53.4997" gradientUnits="userSpaceOnUse">
<stop stop-color="#FEBBBA"/>
<stop offset="1" stop-color="#FF928E"/>
</linearGradient>
<linearGradient id="paint6_linear" x1="135.328" y1="45.8508" x2="104.71" y2="115.52" gradientUnits="userSpaceOnUse">
<stop stop-color="#FEBBBA"/>
<stop offset="1" stop-color="#FF928E"/>
</linearGradient>
<linearGradient id="paint7_linear" x1="145.275" y1="22.6494" x2="158.051" y2="3.00443" gradientUnits="userSpaceOnUse">
<stop stop-color="#FEBBBA"/>
<stop offset="1" stop-color="#FF928E"/>
</linearGradient>
<linearGradient id="paint8_linear" x1="-0.00142455" y1="118.135" x2="57.7507" y2="118.135" gradientUnits="userSpaceOnUse">
<stop stop-color="#FEBBBA"/>
<stop offset="1" stop-color="#FF928E"/>
</linearGradient>
<linearGradient id="paint9_linear" x1="108.816" y1="76.0091" x2="126.245" y2="76.0091" gradientUnits="userSpaceOnUse">
<stop stop-color="#DAE3FE"/>
<stop offset="1" stop-color="#E9EFFD"/>
</linearGradient>
<linearGradient id="paint10_linear" x1="89.6449" y1="115.657" x2="123.2" y2="115.657" gradientUnits="userSpaceOnUse">
<stop stop-color="#DAE3FE"/>
<stop offset="1" stop-color="#E9EFFD"/>
</linearGradient>
<linearGradient id="paint11_linear" x1="53.4628" y1="112.08" x2="71.4549" y2="112.08" gradientUnits="userSpaceOnUse">
<stop stop-color="#FEBBBA"/>
<stop offset="1" stop-color="#FF928E"/>
</linearGradient>
<linearGradient id="paint12_linear" x1="44.3441" y1="56.4003" x2="67.1775" y2="56.4003" gradientUnits="userSpaceOnUse">
<stop stop-color="#FEBBBA"/>
<stop offset="1" stop-color="#FF928E"/>
</linearGradient>
<linearGradient id="paint13_linear" x1="72.608" y1="41.8756" x2="47.504" y2="26.5625" gradientUnits="userSpaceOnUse">
<stop stop-color="#FEBBBA"/>
<stop offset="1" stop-color="#FF928E"/>
</linearGradient>
<linearGradient id="paint14_linear" x1="66.014" y1="47.5854" x2="43.4273" y2="33.8079" gradientUnits="userSpaceOnUse">
<stop stop-color="#FEBBBA"/>
<stop offset="1" stop-color="#FF928E"/>
</linearGradient>
<linearGradient id="paint15_linear" x1="49.9268" y1="56.6419" x2="46.0204" y2="-51.0571" gradientUnits="userSpaceOnUse">
<stop stop-color="#FDF53F"/>
<stop offset="1" stop-color="#D93C65"/>
</linearGradient>
<linearGradient id="paint16_linear" x1="45.1728" y1="-2.4974" x2="60.7194" y2="78.2864" gradientUnits="userSpaceOnUse">
<stop stop-color="#FDF53F"/>
<stop offset="1" stop-color="#D93C65"/>
</linearGradient>
<linearGradient id="paint17_linear" x1="46.4499" y1="-13.5616" x2="67.4328" y2="90.5301" gradientUnits="userSpaceOnUse">
<stop stop-color="#FDF53F"/>
<stop offset="1" stop-color="#D93C65"/>
</linearGradient>
</defs>
</svg>
