<svg width="113" height="294" viewBox="0 0 113 294" fill="none" xmlns="http://www.w3.org/2000/svg">
<path d="M9.66061 90.5971C9.66061 90.5971 9.66062 128.242 26.1584 125.172C36.2384 123.296 42.2053 82.7456 42.2053 82.7456C42.2053 82.7456 31.7758 59.5075 30.6111 67.1143C22.1467 122.409 15.8404 80.0891 9.66061 90.5971Z" fill="url(#paint0_linear)"/>
<path d="M51.2686 276.309C51.2686 276.309 52.2919 282.108 52.7944 287.849C52.9907 290.093 51.2619 292.04 49.0123 292.135C41.3699 292.453 25.0219 293.072 19.1565 292.811C18.2747 292.771 17.6989 291.869 18.0251 291.048C18.298 290.361 18.8254 289.805 19.4976 289.495L46.5014 277.08L51.2686 276.309Z" fill="#07231A"/>
<path d="M50.1022 142.58C50.4583 144.47 52.0107 236.904 42.543 278.327C42.3883 279.002 42.716 279.7 43.3334 279.963C44.786 280.582 47.6313 281.479 51.0423 281.597C52.0989 281.634 53.0457 280.918 53.3435 279.86C56.0491 270.249 69.016 222.096 70.7065 176.098C72.5968 124.698 70.7065 174.348 70.7065 174.348L69.5984 142.576L50.1022 142.58Z" fill="url(#paint1_linear)"/>
<path d="M80.9447 279.335C80.9447 279.335 82.5753 282.263 84.1527 290.043C84.4373 291.448 83.4555 292.793 82.0296 292.933C79.5054 293.181 75.6218 293.5 72.5086 293.479C71.0743 293.469 69.9545 292.219 70.1275 290.795C70.472 287.956 71.5452 283.297 74.8631 279.665L80.9447 279.335Z" fill="#07231A"/>
<path d="M87.5704 145.416C95.3126 194.184 85.8915 265.953 82.7134 280C82.5188 280.86 81.8532 281.518 81.0196 281.662C79.6019 281.907 77.2658 282.108 74.9646 281.409C74.1709 281.17 73.6135 280.422 73.5818 279.56C73.1559 268.203 73.9229 198.487 66.7082 170.934C66.3421 169.538 65.5251 168.321 64.3953 167.482L50.3934 157.092L49.3202 140.299L87.5704 145.416Z" fill="url(#paint2_linear)"/>
<path d="M38.2368 56.6396C61.4385 56.2567 87.0379 62.7333 87.0379 62.7333C93.9532 103.101 88.2476 149.664 88.2476 149.664C70.2856 154.376 50.024 146.782 50.024 146.782C47.0389 129.909 33.1103 82.4227 33.1103 82.4227C21.774 81.0162 31.0819 56.7577 38.2368 56.6396Z" fill="#1B1B1B"/>
<path d="M78.1393 85.2074L87.0379 62.7333C87.0379 62.7333 108.709 77.4625 112.273 96.1399C108.178 96.4412 100.727 97.5065 93.4341 101.192C91.8334 92.3715 78.1393 85.2074 78.1393 85.2074Z" fill="#1B1B1B"/>
<path d="M61.738 37.7957L69.1208 59.1529C69.2423 59.5058 69.0976 59.8986 68.7698 60.0801C66.7581 61.1936 59.5067 64.4094 50.7695 58.8683C49.8593 58.2907 49.2403 57.3503 49.1022 56.28L46.7112 37.7957H61.738Z" fill="url(#paint3_linear)"/>
<path d="M45.676 18.0197C45.676 18.0197 37.5693 33.2849 38.6093 39.4519C39.6492 45.6189 49.696 45.1761 58.4682 40.1676L64.5981 23.684L45.676 18.0197Z" fill="url(#paint4_linear)"/>
<path d="M58.0789 32.0715C57.7228 31.9133 57.5914 31.4772 57.8044 31.151C58.4533 30.1589 59.6713 28.1332 60.059 26.3605C60.059 26.3605 61.5166 25.4267 56.3501 24.19C51.1836 22.9533 43.4797 21.0325 41.859 16.6332C40.28 12.3437 46.711 5.46934 51.0472 10.1516C51.3284 10.4545 51.7926 10.4862 52.0439 10.1582C53.1288 8.74508 55.9807 5.81389 59.9425 7.59158C63.6481 9.25442 64.0657 11.9709 64.0158 13.3408C64.0008 13.7436 64.3602 14.0565 64.7562 13.9816C66.6298 13.6237 71.1274 13.3175 73.2256 17.9315C74.9544 21.7315 73.8313 23.8838 72.8079 24.9357C72.4768 25.2769 72.6216 25.8379 73.0758 25.9777C74.3071 26.3555 75.8979 27.3992 75.7381 30.2854C75.5185 34.2753 71.0592 33.924 69.7896 33.7426C69.5816 33.7127 69.372 33.7842 69.2305 33.9407C68.1423 35.1458 63.2371 40.2625 57.9275 40.88C57.4683 40.9333 57.1122 40.4789 57.2619 40.0411L59.5598 33.3598C59.6663 33.0502 59.5182 32.709 59.2187 32.5758L58.0789 32.0715Z" fill="#575757"/>
<path d="M57.1554 33.0202C57.1554 33.0202 62.9276 29.0587 63.3486 32.3944C63.7695 35.7301 58.1505 37.2265 55.3667 35.9831L57.1554 33.0202Z" fill="url(#paint5_linear)"/>
<path d="M42.4598 11.1503C42.4598 11.1503 51.6579 -4.73738 68.0925 4.7553C84.5271 14.248 75.6367 25.9112 75.6367 25.9112L42.4598 11.1503Z" fill="url(#paint6_linear)"/>
<path d="M76.1559 11.9876C76.1559 11.9876 56.3552 -3.82523 46.999 13.1694C43.1736 11.4849 42.4598 11.1503 42.4598 11.1503C42.4598 11.1503 50.7694 -4.07158 62.1007 1.05509C73.4354 6.1801 76.1758 8.64024 76.1559 11.9876Z" fill="url(#paint7_linear)"/>
<path d="M53.4898 16.555C53.5463 16.5816 53.6129 16.5816 53.6728 16.5517L53.8009 16.4817C56.7494 14.9038 61.6829 12.2639 64.9575 13.6188C66.5366 14.2713 68.074 15.2567 69.5599 16.2054C70.6082 16.8762 71.693 17.5703 72.7812 18.1413C74.2621 18.9186 75.8928 19.7525 77.763 20.6863L77.768 20.6879C77.8679 20.7346 77.9877 20.6946 78.0376 20.5947C78.0892 20.4932 78.0476 20.3717 77.9461 20.3218C76.0758 19.3896 74.4502 18.5574 72.9726 17.7817C71.8994 17.2191 70.8228 16.5317 69.7829 15.8642C68.2803 14.9021 66.7146 13.9117 65.1156 13.2426C61.6629 11.8128 56.6229 14.5126 53.6112 16.1222L53.4831 16.1905C53.3833 16.2437 53.3467 16.3669 53.3982 16.4668C53.4165 16.5067 53.4498 16.5367 53.4898 16.555Z" fill="white"/>
<path d="M75.5851 28.4812L36.5345 13.4557C36.2883 13.3608 36.1285 13.1211 36.1368 12.8581C36.1435 12.5951 36.3165 12.3638 36.5678 12.2839C38.5828 11.6347 41.9156 10.7259 43.2501 11.3235C47.5314 13.241 75.6383 25.9112 75.6383 25.9112C75.6383 25.9112 76.3372 26.2391 75.5851 28.4812Z" fill="url(#paint8_linear)"/>
<path d="M71.5485 59.5774C67.9162 68.113 62.4286 77.311 56.0341 86.8337L60.2488 149.574C70.2207 153.061 79.8914 155.203 88.7834 153.842C90.2909 131.436 91.1928 110.619 90.2044 94.7717C89.4856 83.9424 89.2709 73.0482 90.6187 64.7756C88.652 62.7333 83.1777 60.8807 71.5485 59.5774Z" fill="url(#paint9_linear)"/>
<path d="M47.6147 56.2085C49.7129 67.4222 52.3968 78.2365 56.0358 86.8354L60.2505 149.576C55.9709 149.857 51.7745 149.386 47.6047 148.68C43.36 131.814 39.6495 110.255 36.1253 87.0334C36.503 76.1376 36.2301 65.3999 34.9805 56.1103C39.3866 55.3363 43.5747 55.4112 47.6147 56.2085Z" fill="url(#paint10_linear)"/>
<path d="M90.2327 127.567H62.1789V125.141H90.4606L90.2327 127.567Z" fill="white"/>
<path d="M89.7102 138.695H62.1789V134.891H89.9814L89.7102 138.695Z" fill="white"/>
<path d="M55.3918 127.567H42.9723L42.5064 125.141H55.3918V127.567Z" fill="white"/>
<path d="M55.3917 138.695H45.2651L44.4498 134.891H55.3917V138.695Z" fill="white"/>
<path d="M59.2022 106.353C59.2022 106.353 83.5337 120.109 91.7435 108.364C93.449 105.926 93.855 103.5 93.4357 101.19C100.729 97.5065 108.18 96.4412 112.275 96.1382C113.35 101.768 112.78 107.756 109.474 113.809C95.093 140.124 55.9825 112.354 55.9825 112.354L59.2022 106.353Z" fill="url(#paint11_linear)"/>
<path d="M59.555 118.256L46.6196 73.0649C46.4732 72.5522 46.0356 72.1777 45.5048 72.1161C43.1603 71.8431 36.3699 71.0741 28.5278 70.4117C19.0834 69.6127 8.11316 68.9652 1.55897 69.5162C0.627179 69.5944 0.0647731 70.5798 0.47909 71.4187C4.20627 78.9622 19.5376 109.647 27.2166 119.699C27.4712 120.032 27.8639 120.227 28.2832 120.224L58.297 119.944C59.1706 119.934 59.7962 119.095 59.555 118.256Z" fill="url(#paint12_linear)"/>
<path d="M26.7025 66.5434L17.4927 65.0087C17.0018 64.9272 16.6008 65.3966 16.7556 65.8676L17.6674 68.6307C17.7473 68.872 17.9569 69.0452 18.2082 69.0784L27.0702 70.2619C27.5295 70.3235 27.9072 69.9057 27.8007 69.4563L27.2366 67.0428C27.1767 66.7848 26.9654 66.5867 26.7025 66.5434Z" fill="#4D7568"/>
<path d="M33.5976 74.3416L32.8389 70.3884C32.7624 69.9922 32.4362 69.6926 32.0336 69.651L13.4326 67.7634C12.807 67.7002 12.3045 68.2745 12.4525 68.8853L13.6356 73.8122C13.7304 74.2067 14.0732 74.4914 14.4775 74.5113L32.6542 75.4268C33.2466 75.4568 33.7091 74.9241 33.5976 74.3416Z" fill="#4D7568"/>
<path d="M58.2987 114.896C59.5948 115.02 60.7646 114.112 61.0291 112.837C61.6331 109.927 62.5716 104.614 61.9293 102.29C61.0208 99.0062 59.2621 94.785 53.4017 95.7221C47.5397 96.6609 40.6245 99.131 40.6245 99.131C40.6245 99.131 40.9739 103.409 45.4282 102.029L42.6661 104.168C42.6661 104.168 43.0605 107.593 46.8242 105.762L44.2552 108.599C44.2552 108.599 45.8708 111.412 48.6396 109.607C51.1155 107.995 52.4383 114.328 58.2987 114.896Z" fill="url(#paint13_linear)"/>
<path d="M15.3778 100.509C15.3778 100.509 8.55571 93.8629 7.58065 90.5988C6.6056 87.3347 5.8535 82.8222 11.3178 80.5019C16.7821 78.1816 23.9536 76.6003 23.9536 76.6003C23.9536 76.6003 25.9287 80.4104 21.4212 81.6088L24.8971 81.9534C24.8971 81.9534 26.3813 85.0643 22.2215 85.5154L25.9038 86.5524C25.9038 86.5524 26.0285 89.7949 22.724 89.7366C19.4228 89.6767 22.6225 97.2801 15.3778 100.509Z" fill="url(#paint14_linear)"/>
<defs>
<linearGradient id="paint0_linear" x1="42.2062" y1="95.468" x2="9.66098" y2="95.468" gradientUnits="userSpaceOnUse">
<stop stop-color="#F9B776"/>
<stop offset="1" stop-color="#F47960"/>
</linearGradient>
<linearGradient id="paint1_linear" x1="60" y1="193.5" x2="57.0258" y2="281.599" gradientUnits="userSpaceOnUse">
<stop stop-color="#08231A"/>
<stop offset="1" stop-color="#205242"/>
</linearGradient>
<linearGradient id="paint2_linear" x1="69.9356" y1="140.299" x2="69.9356" y2="281.89" gradientUnits="userSpaceOnUse">
<stop stop-color="#08231A"/>
<stop offset="1" stop-color="#205242"/>
</linearGradient>
<linearGradient id="paint3_linear" x1="69.1641" y1="49.9092" x2="46.7122" y2="49.9092" gradientUnits="userSpaceOnUse">
<stop stop-color="#F9B776"/>
<stop offset="1" stop-color="#F47960"/>
</linearGradient>
<linearGradient id="paint4_linear" x1="41.3721" y1="35.6207" x2="66.0626" y2="20.5666" gradientUnits="userSpaceOnUse">
<stop stop-color="#F9B776"/>
<stop offset="1" stop-color="#F47960"/>
</linearGradient>
<linearGradient id="paint5_linear" x1="47.856" y1="41.2378" x2="70.0707" y2="27.6932" gradientUnits="userSpaceOnUse">
<stop stop-color="#F9B776"/>
<stop offset="1" stop-color="#F47960"/>
</linearGradient>
<linearGradient id="paint6_linear" x1="65.9909" y1="47.3359" x2="48.8937" y2="-51.0534" gradientUnits="userSpaceOnUse">
<stop stop-color="#FDF53F"/>
<stop offset="1" stop-color="#D93C65"/>
</linearGradient>
<linearGradient id="paint7_linear" x1="58.9677" y1="-7.19123" x2="60.354" y2="69.0272" gradientUnits="userSpaceOnUse">
<stop stop-color="#FDF53F"/>
<stop offset="1" stop-color="#D93C65"/>
</linearGradient>
<linearGradient id="paint8_linear" x1="55.6896" y1="-16.9773" x2="56.6138" y2="81.414" gradientUnits="userSpaceOnUse">
<stop stop-color="#FDF53F"/>
<stop offset="1" stop-color="#D93C65"/>
</linearGradient>
<linearGradient id="paint9_linear" x1="77.8671" y1="88.083" x2="53.381" y2="232.689" gradientUnits="userSpaceOnUse">
<stop stop-color="#FDF53F"/>
<stop offset="1" stop-color="#D93C65"/>
</linearGradient>
<linearGradient id="paint10_linear" x1="47.3763" y1="54.5946" x2="48.1297" y2="207.113" gradientUnits="userSpaceOnUse">
<stop stop-color="#FDF53F"/>
<stop offset="1" stop-color="#D93C65"/>
</linearGradient>
<linearGradient id="paint11_linear" x1="112.769" y1="110.64" x2="55.9815" y2="110.64" gradientUnits="userSpaceOnUse">
<stop stop-color="#F9B776"/>
<stop offset="1" stop-color="#F47960"/>
</linearGradient>
<linearGradient id="paint12_linear" x1="29.974" y1="69.3111" x2="29.974" y2="120.224" gradientUnits="userSpaceOnUse">
<stop stop-color="#1A4D3D"/>
<stop offset="1" stop-color="#336152"/>
</linearGradient>
<linearGradient id="paint13_linear" x1="62.1464" y1="105.248" x2="40.6255" y2="105.248" gradientUnits="userSpaceOnUse">
<stop stop-color="#F9B776"/>
<stop offset="1" stop-color="#F47960"/>
</linearGradient>
<linearGradient id="paint14_linear" x1="8.97722" y1="93.2307" x2="27.214" y2="81.8001" gradientUnits="userSpaceOnUse">
<stop stop-color="#F9B776"/>
<stop offset="1" stop-color="#F47960"/>
</linearGradient>
</defs>
</svg>
