<svg width="24" height="24" viewBox="0 0 24 24" fill="none" xmlns="http://www.w3.org/2000/svg">
<path fill-rule="evenodd" clip-rule="evenodd" d="M9.15445 16.6705H14.2713C14.6569 16.6705 14.9767 16.3475 14.9767 15.958C14.9767 15.5685 14.6569 15.255 14.2713 15.255H9.15445C8.7688 15.255 8.449 15.5685 8.449 15.958C8.449 16.3475 8.7688 16.6705 9.15445 16.6705ZM12.3337 10.505H9.15445C8.7688 10.505 8.449 10.828 8.449 11.2175C8.449 11.607 8.7688 11.9205 9.15445 11.9205H12.3337C12.7193 11.9205 13.0391 11.607 13.0391 11.2175C13.0391 10.828 12.7193 10.505 12.3337 10.505ZM19.0462 9.67433C19.2673 9.67178 19.508 9.669 19.7267 9.669C19.9619 9.669 20.15 9.859 20.15 10.0965V17.7345C20.15 20.0905 18.2594 22 15.9267 22H8.4396C5.99406 22 4 19.9955 4 17.5255V7.2845C4 4.9285 5.9 3 8.24208 3H13.2649C13.5094 3 13.6975 3.1995 13.6975 3.437V6.496C13.6975 8.2345 15.1178 9.6595 16.8391 9.669C17.2412 9.669 17.5956 9.67201 17.9058 9.67463C18.1471 9.67668 18.3617 9.6785 18.551 9.6785C18.6849 9.6785 18.8584 9.6765 19.0462 9.67433ZM19.3055 8.28771C18.5323 8.29056 17.6209 8.28771 16.9653 8.28106C15.925 8.28106 15.0681 7.41561 15.0681 6.36491V3.86071C15.0681 3.45126 15.5601 3.24796 15.8413 3.54341C16.35 4.07764 17.049 4.81187 17.7448 5.54287C18.4399 6.27296 19.1318 6.99983 19.6281 7.52106C19.9028 7.80891 19.7015 8.28676 19.3055 8.28771Z" fill="#636363"/>
</svg>
