<svg width="22" height="20" viewBox="0 0 22 20" fill="none" xmlns="http://www.w3.org/2000/svg">
<path fill-rule="evenodd" clip-rule="evenodd" d="M11.2477 0.283222L20.6884 8.88562C21.0204 9.18813 21.13 9.65414 20.9681 10.0729C20.8059 10.4916 20.4109 10.7622 19.9618 10.7622H18.4537V19.3812C18.4537 19.723 18.1766 20 17.8349 20H12.6604C12.3187 20 12.0416 19.7229 12.0416 19.3812V14.148H9.00034V19.3812C9.00034 19.7229 8.72327 20 8.38154 20H3.20682C2.8651 20 2.58802 19.7229 2.58802 19.3812V10.7622H1.08016C0.631091 10.7622 0.236147 10.4917 0.0739358 10.0729C-0.088234 9.65418 0.0214135 9.18813 0.353356 8.88566L9.79418 0.283181C10.2084 -0.0943798 10.8333 -0.094421 11.2477 0.283222ZM14.1365 1.23518H18.2922C18.6339 1.23518 18.911 1.51221 18.911 1.85394V5.57653L14.1365 1.23518Z" fill="white"/>
</svg>
