<svg width="27" height="24" viewBox="0 0 27 24" fill="none" xmlns="http://www.w3.org/2000/svg">
<path fill-rule="evenodd" clip-rule="evenodd" d="M22.16 12.0313V9.48921L23.2924 10.2425C23.5056 10.3843 23.7499 10.4552 23.9942 10.4552C24.2386 10.4552 24.4829 10.3842 24.6961 10.2424C25.0501 10.0069 25.2615 9.61251 25.2615 9.18733C25.2615 8.76216 25.0501 8.36775 24.6961 8.13225L21.9326 6.29391L21.932 6.29349L21.7768 6.19028L21.7761 6.18977L13.0156 0.362309C12.7973 0.21704 12.5151 0.21704 12.2968 0.362309L8.80608 2.68433V2.08286H8.91208C9.17724 2.08286 9.39296 1.86714 9.39296 1.60198V0.480875C9.39296 0.215717 9.17724 0 8.91208 0H5.00293C4.73777 0 4.52205 0.215717 4.52205 0.480875V1.60198C4.52205 1.86714 4.73777 2.08286 5.00293 2.08286H5.10888V5.14369L0.616203 8.13225C0.262185 8.36775 0.0508423 8.76221 0.0508423 9.18738C0.0508423 9.61256 0.262185 10.007 0.616203 10.2425C1.0426 10.5261 1.59357 10.5261 2.01992 10.2425L3.15227 9.48927V18.3415V18.5219V20.2156H1.62841C1.06193 20.2156 0.600995 20.6764 0.600995 21.243C0.600995 21.8095 1.06188 22.2704 1.62841 22.2704H15.604C16.7185 23.3409 18.2312 24 19.8949 24C23.3128 24 26.0936 21.2193 26.0936 17.8014C26.0936 15.1825 24.461 12.9377 22.16 12.0313ZM21.5219 6.91002L21.5222 6.91023L24.286 8.74878C24.4353 8.84812 24.521 9.00798 24.521 9.18733C24.521 9.36668 24.4353 9.52655 24.286 9.62589C24.1087 9.74374 23.8797 9.74374 23.7025 9.62589L21.9951 8.49008L21.9949 8.48993L13.0623 2.54802L13.0156 2.51694C13.0043 2.50941 12.9927 2.50249 12.981 2.49573L12.974 2.49145C12.9617 2.48449 12.9491 2.47813 12.9364 2.47207L12.9311 2.46933C12.9176 2.46302 12.904 2.45732 12.8903 2.45198L12.887 2.45061C12.8825 2.44888 12.8779 2.44739 12.8733 2.44589L12.8661 2.44349C12.678 2.37889 12.4678 2.40315 12.2968 2.51694L1.60979 9.62599C1.43253 9.74384 1.20349 9.74384 1.02633 9.62599C0.876987 9.52665 0.79133 9.36678 0.79133 9.18744C0.79133 9.00809 0.876987 8.84822 1.02633 8.74888L12.6562 1.01256L21.3667 6.80681L21.5219 6.91002ZM3.89275 8.99669V18.3415V18.5219V20.2156H5.37236V11.5957C5.37236 11.1658 5.7221 10.816 6.15206 10.816H11.5811C12.011 10.816 12.3608 11.1657 12.3608 11.5957V20.2156H14.1846C14.1142 20.0486 14.0515 19.8783 13.996 19.7057L13.9902 19.688C13.9844 19.6702 13.9786 19.6525 13.9731 19.6347L13.9726 19.6331C13.8078 19.1014 13.7127 18.5393 13.6983 17.9575C13.697 17.9055 13.6963 17.8534 13.6963 17.8013C13.6963 17.3741 13.7398 16.9568 13.8225 16.5537C14.4014 13.7317 16.9042 11.6027 19.8949 11.6027L19.9039 11.6028C19.9602 11.6029 20.0163 11.6039 20.0722 11.6054C20.0868 11.6059 20.1013 11.6065 20.1158 11.6071L20.1159 11.6071L20.1349 11.6078C20.1732 11.6093 20.2115 11.6109 20.2497 11.6131C20.2739 11.6145 20.2981 11.6161 20.3223 11.6178C20.3573 11.6201 20.3922 11.6228 20.4271 11.6258C20.4523 11.628 20.4774 11.6301 20.5025 11.6326C20.5373 11.636 20.5718 11.6399 20.6064 11.6438L20.6306 11.6465C20.647 11.6484 20.6633 11.6502 20.6796 11.6522C20.7329 11.659 20.786 11.6664 20.8389 11.6745C20.8617 11.678 20.8844 11.6819 20.9072 11.6858L20.9323 11.69L20.951 11.6932L20.9511 11.6932C20.9697 11.6963 20.9884 11.6995 21.007 11.7028C21.0411 11.7091 21.0752 11.7157 21.1091 11.7225C21.1296 11.7266 21.1502 11.7307 21.1706 11.735C21.2073 11.7427 21.2441 11.7507 21.2807 11.7591L21.3081 11.7655L21.3219 11.7688L21.3534 11.7762C21.3755 11.7813 21.3976 11.7864 21.4196 11.7919V8.99669L12.6562 3.16719L3.89275 8.99669ZM8.06559 3.17691L5.84937 4.65112V2.08286H8.06559V3.17691ZM5.26254 0.740488H8.65247V1.34237H5.26254V0.740488ZM6.11279 11.5957C6.11279 11.574 6.13039 11.5565 6.15201 11.5565H11.5811C11.6027 11.5565 11.6203 11.5741 11.6203 11.5957V20.2156H6.11279V11.5957ZM1.62841 21.5299C1.47022 21.5299 1.34148 21.4012 1.34148 21.243C1.34148 21.0847 1.47022 20.9561 1.62841 20.9561H14.5581C14.6756 21.1543 14.804 21.3459 14.9428 21.5299H1.62841ZM19.8949 23.2595C17.5067 23.2595 15.4721 21.7176 14.7336 19.5771C14.727 19.5578 14.7204 19.5386 14.714 19.5192C14.7094 19.5053 14.7049 19.4915 14.7004 19.4776C14.6972 19.4677 14.694 19.4578 14.6908 19.4479C14.6784 19.4085 14.6663 19.369 14.6548 19.3292L14.6487 19.3088C14.5562 18.9857 14.4934 18.6537 14.4614 18.3179L14.4599 18.3012C14.4557 18.2548 14.4521 18.2083 14.449 18.1618L14.4467 18.125C14.4442 18.0837 14.4423 18.0423 14.4408 18.0009L14.4403 17.9875L14.4393 17.9606C14.4377 17.9076 14.4368 17.8545 14.4368 17.8013C14.4368 17.4251 14.4751 17.0577 14.5479 16.7027C15.0577 14.2178 17.2615 12.3432 19.8949 12.3432L19.898 12.3432C19.9642 12.3433 20.0301 12.3449 20.0959 12.3473C20.1113 12.3479 20.1267 12.3484 20.1421 12.3491C20.2058 12.3519 20.2693 12.3558 20.3327 12.3608L20.3504 12.3624L20.3791 12.365C20.4331 12.3697 20.4871 12.3753 20.5409 12.3816L20.5615 12.384L20.5854 12.3867C20.6442 12.3941 20.7027 12.4029 20.7612 12.4122C20.7844 12.4159 20.8075 12.4197 20.8306 12.4238C20.8855 12.4333 20.9403 12.4434 20.9949 12.4546C21.0134 12.4584 21.0319 12.4625 21.0503 12.4666C21.0576 12.4682 21.0648 12.4698 21.0721 12.4714C21.1071 12.4791 21.1421 12.4872 21.177 12.4957C21.2203 12.5062 21.2634 12.5171 21.3062 12.5286C21.3382 12.5371 21.37 12.5458 21.4018 12.5549C21.4374 12.5652 21.4729 12.5757 21.5083 12.5866L21.5338 12.5948L21.5529 12.6009C23.7543 13.3044 25.353 15.3695 25.353 17.8013C25.3531 20.811 22.9046 23.2595 19.8949 23.2595ZM10.4942 14.9412C10.2905 14.9412 10.1254 15.1063 10.1254 15.31V16.0724C10.1254 16.2762 10.2905 16.4413 10.4942 16.4413C10.698 16.4413 10.8631 16.2762 10.8631 16.0724V15.31C10.8631 15.1063 10.698 14.9412 10.4942 14.9412ZM19.6665 20.0688L22.929 16.8066C23.1706 16.5648 23.1706 16.1729 22.9289 15.9313C22.6873 15.6897 22.2954 15.6895 22.0537 15.9313L19.229 18.7559L17.9823 17.5092C17.7407 17.2676 17.3489 17.2676 17.1071 17.5093C16.8654 17.751 16.8654 18.1429 17.1071 18.3846L18.7912 20.0688C19.0331 20.3104 19.425 20.3104 19.6665 20.0688Z" fill="white"/>
</svg>
