<svg width="27" height="24" viewBox="0 0 27 24" fill="none" xmlns="http://www.w3.org/2000/svg">
<path fill-rule="evenodd" clip-rule="evenodd" d="M22.1092 12.0313V9.48921L23.2416 10.2425C23.4547 10.3843 23.699 10.4552 23.9434 10.4552C24.1877 10.4552 24.4321 10.3842 24.6453 10.2424C24.9993 10.0069 25.2106 9.61251 25.2106 9.18733C25.2106 8.76216 24.9993 8.36775 24.6453 8.13225L21.8818 6.29391L21.8811 6.29349L21.726 6.19028L21.7252 6.18977L12.9648 0.362309C12.7464 0.21704 12.4642 0.21704 12.2459 0.362309L8.75524 2.68433V2.08286H8.86124C9.1264 2.08286 9.34211 1.86714 9.34211 1.60198V0.480875C9.34211 0.215717 9.1264 0 8.86124 0H4.95209C4.68693 0 4.47121 0.215717 4.47121 0.480875V1.60198C4.47121 1.86714 4.68693 2.08286 4.95209 2.08286H5.05804V5.14369L0.565361 8.13225C0.211343 8.36775 0 8.76221 0 9.18738C0 9.61256 0.211343 10.007 0.565361 10.2425C0.99176 10.5261 1.54273 10.5261 1.96907 10.2425L3.10142 9.48927V18.3415V18.5219V20.2156H1.57757C1.01109 20.2156 0.550153 20.6764 0.550153 21.243C0.550153 21.8095 1.01104 22.2704 1.57757 22.2704H15.5532C16.6677 23.3409 18.1803 24 19.8441 24C23.262 24 26.0427 21.2193 26.0427 17.8014C26.0427 15.1825 24.4101 12.9377 22.1092 12.0313ZM21.471 6.91002L21.4713 6.91023L24.2351 8.74878C24.3845 8.84812 24.4701 9.00798 24.4701 9.18733C24.4701 9.36668 24.3845 9.52655 24.2351 9.62589C24.0579 9.74374 23.8289 9.74374 23.6517 9.62589L21.9443 8.49008L21.944 8.48993L13.0115 2.54802L12.9648 2.51694C12.9535 2.50941 12.9419 2.50249 12.9302 2.49573L12.9232 2.49145C12.9108 2.48449 12.8982 2.47813 12.8856 2.47207L12.8802 2.46933C12.8668 2.46302 12.8532 2.45732 12.8394 2.45198L12.8361 2.45061C12.8316 2.44888 12.8271 2.44739 12.8225 2.44589L12.8153 2.44349C12.6272 2.37889 12.417 2.40315 12.2459 2.51694L1.55895 9.62599C1.38169 9.74384 1.15264 9.74384 0.975483 9.62599C0.826144 9.52665 0.740488 9.36678 0.740488 9.18744C0.740488 9.00809 0.826144 8.84822 0.975483 8.74888L12.6053 1.01256L21.3159 6.80681L21.471 6.91002ZM3.84191 8.99669V18.3415V18.5219V20.2156H5.32152V11.5957C5.32152 11.1658 5.67126 10.816 6.10122 10.816H11.5302C11.9601 10.816 12.3099 11.1657 12.3099 11.5957V20.2156H14.1338C14.0633 20.0486 14.0007 19.8783 13.9451 19.7057L13.9393 19.688C13.9335 19.6702 13.9278 19.6525 13.9222 19.6347L13.9218 19.6331C13.757 19.1014 13.6619 18.5393 13.6475 17.9575C13.6461 17.9055 13.6455 17.8534 13.6455 17.8013C13.6455 17.3741 13.6889 16.9568 13.7716 16.5537C14.3506 13.7317 16.8534 11.6027 19.844 11.6027L19.8531 11.6028C19.9094 11.6029 19.9655 11.6039 20.0214 11.6054C20.0359 11.6059 20.0504 11.6065 20.065 11.6071L20.0651 11.6071L20.084 11.6078C20.1224 11.6093 20.1607 11.6109 20.1989 11.6131C20.2231 11.6145 20.2473 11.6161 20.2715 11.6178C20.3065 11.6201 20.3414 11.6228 20.3762 11.6258C20.4014 11.628 20.4265 11.6301 20.4517 11.6326C20.4864 11.636 20.521 11.6399 20.5556 11.6438L20.5798 11.6465C20.5961 11.6484 20.6125 11.6502 20.6287 11.6522C20.6821 11.659 20.7352 11.6664 20.7881 11.6745C20.8109 11.678 20.8336 11.6819 20.8563 11.6858L20.8814 11.69L20.9002 11.6932L20.9002 11.6932C20.9189 11.6963 20.9376 11.6995 20.9562 11.7028C20.9903 11.7091 21.0243 11.7157 21.0583 11.7225C21.0788 11.7266 21.0993 11.7307 21.1198 11.735C21.1565 11.7427 21.1932 11.7507 21.2299 11.7591L21.2573 11.7655L21.2711 11.7688L21.3026 11.7762C21.3246 11.7813 21.3467 11.7864 21.3687 11.7919V8.99669L12.6053 3.16719L3.84191 8.99669ZM8.01475 3.17691L5.79852 4.65112V2.08286H8.01475V3.17691ZM5.2117 0.740488H8.60163V1.34237H5.2117V0.740488ZM6.06195 11.5957C6.06195 11.574 6.07955 11.5565 6.10117 11.5565H11.5302C11.5519 11.5565 11.5694 11.5741 11.5694 11.5957V20.2156H6.06195V11.5957ZM1.57757 21.5299C1.41938 21.5299 1.29064 21.4012 1.29064 21.243C1.29064 21.0847 1.41938 20.9561 1.57757 20.9561H14.5073C14.6247 21.1543 14.7532 21.3459 14.892 21.5299H1.57757ZM19.8441 23.2595C17.4558 23.2595 15.4212 21.7176 14.6828 19.5771C14.6761 19.5578 14.6696 19.5386 14.6632 19.5192C14.6586 19.5053 14.654 19.4915 14.6495 19.4776C14.6463 19.4677 14.6431 19.4578 14.64 19.4479C14.6276 19.4085 14.6155 19.369 14.6039 19.3292L14.5979 19.3088C14.5053 18.9857 14.4425 18.6537 14.4106 18.3179L14.4091 18.3012C14.4048 18.2548 14.4013 18.2083 14.3982 18.1618L14.3958 18.125C14.3934 18.0837 14.3915 18.0423 14.39 18.0009L14.3894 17.9875L14.3885 17.9606C14.3869 17.9076 14.386 17.8545 14.386 17.8013C14.386 17.4251 14.4242 17.0577 14.497 16.7027C15.0069 14.2178 17.2107 12.3432 19.8441 12.3432L19.8472 12.3432C19.9133 12.3433 19.9792 12.3449 20.0451 12.3473C20.0605 12.3479 20.0759 12.3484 20.0912 12.3491C20.1549 12.3519 20.2185 12.3558 20.2818 12.3608L20.2996 12.3624L20.3283 12.365C20.3823 12.3697 20.4362 12.3753 20.49 12.3816L20.5107 12.384L20.5345 12.3867C20.5933 12.3941 20.6519 12.4029 20.7103 12.4122C20.7335 12.4159 20.7567 12.4197 20.7798 12.4238C20.8347 12.4333 20.8895 12.4434 20.944 12.4546C20.9626 12.4584 20.981 12.4625 20.9994 12.4666C21.0067 12.4682 21.014 12.4698 21.0213 12.4714C21.0563 12.4791 21.0912 12.4872 21.1261 12.4957C21.1694 12.5062 21.2125 12.5171 21.2554 12.5286C21.2873 12.5371 21.3192 12.5458 21.351 12.5549C21.3866 12.5652 21.4221 12.5757 21.4574 12.5866L21.4829 12.5948L21.5021 12.6009C23.7035 13.3044 25.3022 15.3695 25.3022 17.8013C25.3022 20.811 22.8537 23.2595 19.8441 23.2595ZM10.4434 14.9412C10.2396 14.9412 10.0745 15.1063 10.0745 15.31V16.0724C10.0745 16.2762 10.2396 16.4413 10.4434 16.4413C10.6472 16.4413 10.8123 16.2762 10.8123 16.0724V15.31C10.8123 15.1063 10.6472 14.9412 10.4434 14.9412ZM19.6157 20.0688L22.8782 16.8066C23.1197 16.5648 23.1197 16.1729 22.8781 15.9313C22.6364 15.6897 22.2445 15.6895 22.0028 15.9313L19.1782 18.7559L17.9315 17.5092C17.6899 17.2676 17.298 17.2676 17.0563 17.5093C16.8146 17.751 16.8146 18.1429 17.0563 18.3846L18.7404 20.0688C18.9822 20.3104 19.3741 20.3104 19.6157 20.0688Z" fill="#003927"/>
</svg>
