<svg width="18" height="19" viewBox="0 0 18 19" fill="none" xmlns="http://www.w3.org/2000/svg">
<path d="M8.42257 5.96789V2.96113C8.42257 2.64142 8.67758 2.375 9.00008 2.375C9.28883 2.375 9.53346 2.59887 9.57223 2.88244L9.57757 2.96113V5.96789L13.1625 5.96812C14.9475 5.96812 16.414 7.42984 16.4964 9.25281L16.5 9.41457V13.194C16.5 15.0298 15.0845 16.5366 13.326 16.6213L13.17 16.625H4.83C3.045 16.625 1.58557 15.1706 1.50363 13.3409L1.5 13.1786L1.5 9.40682C1.5 7.57108 2.90843 6.05691 4.6665 5.97188L4.8225 5.96812H8.4225V10.7699L7.2225 9.53074C6.9975 9.29839 6.63 9.29839 6.405 9.53074C6.2925 9.64691 6.24 9.80181 6.24 9.95671C6.24 10.0744 6.2736 10.1971 6.34464 10.3009L6.405 10.3749L8.5875 12.6364C8.6925 12.7526 8.8425 12.8145 9 12.8145C9.125 12.8145 9.25 12.7715 9.34896 12.6899L9.405 12.6364L11.5875 10.3749C11.8125 10.1426 11.8125 9.76308 11.5875 9.53074C11.383 9.31952 11.0606 9.30031 10.8347 9.47313L10.77 9.53074L9.5775 10.7699V5.96812L8.42257 5.96789Z" fill="#1A4D3D"/>
</svg>
