<svg width="40" height="40" viewBox="0 0 40 40" fill="none" xmlns="http://www.w3.org/2000/svg">
<circle cx="20" cy="20" r="19" fill="#CCD7D4" stroke="white" stroke-width="2"/>
<path fill-rule="evenodd" clip-rule="evenodd" d="M24.51 14.9593C24.5448 15.0158 24.6056 15.0562 24.6837 15.0562C26.7681 15.0562 28.4703 16.6384 28.4703 18.5758V23.371C28.4703 25.3084 26.7681 26.8906 24.6837 26.8906H14.8873C12.7943 26.8906 11.1008 25.3084 11.1008 23.371V18.5758C11.1008 16.6384 12.7943 15.0562 14.8873 15.0562C14.9568 15.0562 15.0263 15.0239 15.0523 14.9593L15.1044 14.8624C15.1344 14.8038 15.1651 14.7436 15.1963 14.6824C15.4185 14.2469 15.6643 13.7651 15.8166 13.482C16.2161 12.7555 16.8935 12.3518 17.7359 12.3438H21.8264C22.6689 12.3518 23.355 12.7555 23.7545 13.482C23.8912 13.7363 24.0996 14.1459 24.3005 14.5407C24.3419 14.6221 24.3831 14.703 24.4232 14.7817L24.51 14.9593ZM23.876 18.0592C23.876 18.4628 24.2234 18.7857 24.6576 18.7857C25.0919 18.7857 25.4479 18.4628 25.4479 18.0592C25.4479 17.6555 25.0919 17.3246 24.6576 17.3246C24.2234 17.3246 23.876 17.6555 23.876 18.0592ZM18.2831 19.3104C18.6913 18.931 19.221 18.7292 19.7855 18.7292C20.35 18.7292 20.8798 18.931 21.2793 19.3024C21.6788 19.6737 21.8959 20.1661 21.8959 20.6908C21.8872 21.7726 20.9493 22.6525 19.7855 22.6525C19.221 22.6525 18.6913 22.4507 18.2918 22.0793C17.8923 21.708 17.6751 21.2156 17.6751 20.6908V20.6828C17.6665 20.1742 17.8836 19.6818 18.2831 19.3104ZM22.1912 22.935C21.5746 23.5082 20.7234 23.8634 19.7855 23.8634C18.8736 23.8634 18.0225 23.5324 17.3711 22.935C16.7285 22.3296 16.3724 21.5385 16.3724 20.6908C16.3637 19.8513 16.7198 19.0602 17.3624 18.4547C18.0138 17.8493 18.8736 17.5183 19.7855 17.5183C20.6974 17.5183 21.5572 17.8493 22.1999 18.4467C22.8425 19.0521 23.1986 19.8513 23.1986 20.6908C23.1899 21.5708 22.8078 22.3619 22.1912 22.935Z" fill="#4D7568"/>
</svg>
