<svg width="18" height="19" viewBox="0 0 18 19" fill="none" xmlns="http://www.w3.org/2000/svg">
<path d="M9 0.5C4.0372 0.5 0 4.5372 0 9.5C0 14.4628 4.0372 18.5 9 18.5C13.9628 18.5 18 14.4628 18 9.5C18 4.5372 13.9628 0.5 9 0.5ZM12.9375 10.25H9.74995V13.4375C9.74995 13.8515 9.41405 14.1875 9 14.1875C8.58595 14.1875 8.25005 13.8515 8.25005 13.4375V10.25H5.0625C4.64845 10.25 4.31255 9.91405 4.31255 9.5C4.31255 9.08595 4.64845 8.75005 5.0625 8.75005H8.25005V5.5625C8.25005 5.14845 8.58595 4.81255 9 4.81255C9.41405 4.81255 9.74995 5.14845 9.74995 5.5625V8.75005H12.9375C13.3515 8.75005 13.6875 9.08595 13.6875 9.5C13.6875 9.91405 13.3515 10.25 12.9375 10.25Z" fill="white"/>
</svg>
