<svg width="19" height="18" viewBox="0 0 19 18" fill="none" xmlns="http://www.w3.org/2000/svg">
<path d="M9.5 0C4.53759 0 0.5 4.03759 0.5 9C0.5 13.9624 4.53759 18 9.5 18C14.4624 18 18.5 13.9624 18.5 9C18.5 4.03759 14.4624 0 9.5 0ZM14.5301 6.63158L8.7782 12.3383C8.43985 12.6767 7.8985 12.6992 7.53759 12.3609L4.49248 9.58647C4.13158 9.24812 4.10902 8.68421 4.42481 8.32331C4.76316 7.96241 5.32707 7.93985 5.68797 8.2782L8.1015 10.4887L13.2444 5.34586C13.6053 4.98496 14.1692 4.98496 14.5301 5.34586C14.891 5.70677 14.891 6.27068 14.5301 6.63158Z" fill="white"/>
</svg>
