<svg width="17" height="16" viewBox="0 0 17 16" fill="none" xmlns="http://www.w3.org/2000/svg">
<path d="M8.4489 0C4.13997 0 0.573242 3.50638 0.573242 7.81648C0.573242 12.1266 4.13997 15.6943 8.4489 15.6943C12.7578 15.6943 16.2633 12.1266 16.2633 7.81648C16.2633 3.50638 12.7578 0 8.4489 0ZM12.3169 10.3849C12.6754 10.7435 12.6754 11.3268 12.3169 11.6858C11.9611 12.0414 11.3779 12.0472 11.0163 11.6858L8.4489 9.11678L5.8199 11.6861C5.46136 12.0447 4.8782 12.0447 4.51935 11.6861C4.16081 11.3275 4.16081 10.7441 4.51935 10.3852L7.08737 7.81648L4.51935 5.24777C4.16081 4.88883 4.16081 4.3055 4.51935 3.94686C4.8782 3.58823 5.46136 3.58823 5.8199 3.94686L8.4489 6.51619L11.0163 3.94686C11.3742 3.58884 11.9574 3.58761 12.3169 3.94686C12.6754 4.3055 12.6754 4.88883 12.3169 5.24777L9.74885 7.81648L12.3169 10.3849Z" fill="#E53935"/>
</svg>
