<svg width="25" height="25" viewBox="0 0 25 25" fill="none" xmlns="http://www.w3.org/2000/svg">
<path d="M12.5435 0.5C5.95236 0.5 0.496582 5.86203 0.496582 12.4531C0.496582 19.0442 5.95236 24.5 12.5435 24.5C19.1346 24.5 24.4966 19.0442 24.4966 12.4531C24.4966 5.86203 19.1346 0.5 12.5435 0.5ZM18.46 16.3808C19.0085 16.9292 19.0085 17.8213 18.46 18.3702C17.9158 18.9139 17.0238 18.9228 16.4706 18.3702L12.5435 14.4416L8.52205 18.3706C7.97361 18.9191 7.08158 18.9191 6.53268 18.3706C5.98424 17.8222 5.98424 16.9302 6.53268 16.3812L10.4608 12.4531L6.53268 8.525C5.98424 7.97609 5.98424 7.08406 6.53268 6.53562C7.08158 5.98719 7.97361 5.98719 8.52205 6.53562L12.5435 10.4647L16.4706 6.53562C17.0181 5.98812 17.9102 5.98625 18.46 6.53562C19.0085 7.08406 19.0085 7.97609 18.46 8.525L14.5319 12.4531L18.46 16.3808Z" fill="#1A4D3D"/>
</svg>
