<svg width="16" height="18" viewBox="0 0 16 18" fill="none" xmlns="http://www.w3.org/2000/svg">
<path fill-rule="evenodd" clip-rule="evenodd" d="M14.9062 3.36849C15.2304 3.36849 15.5003 3.63765 15.5003 3.98015V4.29681C15.5003 4.63098 15.2304 4.90847 14.9062 4.90847H1.09495C0.769948 4.90847 0.500061 4.63098 0.500061 4.29681V3.98015C0.500061 3.63765 0.769948 3.36849 1.09495 3.36849H3.52474C4.01832 3.36849 4.44787 3.01766 4.5589 2.52266L4.68615 1.95434C4.8839 1.18018 5.53471 0.666016 6.27953 0.666016H9.72079C10.4575 0.666016 11.1156 1.18018 11.3061 1.9135L11.4422 2.52183C11.5525 3.01766 11.982 3.36849 12.4764 3.36849H14.9062ZM13.6718 14.9444C13.9255 12.5802 14.3696 6.96362 14.3696 6.90695C14.3858 6.73529 14.3299 6.57279 14.2189 6.44196C14.0997 6.31946 13.949 6.24696 13.7828 6.24696H2.22388C2.05692 6.24696 1.89807 6.31946 1.78784 6.44196C1.676 6.57279 1.62089 6.73529 1.62899 6.90695C1.63048 6.91737 1.64642 7.11521 1.67306 7.44597C1.79142 8.91533 2.12108 13.0078 2.3341 14.9444C2.48485 16.371 3.42094 17.2677 4.77686 17.3002C5.82318 17.3244 6.90111 17.3327 8.00335 17.3327C9.04156 17.3327 10.096 17.3244 11.1747 17.3002C12.5776 17.276 13.5129 16.3952 13.6718 14.9444Z" fill="#003927"/>
</svg>
