<svg width="24" height="20" viewBox="0 0 24 20" fill="none" xmlns="http://www.w3.org/2000/svg">
<path fill-rule="evenodd" clip-rule="evenodd" d="M17.5986 4.14136C17.6374 4.20446 17.7053 4.24953 17.7925 4.24953C20.12 4.24953 22.0208 6.01635 22.0208 8.1798V13.5343C22.0208 15.6978 20.12 17.4646 17.7925 17.4646H6.85329C4.51609 17.4646 2.625 15.6978 2.625 13.5343V8.1798C2.625 6.01635 4.51609 4.24953 6.85329 4.24953C6.93087 4.24953 7.00846 4.21348 7.03755 4.14136L7.09574 4.03319C7.12917 3.96771 7.16348 3.90046 7.19831 3.83219C7.44641 3.3459 7.72089 2.80791 7.89097 2.49173C8.33707 1.68044 9.09351 1.22972 10.0342 1.2207H14.6019C15.5426 1.22972 16.3088 1.68044 16.7549 2.49173C16.9076 2.77569 17.1403 3.23311 17.3646 3.67397C17.4109 3.76493 17.4568 3.85517 17.5016 3.94305L17.5986 4.14136ZM16.8906 7.60288C16.8906 8.0536 17.2785 8.41418 17.7634 8.41418C18.2483 8.41418 18.6459 8.0536 18.6459 7.60288C18.6459 7.15217 18.2483 6.78258 17.7634 6.78258C17.2785 6.78258 16.8906 7.15217 16.8906 7.60288ZM10.6452 9.00011C11.101 8.57644 11.6926 8.35108 12.3229 8.35108C12.9533 8.35108 13.5449 8.57644 13.991 8.9911C14.4371 9.40576 14.6795 9.95564 14.6795 10.5416C14.6698 11.7495 13.6224 12.7321 12.3229 12.7321C11.6926 12.7321 11.101 12.5067 10.6549 12.092C10.2088 11.6774 9.96633 11.1275 9.96633 10.5416V10.5326C9.95663 9.96465 10.1991 9.41477 10.6452 9.00011ZM15.0092 13.0476C14.3206 13.6876 13.3703 14.0842 12.3229 14.0842C11.3046 14.0842 10.3542 13.7146 9.62686 13.0476C8.90921 12.3715 8.5116 11.4881 8.5116 10.5416C8.5019 9.60408 8.89951 8.72067 9.61716 8.04459C10.3445 7.36851 11.3046 6.99892 12.3229 6.99892C13.3412 6.99892 14.3013 7.36851 15.0189 8.03557C15.7365 8.71165 16.1342 9.60408 16.1342 10.5416C16.1245 11.5241 15.6978 12.4075 15.0092 13.0476Z" fill="white"/>
</svg>
