<svg width="20" height="20" viewBox="0 0 20 20" fill="none" xmlns="http://www.w3.org/2000/svg">
<path fill-rule="evenodd" clip-rule="evenodd" d="M16.9061 4.37044C17.2303 4.37044 17.5002 4.63961 17.5002 4.9821V5.29877C17.5002 5.63293 17.2303 5.91043 16.9061 5.91043H3.09489C2.76989 5.91043 2.5 5.63293 2.5 5.29877V4.9821C2.5 4.63961 2.76989 4.37044 3.09489 4.37044H5.52468C6.01826 4.37044 6.44781 4.01961 6.55884 3.52462L6.68608 2.95629C6.88384 2.18213 7.53465 1.66797 8.27947 1.66797H11.7207C12.4574 1.66797 13.1156 2.18213 13.306 2.91546L13.4422 3.52378C13.5524 4.01961 13.9819 4.37044 14.4763 4.37044H16.9061ZM15.6717 15.9463C15.9254 13.5822 16.3695 7.96557 16.3695 7.90891C16.3857 7.73724 16.3298 7.57474 16.2188 7.44391C16.0997 7.32141 15.9489 7.24891 15.7828 7.24891H4.22382C4.05686 7.24891 3.89801 7.32141 3.78778 7.44391C3.67594 7.57474 3.62082 7.73724 3.62893 7.90891C3.63042 7.91932 3.64636 8.11716 3.673 8.44792C3.79136 9.91728 4.12102 14.0098 4.33404 15.9463C4.48479 17.373 5.42088 18.2696 6.7768 18.3021C7.82312 18.3263 8.90105 18.3346 10.0033 18.3346C11.0415 18.3346 12.0959 18.3263 13.1747 18.3021C14.5776 18.278 15.5129 17.3971 15.6717 15.9463Z" fill="#EF5350"/>
</svg>
