<svg width="140" height="140" viewBox="0 0 140 140" fill="none" xmlns="http://www.w3.org/2000/svg">
<circle opacity="0.2" cx="70" cy="70" r="70" fill="#4CAF50"/>
<g filter="url(#filter0_d)">
<path d="M70.0005 101.001C74.419 101.001 78.0008 97.4188 78.0008 93.0003C78.0008 88.5819 74.419 85 70.0005 85C65.582 85 62.0002 88.5819 62.0002 93.0003C62.0002 97.4188 65.582 101.001 70.0005 101.001Z" fill="url(#paint0_linear)"/>
<path fill-rule="evenodd" clip-rule="evenodd" d="M62.3468 40.5225C66.0015 39.0087 70.023 38.6126 73.9027 39.3843C77.7825 40.1561 81.3463 42.0609 84.1435 44.8581C86.9406 47.6553 88.8455 51.2191 89.6173 55.0988C90.389 58.9786 89.9929 63.0001 88.4791 66.6548C86.9653 70.3094 84.4017 73.4331 81.1126 75.6308C77.8235 77.8286 73.9566 79.0016 70.0008 79.0016C66.687 79.0016 64.0006 76.3152 64.0006 73.0014C64.0006 69.6875 66.687 67.0011 70.0008 67.0011C71.5831 67.0011 73.1299 66.5319 74.4455 65.6528C75.7612 64.7737 76.7866 63.5242 77.3921 62.0624C77.9976 60.6005 78.1561 58.9919 77.8474 57.44C77.5387 55.8881 76.7767 54.4626 75.6579 53.3437C74.539 52.2249 73.1135 51.4629 71.5616 51.1542C70.0097 50.8455 68.4011 51.0039 66.9392 51.6095C65.4773 52.215 64.2279 53.2404 63.3488 54.5561C62.4697 55.8717 62.0005 57.4185 62.0005 59.0008C62.0005 62.3146 59.3141 65.001 56.0002 65.001C52.6864 65.001 50 62.3146 50 59.0008C50 55.045 51.173 51.1781 53.3707 47.889C55.5685 44.5998 58.6922 42.0363 62.3468 40.5225Z" fill="url(#paint1_linear)"/>
</g>
<defs>
<filter id="filter0_d" x="44" y="35" width="56.0016" height="78.0006" filterUnits="userSpaceOnUse" color-interpolation-filters="sRGB">
<feFlood flood-opacity="0" result="BackgroundImageFix"/>
<feColorMatrix in="SourceAlpha" type="matrix" values="0 0 0 0 0 0 0 0 0 0 0 0 0 0 0 0 0 0 127 0"/>
<feOffset dx="2" dy="4"/>
<feGaussianBlur stdDeviation="4"/>
<feColorMatrix type="matrix" values="0 0 0 0 0.394965 0 0 0 0 0.729167 0 0 0 0 0.408468 0 0 0 0.45 0"/>
<feBlend mode="normal" in2="BackgroundImageFix" result="effect1_dropShadow"/>
<feBlend mode="normal" in="SourceGraphic" in2="effect1_dropShadow" result="shape"/>
</filter>
<linearGradient id="paint0_linear" x1="79.9209" y1="80.8492" x2="57.1024" y2="96.368" gradientUnits="userSpaceOnUse">
<stop stop-color="#388E3C"/>
<stop offset="1" stop-color="#66BB6A"/>
</linearGradient>
<linearGradient id="paint1_linear" x1="94.8018" y1="28.6229" x2="37.7556" y2="67.4199" gradientUnits="userSpaceOnUse">
<stop stop-color="#388E3C"/>
<stop offset="1" stop-color="#66BB6A"/>
</linearGradient>
</defs>
</svg>
