<svg width="19" height="18" viewBox="0 0 19 18" fill="none" xmlns="http://www.w3.org/2000/svg">
<path d="M18.6087 16.3951L14.1714 11.9395C15.3123 10.6301 15.9374 8.98262 15.9374 7.26749C15.9374 3.26026 12.5605 0 8.40987 0C4.25926 0 0.882355 3.26026 0.882355 7.26749C0.882355 11.2747 4.25926 14.535 8.40987 14.535C9.96807 14.535 11.453 14.0812 12.7225 13.2199L17.1935 17.7093C17.3804 17.8967 17.6317 18 17.9011 18C18.156 18 18.3979 17.9062 18.5815 17.7355C18.9716 17.3731 18.9841 16.7721 18.6087 16.3951ZM8.40987 1.89587C11.4778 1.89587 13.9737 4.30552 13.9737 7.26749C13.9737 10.2295 11.4778 12.6391 8.40987 12.6391C5.34192 12.6391 2.84606 10.2295 2.84606 7.26749C2.84606 4.30552 5.34192 1.89587 8.40987 1.89587Z" fill="#B9B9B9"/>
</svg>
