<svg width="15" height="18" viewBox="0 0 15 18" fill="none" xmlns="http://www.w3.org/2000/svg">
<path fill-rule="evenodd" clip-rule="evenodd" d="M8.04143 10.441H9.46884C9.80713 10.441 10.0877 10.166 10.0877 9.82435C10.0877 9.47435 9.80713 9.19935 9.46884 9.19935H8.04143V7.75768C8.04143 7.41602 7.76915 7.14102 7.43086 7.14102C7.09257 7.14102 6.81204 7.41602 6.81204 7.75768V9.19935H5.39287C5.05459 9.19935 4.77405 9.47435 4.77405 9.82435C4.77405 10.166 5.05459 10.441 5.39287 10.441H6.81204V11.8827C6.81204 12.2243 7.09257 12.4993 7.43086 12.4993C7.76915 12.4993 8.04143 12.2243 8.04143 11.8827V10.441ZM13.6986 6.52069C13.8926 6.51845 14.1038 6.51602 14.2956 6.51602C14.5019 6.51602 14.6669 6.68268 14.6669 6.89102V13.591C14.6669 15.6577 13.0085 17.3327 10.954 17.3327H4.3945C2.24926 17.3327 0.500061 15.5743 0.500061 13.4077V4.42435C0.500061 2.35768 2.16675 0.666016 4.22123 0.666016H8.62723C8.84176 0.666016 9.00678 0.841016 9.00678 1.04935V3.73268C9.00678 5.25768 10.2527 6.50768 11.7626 6.51602C12.1153 6.51602 12.4262 6.51865 12.6983 6.52096C12.91 6.52275 13.0982 6.52435 13.2643 6.52435C13.3817 6.52435 13.534 6.52259 13.6986 6.52069ZM13.9252 5.30452C13.247 5.30702 12.4475 5.30452 11.8724 5.29868C10.9598 5.29868 10.2082 4.53952 10.2082 3.61785V1.42118C10.2082 1.06202 10.6397 0.883682 10.8864 1.14285C11.3329 1.61168 11.9463 2.2561 12.557 2.89762C13.1664 3.53776 13.7731 4.17501 14.2082 4.63202C14.4492 4.88452 14.2726 5.30368 13.9252 5.30452Z" fill="#003927"/>
</svg>
