<svg width="16" height="15" viewBox="0 0 16 15" fill="none" xmlns="http://www.w3.org/2000/svg">
<path fill-rule="evenodd" clip-rule="evenodd" d="M5.41736 2.33608C5.25634 2.55355 5.27484 2.86377 5.47827 3.06063C5.69482 3.27719 6.04852 3.27719 6.26508 3.06063L7.41282 1.90568V4.89413H8.5243V9.30075L8.51916 9.37822C8.48184 9.65644 8.24639 9.86627 7.96848 9.86627C7.65808 9.86627 7.41266 9.61656 7.41266 9.30075V4.89412H3.955L3.80426 4.89767C2.10557 4.97791 0.75 6.40685 0.75 8.14768V11.7317L0.753492 11.8851C0.832361 13.6139 2.23721 15 3.96222 15H11.982L12.1327 14.9964C13.8314 14.9162 15.187 13.487 15.187 11.7391V8.16237L15.1834 8.00838C15.1042 6.27333 13.6927 4.89412 11.9747 4.89412H8.52446V1.90568L9.6722 3.06063L9.73446 3.11433C9.95193 3.2754 10.2621 3.2575 10.459 3.06063C10.5673 2.95236 10.625 2.80799 10.625 2.66362C10.625 2.52647 10.5673 2.3821 10.459 2.27382L8.35844 0.166025L8.29295 0.10718C8.19963 0.0369586 8.08414 0 7.96864 0C7.81705 0 7.6799 0.0577478 7.57162 0.166025L5.47105 2.27382L5.41736 2.33608ZM8.52446 4.89412H8.5243V4.89413H8.52446V4.89412Z" fill="white"/>
</svg>
