<svg width="20" height="18" viewBox="0 0 20 18" fill="none" xmlns="http://www.w3.org/2000/svg">
<path d="M10.0327 0C5.0894 0 0.997559 4.02152 0.997559 8.96485C0.997559 13.9082 5.0894 18 10.0327 18C14.976 18 18.9976 13.9082 18.9976 8.96485C18.9976 4.02152 14.976 0 10.0327 0ZM14.4701 11.9106C14.8815 12.3219 14.8815 12.9909 14.4701 13.4026C14.062 13.8104 13.393 13.8171 12.9781 13.4026L10.0327 10.4562L7.01666 13.403C6.60533 13.8143 5.93631 13.8143 5.52463 13.403C5.1133 12.9916 5.1133 12.3226 5.52463 11.9109L8.47072 8.96485L5.52463 6.01875C5.1133 5.60707 5.1133 4.93805 5.52463 4.52672C5.93631 4.11539 6.60533 4.11539 7.01666 4.52672L10.0327 7.47352L12.9781 4.52672C13.3887 4.11609 14.0578 4.11469 14.4701 4.52672C14.8815 4.93805 14.8815 5.60707 14.4701 6.01875L11.524 8.96485L14.4701 11.9106Z" fill="#1A4D3D"/>
</svg>
