<svg width="140" height="140" viewBox="0 0 140 140" fill="none" xmlns="http://www.w3.org/2000/svg">
<circle opacity="0.2" cx="70" cy="70" r="70" fill="#FB8C00"/>
<g filter="url(#filter0_d)">
<path fill-rule="evenodd" clip-rule="evenodd" d="M62.9999 44.2196C62.9999 40.2426 66.2425 37 70.2194 37C74.1964 37 77.439 40.2426 77.439 44.2196V67.5532C77.439 71.5384 74.1964 74.7728 70.2194 74.7728C66.2425 74.7728 62.9999 71.5384 62.9999 67.5532V44.2196ZM62.9999 95.7804C62.9999 91.7787 66.2425 88.5196 70.2194 88.5196C74.1964 88.5196 77.439 91.7375 77.439 95.6896C77.439 99.7574 74.1964 103 70.2194 103C66.2425 103 62.9999 99.7574 62.9999 95.7804Z" fill="url(#paint0_linear)"/>
</g>
<defs>
<filter id="filter0_d" x="56.9999" y="33" width="30.4391" height="82" filterUnits="userSpaceOnUse" color-interpolation-filters="sRGB">
<feFlood flood-opacity="0" result="BackgroundImageFix"/>
<feColorMatrix in="SourceAlpha" type="matrix" values="0 0 0 0 0 0 0 0 0 0 0 0 0 0 0 0 0 0 127 0"/>
<feOffset dx="2" dy="4"/>
<feGaussianBlur stdDeviation="4"/>
<feColorMatrix type="matrix" values="0 0 0 0 0.8 0 0 0 0 0.500757 0 0 0 0 0.123333 0 0 0 0.5 0"/>
<feBlend mode="normal" in2="BackgroundImageFix" result="effect1_dropShadow"/>
<feBlend mode="normal" in="SourceGraphic" in2="effect1_dropShadow" result="shape"/>
</filter>
<linearGradient id="paint0_linear" x1="70.2194" y1="37" x2="70.2194" y2="103" gradientUnits="userSpaceOnUse">
<stop stop-color="#FF6F00"/>
<stop offset="1" stop-color="#F39331"/>
</linearGradient>
</defs>
</svg>
