<svg width="108" height="37" viewBox="0 0 108 37" fill="none" xmlns="http://www.w3.org/2000/svg">
<path d="M61.2816 11.532H63.3194V19.8516C63.3194 20.6268 63.2168 21.3323 63.0115 21.9737C62.8063 22.6133 62.4783 23.1594 62.0275 23.6102C61.5767 24.061 60.9994 24.4128 60.2976 24.6657C59.5939 24.9186 58.7363 25.045 57.7265 25.045C56.0516 25.045 54.7523 24.6749 53.8269 23.9309C52.9033 23.1887 52.4397 22.1295 52.4397 20.7551C52.4397 19.9653 52.6376 19.2891 53.0316 18.7283C53.4256 18.1676 53.9644 17.7772 54.6442 17.5555C54.0432 17.3979 53.5264 17.0662 53.0921 16.5604C52.6578 16.0546 52.4397 15.351 52.4397 14.4512C52.4397 13.5661 52.7402 12.8349 53.3395 12.2595C53.9405 11.6822 54.7688 11.3945 55.828 11.3945C56.2697 11.3945 56.6655 11.4348 57.0137 11.5136C57.3619 11.5924 57.6606 11.6877 57.9135 11.7977L57.6771 13.5038C57.5195 13.425 57.3014 13.3462 57.0247 13.2674C56.748 13.1886 56.4603 13.1483 56.1597 13.1483C55.5751 13.1483 55.1372 13.2949 54.844 13.5862C54.5508 13.8794 54.406 14.2533 54.406 14.7114C54.406 15.0284 54.4738 15.2996 54.6076 15.5287C54.7413 15.7578 54.9118 15.9557 55.117 16.1206C55.3223 16.2874 55.5513 16.4083 55.8042 16.4871C56.0571 16.5659 56.31 16.6062 56.5629 16.6062H58.5768L58.7436 18.36H56.8707C56.1744 18.36 55.5953 18.5652 55.128 18.9757C54.6625 19.3862 54.428 19.9396 54.428 20.6341C54.428 21.0611 54.5196 21.4404 54.701 21.7721C54.8825 22.1038 55.128 22.3842 55.4359 22.6133C55.7437 22.8423 56.0993 23.0128 56.5024 23.1227C56.9056 23.2327 57.327 23.2895 57.7705 23.2895C58.9562 23.2895 59.8358 22.9926 60.413 22.4007C60.9903 21.8088 61.278 20.9512 61.278 19.8297V11.532H61.2816Z" fill="white"/>
<path d="M91.6211 24.805V18.4058H88.3042C87.1827 18.4058 86.2976 18.6239 85.6489 19.0582C85.0002 19.4925 84.6777 20.1595 84.6777 21.0611C84.6777 21.8363 84.9067 22.408 85.3649 22.78C85.823 23.152 86.4002 23.3371 87.0948 23.3371C87.4265 23.3371 87.7783 23.3023 88.1503 23.2308C88.5205 23.1594 88.8503 23.0604 89.1344 22.934L89.4661 24.6162C89.1179 24.7427 88.7147 24.8453 88.2566 24.9241C87.7985 25.0029 87.3403 25.0432 86.8822 25.0432C86.2811 25.0432 85.724 24.9608 85.2109 24.794C84.6978 24.6272 84.2507 24.3835 83.8714 24.0591C83.492 23.7348 83.1915 23.3243 82.9698 22.8259C82.748 22.3274 82.6381 21.7465 82.6381 21.0831C82.6381 19.6922 83.1273 18.6055 84.1078 17.8231C85.0882 17.0406 86.5652 16.6502 88.5406 16.6502H91.6211V16.3424C91.6211 15.8531 91.5661 15.4023 91.4544 14.9918C91.3444 14.5813 91.1575 14.2258 90.8973 13.9253C90.637 13.6247 90.2962 13.3957 89.8784 13.2381C89.4587 13.0805 88.9493 13.0017 88.3501 13.0017C87.3861 13.0017 86.5212 13.1355 85.7552 13.4048C84.9892 13.6742 84.3203 14.0059 83.7522 14.3999L83.0889 12.954C83.3418 12.7488 83.6606 12.5435 84.0491 12.3383C84.4358 12.1331 84.8628 11.9553 85.3282 11.805C85.7937 11.6548 86.2885 11.532 86.8089 11.4385C87.3312 11.3432 87.8443 11.2956 88.3501 11.2956C89.3616 11.2956 90.254 11.4697 91.0292 11.8179L92.0481 10.6084H94.3717L92.4989 12.8606C92.8929 13.2876 93.1861 13.7933 93.3767 14.3779C93.5654 14.9625 93.6607 15.6112 93.6607 16.3222V24.8087H91.6211V24.805Z" fill="white"/>
<path d="M91.6447 30.9917V28.6442C91.6447 28.3125 91.4779 28.1458 91.1463 28.1458H90.2227V26.4397H91.7638C92.4272 26.4397 92.9055 26.5973 93.1987 26.9143C93.4919 27.2295 93.6367 27.7445 93.6367 28.4555V30.9917H91.6447Z" fill="white"/>
<path d="M105.962 11.5321H108V20.2311C108 21.7796 107.617 22.9689 106.851 23.799C106.085 24.6292 104.832 25.0433 103.094 25.0433C102.226 25.0433 101.478 24.9279 100.855 24.6988C100.23 24.4697 99.7171 24.1491 99.3139 23.7386C98.9108 23.3281 98.6139 22.8498 98.4252 22.3037C98.2364 21.7576 98.1411 21.162 98.1411 20.5133V18.6881C98.1411 18.23 98.2639 17.803 98.5076 17.4072C98.7532 17.0132 99.0244 16.6412 99.3249 16.293C99.6255 15.9448 99.8967 15.6168 100.142 15.3089C100.388 15.0011 100.509 14.7042 100.509 14.4202V13.8521C100.509 13.678 100.465 13.5406 100.379 13.4379C100.293 13.3353 100.137 13.284 99.9168 13.284H98.2822V11.5303H100.155C101.009 11.5303 101.605 11.7245 101.945 12.1112C102.284 12.4997 102.455 13.0256 102.455 13.6908V14.4037C102.455 14.8307 102.332 15.2356 102.088 15.615C101.843 15.9943 101.579 16.3553 101.295 16.6962C101.011 17.037 100.745 17.3724 100.501 17.7059C100.256 18.0376 100.135 18.3711 100.135 18.7028V20.5316C100.135 21.3874 100.36 22.0673 100.811 22.5749C101.262 23.0825 102.024 23.3354 103.098 23.3354C104.078 23.3354 104.801 23.1173 105.268 22.683C105.733 22.2469 105.968 21.4442 105.968 20.2714V11.5321H105.962Z" fill="white"/>
<path d="M36.5078 10.0183V8.35991H43.4897V6.1792H45.4102V10.0183H36.5078Z" fill="white"/>
<path d="M43.4897 5.01561V1.83984H45.4102V5.01561H43.4897Z" fill="white"/>
<path d="M30.8251 11.532H32.9013V21.8803C32.9013 23.295 32.9398 24.2772 33.8268 24.5979V24.805H30.8269V11.532H30.8251Z" fill="white"/>
<path d="M46.3742 7.02954V19.9232C46.3742 20.9659 46.1012 21.7887 45.5569 22.388C45.0127 22.989 44.1697 23.2877 43.0317 23.2877C41.8937 23.2877 41.0526 22.9872 40.5065 22.388C39.9622 21.7869 39.6892 20.9659 39.6892 19.9232V11.5321H39.6782H37.6514H36.6783V11.7391C37.503 12.0378 37.6368 12.9248 37.6514 14.1856V19.9214C37.6514 21.5651 38.1095 22.8296 39.0258 23.7147C39.9421 24.5998 41.278 25.0415 43.0317 25.0415C44.7854 25.0415 46.1214 24.5998 47.0376 23.7147C47.9539 22.8296 48.412 21.5651 48.412 19.9214V7.02954H46.3742Z" fill="white"/>
<path d="M76.8067 11.5321V19.828C76.8067 20.9495 76.585 21.8071 76.1433 22.399C75.7017 22.9909 74.9815 23.2878 73.9865 23.2878C73.5906 23.2878 73.2003 23.2163 72.8136 23.0752C72.427 22.9323 72.0586 22.7362 71.7123 22.4833C71.3641 22.2304 71.0526 21.9427 70.7759 21.6183C70.512 21.3105 70.3031 20.9824 70.1473 20.6379V11.5321H70.1235H68.0857H67.1475V11.7392C68.0344 12.0599 68.0729 13.0403 68.0729 14.4568V24.8051L68.0857 24.7849V24.8051H70.0062L70.1253 22.8608C70.5834 23.5242 71.1442 24.0538 71.8076 24.4496C72.471 24.8436 73.2773 25.0415 74.2247 25.0415C75.7897 25.0415 76.9496 24.576 77.7083 23.6433C78.467 22.7105 78.8463 21.4479 78.8463 19.8499V11.5303H76.8067V11.5321Z" fill="white"/>
<path d="M5.01746 10.7898V13.6852L20.0698 22.386V28.7357L11.2884 33.7679L2.50873 28.7357V25.1476L0 23.7091V27.2972V30.101V30.1816L11.2884 36.6504L22.5786 30.1816V30.101V27.2972V20.8797L20.0698 19.4393L5.01746 10.7898Z" fill="white"/>
<path d="M11.2884 0L0 6.46882V6.49814V9.35322V20.8267L2.50873 22.2634V7.91468L11.2884 2.88257L20.0698 7.91468V16.5496L22.5786 17.9899V9.35322V6.49814V6.46882L11.2884 0Z" fill="white"/>
</svg>
