<svg width="164" height="164" viewBox="0 0 164 164" fill="none" xmlns="http://www.w3.org/2000/svg">
<circle opacity="0.1" cx="82" cy="82" r="82" fill="#1A4D3D"/>
<g filter="url(#filter0_d)">
<circle cx="82" cy="82" r="72" fill="url(#paint0_linear)"/>
</g>
<path fill-rule="evenodd" clip-rule="evenodd" d="M67.7916 50H104.792C108.238 50 111.042 52.8036 111.042 56.25V107.75C111.042 111.196 108.238 114 104.792 114H65C55.0747 114 47 105.925 47 96C47 87.2574 53.2654 79.9519 61.5416 78.3347V56.25C61.5416 52.8037 64.3454 50 67.7916 50ZM65 80.5C56.4532 80.5 49.5 87.4532 49.5 96C49.5 104.547 56.4532 111.5 65 111.5C73.5467 111.5 80.5 104.547 80.5 96C80.5 87.4532 73.5467 80.5 65 80.5ZM70.0416 74.75V77.75C70.0416 78.4392 70.6024 79 71.2916 79H74.2916C74.9809 79 75.5416 78.4392 75.5416 77.75V74.75C75.5416 74.0607 74.9809 73.5 74.2916 73.5H71.2916C70.6024 73.5 70.0416 74.0607 70.0416 74.75ZM104.792 111.5C106.859 111.5 108.542 109.818 108.542 107.75V56.25C108.542 54.1822 106.859 52.5 104.792 52.5H67.7916C65.7239 52.5 64.0416 54.1822 64.0416 56.25V78.0256C64.359 78.0089 64.6785 78 65 78C65.8716 78 66.7286 78.0635 67.5675 78.1839C67.551 78.0414 67.5416 77.8969 67.5416 77.75V74.75C67.5416 72.6822 69.2239 71 71.2916 71H74.2916C76.3594 71 78.0416 72.6822 78.0416 74.75V77.75C78.0416 79.4261 76.9361 80.8486 75.4161 81.3275C77.7874 83.0159 79.7331 85.2643 81.0602 87.8775C81.2479 85.984 82.8496 84.5 84.7916 84.5H87.7916C89.8594 84.5 91.5416 86.1822 91.5416 88.25V91.25C91.5416 93.3177 89.8594 95 87.7916 95H84.7916C84.1175 95 83.4849 94.8202 82.9376 94.5076C82.9783 94.9999 83 95.4974 83 96C83 96.8705 82.9365 97.7264 82.8165 98.5642C83.3906 98.207 84.0672 98 84.7916 98H87.7916C89.8594 98 91.5416 99.6822 91.5416 101.75V104.75C91.5416 106.818 89.8594 108.5 87.7916 108.5H84.7916C82.7239 108.5 81.0416 106.818 81.0416 104.75V104.16C79.4832 107.211 77.0794 109.761 74.1414 111.5H104.792ZM83.5416 101.75V104.75C83.5416 105.439 84.1024 106 84.7916 106H87.7916C88.4809 106 89.0416 105.439 89.0416 104.75V101.75C89.0416 101.061 88.4809 100.5 87.7916 100.5H84.7916C84.1024 100.5 83.5416 101.061 83.5416 101.75ZM83.5416 88.25V91.25C83.5416 91.9392 84.1024 92.5 84.7916 92.5H87.7916C88.4809 92.5 89.0416 91.9392 89.0416 91.25V88.25C89.0416 87.5607 88.4809 87 87.7916 87H84.7916C84.1024 87 83.5416 87.5607 83.5416 88.25ZM93.2998 55.5H103.792C104.482 55.5 105.042 56.0596 105.042 56.75V66.75C105.042 67.4404 104.482 68 103.792 68H68.7916C68.1014 68 67.5416 67.4404 67.5416 66.75V56.75C67.5416 56.0596 68.1014 55.5 68.7916 55.5H91.9166H93.2998ZM93.2998 58H91.9166H70.0416V65.5H102.542V58H93.2998ZM87.7916 71H84.7916C82.7239 71 81.0416 72.6822 81.0416 74.75V77.75C81.0416 79.8177 82.7239 81.5 84.7916 81.5H87.7916C89.8594 81.5 91.5416 79.8177 91.5416 77.75V74.75C91.5416 72.6822 89.8594 71 87.7916 71ZM89.0416 77.75C89.0416 78.4392 88.4809 79 87.7916 79H84.7916C84.1024 79 83.5416 78.4392 83.5416 77.75V74.75C83.5416 74.0607 84.1024 73.5 84.7916 73.5H87.7916C88.4809 73.5 89.0416 74.0607 89.0416 74.75V77.75ZM98.2916 71H101.292C103.359 71 105.042 72.6822 105.042 74.75V77.75C105.042 79.8177 103.359 81.5 101.292 81.5H98.2916C96.2239 81.5 94.5416 79.8177 94.5416 77.75V74.75C94.5416 72.6822 96.2239 71 98.2916 71ZM101.292 79C101.981 79 102.542 78.4392 102.542 77.75V74.75C102.542 74.0607 101.981 73.5 101.292 73.5H98.2916C97.6024 73.5 97.0416 74.0607 97.0416 74.75V77.75C97.0416 78.4392 97.6024 79 98.2916 79H101.292ZM101.292 84.5H98.2916C96.2239 84.5 94.5416 86.1822 94.5416 88.25V104.75C94.5416 106.818 96.2239 108.5 98.2916 108.5H101.292C103.359 108.5 105.042 106.818 105.042 104.75V88.25C105.042 86.1822 103.359 84.5 101.292 84.5ZM102.542 104.75C102.542 105.439 101.981 106 101.292 106H98.2916C97.6024 106 97.0416 105.439 97.0416 104.75V88.25C97.0416 87.5607 97.6024 87 98.2916 87H101.292C101.981 87 102.542 87.5607 102.542 88.25V104.75ZM67.4053 88.3517C67.7068 87.7306 68.4549 87.472 69.0756 87.7734C69.6967 88.075 69.9557 88.8229 69.654 89.4439L62.776 103.607C62.5599 104.052 62.1144 104.311 61.6508 104.311C61.4675 104.311 61.2815 104.271 61.1056 104.185C60.4846 103.884 60.2256 103.136 60.5273 102.515L67.4053 88.3517ZM61.8405 87.0714C60.2808 85.5116 57.7426 85.5115 56.1826 87.0714C54.6228 88.6312 54.6228 91.1694 56.1826 92.7292C56.9626 93.5091 57.9871 93.899 59.0115 93.899C60.036 93.899 61.0606 93.509 61.8405 92.7292C63.4002 91.1694 63.4002 88.6312 61.8405 87.0714ZM60.0726 90.9615C59.4875 91.5465 58.5355 91.5467 57.9504 90.9615C57.3651 90.3764 57.3651 89.4244 57.9504 88.8392C58.2429 88.5466 58.6271 88.4004 59.0115 88.4004C59.3958 88.4004 59.78 88.5466 60.0725 88.8392C60.6579 89.4244 60.6579 90.3764 60.0726 90.9615ZM68.3819 104.928C66.822 103.369 66.822 100.83 68.3819 99.2706C69.9416 97.711 72.4796 97.7109 74.0397 99.2706C75.5996 100.83 75.5996 103.369 74.0397 104.928C73.2599 105.708 72.2352 106.098 71.2107 106.098C70.1864 106.098 69.1617 105.708 68.3819 104.928ZM70.1496 103.161C70.7345 103.746 71.6867 103.746 72.2719 103.161C72.857 102.575 72.857 101.623 72.2717 101.038C71.9792 100.746 71.595 100.599 71.2107 100.599C70.8264 100.599 70.4421 100.746 70.1496 101.038C69.5644 101.623 69.5644 102.575 70.1496 103.161Z" fill="white"/>
<defs>
<filter id="filter0_d" x="2" y="2" width="160" height="160" filterUnits="userSpaceOnUse" color-interpolation-filters="sRGB">
<feFlood flood-opacity="0" result="BackgroundImageFix"/>
<feColorMatrix in="SourceAlpha" type="matrix" values="0 0 0 0 0 0 0 0 0 0 0 0 0 0 0 0 0 0 127 0"/>
<feOffset/>
<feGaussianBlur stdDeviation="4"/>
<feColorMatrix type="matrix" values="0 0 0 0 0.301961 0 0 0 0 0.458824 0 0 0 0 0.407843 0 0 0 1 0"/>
<feBlend mode="normal" in2="BackgroundImageFix" result="effect1_dropShadow"/>
<feBlend mode="normal" in="SourceGraphic" in2="effect1_dropShadow" result="shape"/>
</filter>
<linearGradient id="paint0_linear" x1="82" y1="154" x2="82" y2="10" gradientUnits="userSpaceOnUse">
<stop stop-color="#1A4D3D"/>
<stop offset="1" stop-color="#336152"/>
</linearGradient>
</defs>
</svg>
