<svg width="164" height="164" viewBox="0 0 164 164" fill="none" xmlns="http://www.w3.org/2000/svg">
<circle opacity="0.1" cx="82" cy="82" r="82" fill="#1A4D3D"/>
<g filter="url(#filter0_d)">
<circle cx="82" cy="82" r="72" fill="url(#paint0_linear)"/>
</g>
<mask id="path-3-inside-1" fill="white">
<path fill-rule="evenodd" clip-rule="evenodd" d="M99.6337 64.9429C99.9386 65.3514 99.9371 65.9886 99.92 73.4391V73.4394V73.4398V73.4402V73.4408V73.4414C99.9148 75.6936 99.9082 78.5681 99.9082 82.2468C107.809 83.1814 113.959 89.9195 113.959 98.0676C113.959 106.853 106.812 114 98.0265 114H59.7636C57.6886 114 56 112.311 56 110.236V53.783C56 51.708 57.6886 50.0194 59.7636 50.0194C65.923 50.0194 70.5452 50.0119 74.0211 50.0062C84.0258 49.9898 84.5344 49.989 84.8722 50.2287C84.8903 50.2416 84.9079 50.2551 84.9265 50.2693C84.9503 50.2877 84.9758 50.3072 85.0058 50.328C85.2769 50.495 99.4562 64.7297 99.4667 64.7425C99.4924 64.7739 99.5168 64.8022 99.5398 64.8289L99.5399 64.829L99.54 64.8292L99.5401 64.8292C99.5741 64.8687 99.6052 64.9048 99.6337 64.9429ZM93.4838 64.0701L85.8576 56.4438V64.0701H93.4838ZM59.7636 53.783V110.236H87.7544C84.2957 107.312 82.094 102.943 82.094 98.0676C82.094 89.9195 88.2437 83.1814 96.1447 82.2468V67.8336H85.8576C83.7826 67.8336 82.094 66.145 82.094 64.0701V53.783H59.7636ZM85.8576 98.0676C85.8576 104.778 91.316 110.236 98.0265 110.236C104.737 110.236 110.195 104.778 110.195 98.0676C110.195 91.3571 104.737 85.8987 98.0265 85.8987C91.316 85.8987 85.8576 91.3571 85.8576 98.0676ZM71.6137 78.7962C71.1926 79.746 70.0808 80.1751 69.1306 79.7536C68.1807 79.3323 67.752 78.2207 68.1733 77.2705L74.462 63.0899C74.8832 62.14 75.9949 61.7113 76.9451 62.1326C77.8951 62.5538 78.3236 63.6656 77.9024 64.6156L71.6137 78.7962ZM67.9894 69.0693C69.6203 69.0693 70.9463 67.6956 70.9463 66.0058C70.9463 64.3159 69.6203 62.941 67.9894 62.941C66.3585 62.941 65.0325 64.3159 65.0325 66.0058C65.0325 67.6956 66.3585 69.0693 67.9894 69.0693ZM74.9433 75.9165C74.9433 74.2267 76.2693 72.8517 77.9002 72.8517C79.5311 72.8517 80.8571 74.2267 80.8571 75.9165C80.8571 77.6063 79.5311 78.98 77.9002 78.98C76.2693 78.98 74.9433 77.6063 74.9433 75.9165ZM76.9506 85.146H65.9108C64.8715 85.146 64.029 85.9885 64.029 87.0278C64.029 88.067 64.8715 88.9096 65.9108 88.9096H76.9506C77.9898 88.9096 78.8323 88.067 78.8323 87.0278C78.8323 85.9885 77.9899 85.146 76.9506 85.146ZM74.9433 96.9385H65.9108C64.8715 96.9385 64.029 96.096 64.029 95.0567C64.029 94.0175 64.8715 93.1749 65.9108 93.1749H74.9433C75.9826 93.1749 76.8251 94.0175 76.8251 95.0567C76.8251 96.096 75.9826 96.9385 74.9433 96.9385ZM76.9506 101.204H65.9108C64.8715 101.204 64.029 102.046 64.029 103.086C64.029 104.125 64.8715 104.967 65.9108 104.967H76.9506C77.9898 104.967 78.8323 104.125 78.8323 103.086C78.8323 102.046 77.9899 101.204 76.9506 101.204ZM97.9045 95.6295C98.1657 95.7269 98.4269 95.824 99.7226 96.3062C104.109 97.6329 103.804 102.996 99.8292 104.447C99.7464 105.385 98.9736 106.128 98.0202 106.159C97.1527 106.209 96.2916 105.576 96.1095 104.638C95.4685 104.512 94.8538 104.277 94.0973 103.853C93.1903 103.347 92.8653 102.2 93.3734 101.293C93.8815 100.386 95.0281 100.062 95.9339 100.569C96.6703 100.981 96.9124 101.013 97.9449 101.007C98.6817 101.007 99.1088 100.598 99.153 100.297C99.1855 100.072 98.7089 99.9241 97.9967 99.7034C97.1656 99.4459 96.0136 99.089 94.9755 98.3938C92.566 96.7768 93.0999 92.96 96.092 91.805C96.2099 90.8804 96.999 90.1641 97.9562 90.1641C98.8581 90.1641 99.6368 90.808 99.8041 91.6959C100.29 91.8439 100.676 92.0308 100.951 92.1889C101.653 92.4687 102.15 93.1536 102.15 93.9565C102.15 95.5429 100.329 96.411 99.0987 95.4702C99.09 95.4691 99.084 95.4668 99.0838 95.459C98.6604 95.1296 97.5614 95.1576 97.2938 95.4017C97.6149 95.5215 97.7597 95.5756 97.9045 95.6295Z"/>
</mask>
<path fill-rule="evenodd" clip-rule="evenodd" d="M99.6337 64.9429C99.9386 65.3514 99.9371 65.9886 99.92 73.4391V73.4394V73.4398V73.4402V73.4408V73.4414C99.9148 75.6936 99.9082 78.5681 99.9082 82.2468C107.809 83.1814 113.959 89.9195 113.959 98.0676C113.959 106.853 106.812 114 98.0265 114H59.7636C57.6886 114 56 112.311 56 110.236V53.783C56 51.708 57.6886 50.0194 59.7636 50.0194C65.923 50.0194 70.5452 50.0119 74.0211 50.0062C84.0258 49.9898 84.5344 49.989 84.8722 50.2287C84.8903 50.2416 84.9079 50.2551 84.9265 50.2693C84.9503 50.2877 84.9758 50.3072 85.0058 50.328C85.2769 50.495 99.4562 64.7297 99.4667 64.7425C99.4924 64.7739 99.5168 64.8022 99.5398 64.8289L99.5399 64.829L99.54 64.8292L99.5401 64.8292C99.5741 64.8687 99.6052 64.9048 99.6337 64.9429ZM93.4838 64.0701L85.8576 56.4438V64.0701H93.4838ZM59.7636 53.783V110.236H87.7544C84.2957 107.312 82.094 102.943 82.094 98.0676C82.094 89.9195 88.2437 83.1814 96.1447 82.2468V67.8336H85.8576C83.7826 67.8336 82.094 66.145 82.094 64.0701V53.783H59.7636ZM85.8576 98.0676C85.8576 104.778 91.316 110.236 98.0265 110.236C104.737 110.236 110.195 104.778 110.195 98.0676C110.195 91.3571 104.737 85.8987 98.0265 85.8987C91.316 85.8987 85.8576 91.3571 85.8576 98.0676ZM71.6137 78.7962C71.1926 79.746 70.0808 80.1751 69.1306 79.7536C68.1807 79.3323 67.752 78.2207 68.1733 77.2705L74.462 63.0899C74.8832 62.14 75.9949 61.7113 76.9451 62.1326C77.8951 62.5538 78.3236 63.6656 77.9024 64.6156L71.6137 78.7962ZM67.9894 69.0693C69.6203 69.0693 70.9463 67.6956 70.9463 66.0058C70.9463 64.3159 69.6203 62.941 67.9894 62.941C66.3585 62.941 65.0325 64.3159 65.0325 66.0058C65.0325 67.6956 66.3585 69.0693 67.9894 69.0693ZM74.9433 75.9165C74.9433 74.2267 76.2693 72.8517 77.9002 72.8517C79.5311 72.8517 80.8571 74.2267 80.8571 75.9165C80.8571 77.6063 79.5311 78.98 77.9002 78.98C76.2693 78.98 74.9433 77.6063 74.9433 75.9165ZM76.9506 85.146H65.9108C64.8715 85.146 64.029 85.9885 64.029 87.0278C64.029 88.067 64.8715 88.9096 65.9108 88.9096H76.9506C77.9898 88.9096 78.8323 88.067 78.8323 87.0278C78.8323 85.9885 77.9899 85.146 76.9506 85.146ZM74.9433 96.9385H65.9108C64.8715 96.9385 64.029 96.096 64.029 95.0567C64.029 94.0175 64.8715 93.1749 65.9108 93.1749H74.9433C75.9826 93.1749 76.8251 94.0175 76.8251 95.0567C76.8251 96.096 75.9826 96.9385 74.9433 96.9385ZM76.9506 101.204H65.9108C64.8715 101.204 64.029 102.046 64.029 103.086C64.029 104.125 64.8715 104.967 65.9108 104.967H76.9506C77.9898 104.967 78.8323 104.125 78.8323 103.086C78.8323 102.046 77.9899 101.204 76.9506 101.204ZM97.9045 95.6295C98.1657 95.7269 98.4269 95.824 99.7226 96.3062C104.109 97.6329 103.804 102.996 99.8292 104.447C99.7464 105.385 98.9736 106.128 98.0202 106.159C97.1527 106.209 96.2916 105.576 96.1095 104.638C95.4685 104.512 94.8538 104.277 94.0973 103.853C93.1903 103.347 92.8653 102.2 93.3734 101.293C93.8815 100.386 95.0281 100.062 95.9339 100.569C96.6703 100.981 96.9124 101.013 97.9449 101.007C98.6817 101.007 99.1088 100.598 99.153 100.297C99.1855 100.072 98.7089 99.9241 97.9967 99.7034C97.1656 99.4459 96.0136 99.089 94.9755 98.3938C92.566 96.7768 93.0999 92.96 96.092 91.805C96.2099 90.8804 96.999 90.1641 97.9562 90.1641C98.8581 90.1641 99.6368 90.808 99.8041 91.6959C100.29 91.8439 100.676 92.0308 100.951 92.1889C101.653 92.4687 102.15 93.1536 102.15 93.9565C102.15 95.5429 100.329 96.411 99.0987 95.4702C99.09 95.4691 99.084 95.4668 99.0838 95.459C98.6604 95.1296 97.5614 95.1576 97.2938 95.4017C97.6149 95.5215 97.7597 95.5756 97.9045 95.6295Z" fill="white"/>
<path d="M99.92 73.4391L99.42 73.4379V73.4391H99.92ZM99.6337 64.9429L100.034 64.6438L100.034 64.6438L99.6337 64.9429ZM99.92 73.4414L100.42 73.4426V73.4414H99.92ZM99.9082 82.2468H99.4082V82.6912L99.8495 82.7433L99.9082 82.2468ZM74.0211 50.0062L74.0203 49.5062L74.0211 50.0062ZM84.8722 50.2287L85.1616 49.821L85.1616 49.821L84.8722 50.2287ZM84.9265 50.2693L84.6218 50.6658L84.6218 50.6658L84.9265 50.2693ZM85.0058 50.328L84.721 50.739L84.7321 50.7467L84.7436 50.7538L85.0058 50.328ZM99.4667 64.7425L99.0788 65.0581L99.0798 65.0593L99.4667 64.7425ZM99.5398 64.8289L99.1611 65.1554L99.1635 65.1582L99.5398 64.8289ZM99.5399 64.829L99.9216 64.506L99.9162 64.4998L99.5399 64.829ZM99.54 64.8292L99.94 64.5292L99.9312 64.5174L99.9217 64.5062L99.54 64.8292ZM99.5401 64.8292L99.1401 65.1292L99.1502 65.1428L99.1613 65.1557L99.5401 64.8292ZM85.8576 56.4438L86.2112 56.0903L85.3576 55.2367V56.4438H85.8576ZM93.4838 64.0701V64.5701H94.691L93.8374 63.7165L93.4838 64.0701ZM85.8576 64.0701H85.3576V64.5701H85.8576V64.0701ZM59.7636 110.236H59.2636V110.736H59.7636V110.236ZM59.7636 53.783V53.283H59.2636V53.783H59.7636ZM87.7544 110.236V110.736H89.1202L88.0773 109.855L87.7544 110.236ZM96.1447 82.2468L96.2034 82.7433L96.6447 82.6912V82.2468H96.1447ZM96.1447 67.8336H96.6447V67.3336H96.1447V67.8336ZM82.094 53.783H82.594V53.283H82.094V53.783ZM69.1306 79.7536L69.3334 79.2965L69.3333 79.2965L69.1306 79.7536ZM71.6137 78.7962L71.1566 78.5935L71.1566 78.5936L71.6137 78.7962ZM68.1733 77.2705L67.7162 77.0678L67.7162 77.0678L68.1733 77.2705ZM74.462 63.0899L74.0049 62.8872L74.0049 62.8872L74.462 63.0899ZM76.9451 62.1326L77.1477 61.6755L77.1477 61.6755L76.9451 62.1326ZM77.9024 64.6156L78.3594 64.8183L78.3595 64.8183L77.9024 64.6156ZM99.7226 96.3062L99.5482 96.7748L99.5628 96.7803L99.5778 96.7848L99.7226 96.3062ZM97.9045 95.6295L97.7299 96.098L97.9045 95.6295ZM99.8292 104.447L99.6578 103.977L99.3591 104.086L99.3311 104.403L99.8292 104.447ZM98.0202 106.159L98.0037 105.659L97.9915 105.66L98.0202 106.159ZM96.1095 104.638L96.6004 104.542L96.5362 104.212L96.2056 104.147L96.1095 104.638ZM94.0973 103.853L94.3418 103.417L94.3412 103.417L94.0973 103.853ZM93.3734 101.293L93.8097 101.537V101.537L93.3734 101.293ZM95.9339 100.569L95.6898 101.005L95.69 101.006L95.9339 100.569ZM97.9449 101.007V100.507L97.9419 100.507L97.9449 101.007ZM99.153 100.297L99.6477 100.37L99.6479 100.368L99.153 100.297ZM97.9967 99.7034L97.8487 100.181L97.9967 99.7034ZM94.9755 98.3938L94.6968 98.8089L94.6972 98.8092L94.9755 98.3938ZM96.092 91.805L96.272 92.2715L96.5502 92.1641L96.588 91.8683L96.092 91.805ZM99.8041 91.6959L99.3128 91.7885L99.3688 92.0859L99.6583 92.1741L99.8041 91.6959ZM100.951 92.1889L100.701 92.6223L100.732 92.6402L100.766 92.6534L100.951 92.1889ZM99.0987 95.4702L99.4024 95.073L99.2961 94.9917L99.1634 94.9744L99.0987 95.4702ZM99.0838 95.459L99.5835 95.4429L99.5759 95.2085L99.3908 95.0644L99.0838 95.459ZM97.2938 95.4017L96.9568 95.0323L96.3521 95.5841L97.119 95.8702L97.2938 95.4017ZM100.42 73.4402C100.429 69.7208 100.433 67.6871 100.397 66.5346C100.363 65.4264 100.297 64.9957 100.034 64.6438L99.233 65.242C99.2752 65.2986 99.3612 65.3907 99.3979 66.5658C99.4331 67.6967 99.4286 69.7069 99.42 73.4379L100.42 73.4402ZM100.42 73.4394V73.4391H99.42V73.4394H100.42ZM100.42 73.4398V73.4394H99.42V73.4398H100.42ZM100.42 73.4402V73.4398H99.42V73.4402H100.42ZM100.42 73.4408V73.4402H99.42V73.4408H100.42ZM100.42 73.4414V73.4408H99.42V73.4414H100.42ZM100.408 82.2468C100.408 78.5687 100.415 75.6947 100.42 73.4426L99.42 73.4403C99.4148 75.6925 99.4082 78.5675 99.4082 82.2468H100.408ZM114.459 98.0676C114.459 89.6627 108.116 82.7143 99.967 81.7503L99.8495 82.7433C107.502 83.6486 113.459 90.1762 113.459 98.0676H114.459ZM98.0265 114.5C107.088 114.5 114.459 107.129 114.459 98.0676H113.459C113.459 106.577 106.536 113.5 98.0265 113.5V114.5ZM59.7636 114.5H98.0265V113.5H59.7636V114.5ZM55.5 110.236C55.5 112.588 57.4124 114.5 59.7636 114.5V113.5C57.9647 113.5 56.5 112.035 56.5 110.236H55.5ZM55.5 53.783V110.236H56.5V53.783H55.5ZM59.7636 49.5194C57.4124 49.5194 55.5 51.4319 55.5 53.783H56.5C56.5 51.9841 57.9647 50.5194 59.7636 50.5194V49.5194ZM74.0203 49.5062C70.5444 49.5119 65.9226 49.5194 59.7636 49.5194V50.5194C65.9235 50.5194 70.546 50.5119 74.0219 50.5062L74.0203 49.5062ZM85.1616 49.821C84.9904 49.6995 84.8098 49.635 84.5069 49.5948C84.2241 49.5573 83.7902 49.5353 83.0815 49.5215C81.6547 49.4936 79.0188 49.498 74.0203 49.5062L74.0219 50.5062C79.0281 50.498 81.6488 50.4937 83.062 50.5213C83.7732 50.5352 84.1551 50.5569 84.3753 50.5862C84.4828 50.6004 84.5331 50.6142 84.555 50.6219C84.5683 50.6265 84.5716 50.6285 84.5829 50.6365L85.1616 49.821ZM85.2312 49.8729C85.214 49.8597 85.1888 49.8403 85.1616 49.821L84.5829 50.6365C84.5919 50.6429 84.6019 50.6505 84.6218 50.6658L85.2312 49.8729ZM85.2906 49.9171C85.2719 49.9041 85.2555 49.8916 85.2312 49.8729L84.6218 50.6658C84.6452 50.6837 84.6796 50.7103 84.721 50.739L85.2906 49.9171ZM99.8545 64.4269C99.843 64.4133 99.829 64.3979 99.8268 64.3956C99.8257 64.3945 99.8242 64.3929 99.8235 64.3922C99.8222 64.3909 99.8209 64.3895 99.8198 64.3885C99.8176 64.3862 99.8146 64.3832 99.811 64.3796C99.8038 64.3723 99.7933 64.3617 99.7797 64.348C99.7524 64.3206 99.7122 64.2802 99.6599 64.2276C99.5554 64.1226 99.4023 63.9688 99.2077 63.7734C98.8184 63.3826 98.2625 62.8248 97.5949 62.1553C96.2598 60.8163 94.4778 59.0303 92.6876 57.2396C90.8975 55.4489 89.0988 53.653 87.7305 52.2942C87.0465 51.6149 86.4694 51.0441 86.0545 50.6376C85.8472 50.4346 85.6792 50.2714 85.5581 50.1557C85.4979 50.0982 85.4474 50.0506 85.4087 50.0152C85.3895 49.9977 85.3709 49.981 85.3542 49.9666C85.3479 49.9612 85.3112 49.9289 85.268 49.9023L84.7436 50.7538C84.7089 50.7324 84.6875 50.7122 84.703 50.7255C84.7081 50.7299 84.7179 50.7385 84.7335 50.7529C84.7644 50.7811 84.8089 50.823 84.8674 50.8788C84.9838 50.9901 85.1483 51.1498 85.3547 51.352C85.7671 51.756 86.3423 52.3248 87.0259 53.0037C88.3928 54.3612 90.1905 56.1561 91.9804 57.9466C93.7702 59.7369 95.5519 61.5225 96.8868 62.8613C97.5543 63.5307 98.11 64.0884 98.4992 64.4791C98.6938 64.6745 98.8467 64.8281 98.9511 64.933C99.0033 64.9855 99.0433 65.0257 99.0704 65.0529C99.0839 65.0665 99.094 65.0767 99.1008 65.0835C99.1042 65.087 99.1065 65.0893 99.1078 65.0907C99.1086 65.0915 99.1086 65.0915 99.1083 65.0912C99.1081 65.0909 99.1069 65.0897 99.1061 65.0889C99.1041 65.0868 99.0902 65.0716 99.0788 65.0581L99.8545 64.4269ZM99.9186 64.5025C99.8952 64.4754 99.8747 64.4516 99.8535 64.4257L99.0798 65.0593C99.1101 65.0963 99.1384 65.1291 99.1611 65.1554L99.9186 64.5025ZM99.9162 64.4998L99.9161 64.4997L99.1635 65.1582L99.1636 65.1583L99.9162 64.4998ZM99.9217 64.5062L99.9216 64.5061L99.1582 65.152L99.1583 65.1521L99.9217 64.5062ZM99.9401 64.5292L99.94 64.5292L99.14 65.1292L99.1401 65.1292L99.9401 64.5292ZM100.034 64.6438C99.9935 64.5892 99.9506 64.5397 99.9188 64.5028L99.1613 65.1557C99.1975 65.1976 99.2169 65.2204 99.233 65.2421L100.034 64.6438ZM85.5041 56.7974L93.1303 64.4236L93.8374 63.7165L86.2112 56.0903L85.5041 56.7974ZM86.3576 64.0701V56.4438H85.3576V64.0701H86.3576ZM93.4838 63.5701H85.8576V64.5701H93.4838V63.5701ZM60.2636 110.236V53.783H59.2636V110.236H60.2636ZM87.7544 109.736H59.7636V110.736H87.7544V109.736ZM81.594 98.0676C81.594 103.097 83.8658 107.603 87.4316 110.618L88.0773 109.855C84.7256 107.021 82.594 102.789 82.594 98.0676H81.594ZM96.0859 81.7503C87.9366 82.7143 81.594 89.6627 81.594 98.0676H82.594C82.594 90.1762 88.5508 83.6486 96.2034 82.7433L96.0859 81.7503ZM95.6447 67.8336V82.2468H96.6447V67.8336H95.6447ZM85.8576 68.3336H96.1447V67.3336H85.8576V68.3336ZM81.594 64.0701C81.594 66.4212 83.5065 68.3336 85.8576 68.3336V67.3336C84.0588 67.3336 82.594 65.8689 82.594 64.0701H81.594ZM81.594 53.783V64.0701H82.594V53.783H81.594ZM59.7636 54.283H82.094V53.283H59.7636V54.283ZM98.0265 109.736C91.5922 109.736 86.3576 104.502 86.3576 98.0676H85.3576C85.3576 105.054 91.0399 110.736 98.0265 110.736V109.736ZM109.695 98.0676C109.695 104.502 104.461 109.736 98.0265 109.736V110.736C105.013 110.736 110.695 105.054 110.695 98.0676H109.695ZM98.0265 86.3987C104.461 86.3987 109.695 91.6333 109.695 98.0676H110.695C110.695 91.081 105.013 85.3987 98.0265 85.3987V86.3987ZM86.3576 98.0676C86.3576 91.6333 91.5922 86.3987 98.0265 86.3987V85.3987C91.0399 85.3987 85.3576 91.081 85.3576 98.0676H86.3576ZM68.9279 80.2106C70.1306 80.7442 71.5378 80.2011 72.0708 78.9989L71.1566 78.5936C70.8474 79.291 70.031 79.606 69.3334 79.2965L68.9279 80.2106ZM67.7162 77.0678C67.1831 78.2704 67.7256 79.6774 68.9279 80.2106L69.3333 79.2965C68.6359 78.9872 68.321 78.1709 68.6304 77.4731L67.7162 77.0678ZM74.0049 62.8872L67.7162 77.0678L68.6304 77.4732L74.9191 63.2926L74.0049 62.8872ZM77.1477 61.6755C75.9451 61.1423 74.5381 61.6848 74.0049 62.8872L74.919 63.2926C75.2284 62.5951 76.0446 62.2803 76.7424 62.5896L77.1477 61.6755ZM78.3595 64.8183C78.8926 63.6159 78.3503 62.2087 77.1477 61.6755L76.7424 62.5896C77.4399 62.8989 77.7547 63.7153 77.4453 64.413L78.3595 64.8183ZM72.0708 78.9989L78.3594 64.8183L77.4453 64.4129L71.1566 78.5935L72.0708 78.9989ZM70.4463 66.0058C70.4463 67.4363 69.3276 68.5693 67.9894 68.5693V69.5693C69.9129 69.5693 71.4463 67.9549 71.4463 66.0058H70.4463ZM67.9894 63.441C69.3273 63.441 70.4463 64.575 70.4463 66.0058H71.4463C71.4463 64.0569 69.9132 62.441 67.9894 62.441V63.441ZM65.5325 66.0058C65.5325 64.575 66.6514 63.441 67.9894 63.441V62.441C66.0656 62.441 64.5325 64.0569 64.5325 66.0058H65.5325ZM67.9894 68.5693C66.6512 68.5693 65.5325 67.4363 65.5325 66.0058H64.5325C64.5325 67.9549 66.0658 69.5693 67.9894 69.5693V68.5693ZM77.9002 72.3517C75.9764 72.3517 74.4433 73.9676 74.4433 75.9165H75.4433C75.4433 74.4857 76.5622 73.3517 77.9002 73.3517V72.3517ZM81.3571 75.9165C81.3571 73.9676 79.824 72.3517 77.9002 72.3517V73.3517C79.2381 73.3517 80.3571 74.4857 80.3571 75.9165H81.3571ZM77.9002 79.48C79.8237 79.48 81.3571 77.8657 81.3571 75.9165H80.3571C80.3571 77.347 79.2384 78.48 77.9002 78.48V79.48ZM74.4433 75.9165C74.4433 77.8657 75.9766 79.48 77.9002 79.48V78.48C76.562 78.48 75.4433 77.347 75.4433 75.9165H74.4433ZM65.9108 85.646H76.9506V84.646H65.9108V85.646ZM64.529 87.0278C64.529 86.2647 65.1477 85.646 65.9108 85.646V84.646C64.5954 84.646 63.529 85.7124 63.529 87.0278H64.529ZM65.9108 88.4096C65.1477 88.4096 64.529 87.7909 64.529 87.0278H63.529C63.529 88.3432 64.5954 89.4096 65.9108 89.4096V88.4096ZM76.9506 88.4096H65.9108V89.4096H76.9506V88.4096ZM78.3323 87.0278C78.3323 87.7909 77.7137 88.4096 76.9506 88.4096V89.4096C78.2659 89.4096 79.3323 88.3432 79.3323 87.0278H78.3323ZM76.9506 85.646C77.7138 85.646 78.3323 86.2647 78.3323 87.0278H79.3323C79.3323 85.7124 78.2661 84.646 76.9506 84.646V85.646ZM65.9108 97.4385H74.9433V96.4385H65.9108V97.4385ZM63.529 95.0567C63.529 96.3721 64.5954 97.4385 65.9108 97.4385V96.4385C65.1477 96.4385 64.529 95.8198 64.529 95.0567H63.529ZM65.9108 92.6749C64.5954 92.6749 63.529 93.7413 63.529 95.0567H64.529C64.529 94.2936 65.1477 93.6749 65.9108 93.6749V92.6749ZM74.9433 92.6749H65.9108V93.6749H74.9433V92.6749ZM77.3251 95.0567C77.3251 93.7413 76.2587 92.6749 74.9433 92.6749V93.6749C75.7064 93.6749 76.3251 94.2936 76.3251 95.0567H77.3251ZM74.9433 97.4385C76.2587 97.4385 77.3251 96.3721 77.3251 95.0567H76.3251C76.3251 95.8198 75.7064 96.4385 74.9433 96.4385V97.4385ZM65.9108 101.704H76.9506V100.704H65.9108V101.704ZM64.529 103.086C64.529 102.323 65.1477 101.704 65.9108 101.704V100.704C64.5954 100.704 63.529 101.77 63.529 103.086H64.529ZM65.9108 104.467C65.1477 104.467 64.529 103.849 64.529 103.086H63.529C63.529 104.401 64.5954 105.467 65.9108 105.467V104.467ZM76.9506 104.467H65.9108V105.467H76.9506V104.467ZM78.3323 103.086C78.3323 103.849 77.7137 104.467 76.9506 104.467V105.467C78.2659 105.467 79.3323 104.401 79.3323 103.086H78.3323ZM76.9506 101.704C77.7138 101.704 78.3323 102.323 78.3323 103.086H79.3323C79.3323 101.77 78.2661 100.704 76.9506 100.704V101.704ZM99.8969 95.8376C98.6011 95.3554 98.3401 95.2583 98.0792 95.161L97.7299 96.098C97.9912 96.1955 98.2527 96.2927 99.5482 96.7748L99.8969 95.8376ZM100.001 104.917C102.181 104.121 103.383 102.234 103.411 100.337C103.439 98.422 102.27 96.5543 99.8673 95.8276L99.5778 96.7848C101.561 97.3848 102.433 98.8621 102.411 100.323C102.39 101.802 101.452 103.322 99.6578 103.977L100.001 104.917ZM98.0366 106.659C99.2449 106.619 100.222 105.679 100.327 104.491L99.3311 104.403C99.2704 105.092 98.7023 105.637 98.0037 105.66L98.0366 106.659ZM95.6187 104.733C95.8484 105.917 96.9316 106.723 98.0488 106.658L97.9915 105.66C97.3737 105.696 96.7347 105.235 96.6004 104.542L95.6187 104.733ZM93.8528 104.29C94.6445 104.733 95.3092 104.99 96.0135 105.128L96.2056 104.147C95.6277 104.034 95.0631 103.822 94.3418 103.417L93.8528 104.29ZM92.9372 101.049C92.2939 102.197 92.7055 103.648 93.8534 104.29L94.3412 103.417C93.6751 103.045 93.4368 102.203 93.8097 101.537L92.9372 101.049ZM96.1781 100.133C95.0311 99.491 93.58 99.901 92.9372 101.049L93.8097 101.537C94.183 100.871 95.0252 100.634 95.6898 101.005L96.1781 100.133ZM97.9419 100.507C97.4177 100.51 97.1519 100.501 96.9306 100.455C96.7244 100.412 96.5329 100.331 96.1778 100.133L95.69 101.006C96.0713 101.219 96.3691 101.36 96.7262 101.434C97.0682 101.506 97.4397 101.51 97.9479 101.507L97.9419 100.507ZM98.6583 100.224C98.6627 100.194 98.6564 100.263 98.5263 100.352C98.4108 100.431 98.2197 100.507 97.9449 100.507V101.507C98.4069 101.507 98.7978 101.378 99.0911 101.177C99.3698 100.986 99.5992 100.7 99.6477 100.37L98.6583 100.224ZM97.8487 100.181C98.2182 100.295 98.479 100.377 98.6475 100.454C98.7336 100.493 98.7511 100.512 98.7408 100.502C98.7205 100.482 98.6354 100.382 98.6581 100.225L99.6479 100.368C99.6868 100.099 99.5544 99.896 99.4316 99.7787C99.3189 99.671 99.1787 99.5967 99.0608 99.5432C98.821 99.4344 98.4874 99.332 98.1446 99.2258L97.8487 100.181ZM94.6972 98.8092C95.804 99.5504 97.0228 99.9251 97.8487 100.181L98.1446 99.2258C97.3083 98.9667 96.2233 98.6277 95.2537 97.9783L94.6972 98.8092ZM95.9119 91.3386C92.6051 92.6151 91.8969 96.9299 94.6968 98.8089L95.2541 97.9786C93.2351 96.6237 93.5948 93.305 96.272 92.2715L95.9119 91.3386ZM97.9562 89.6641C96.7434 89.6641 95.7453 90.5714 95.596 91.7417L96.588 91.8683C96.6745 91.1894 97.2546 90.6641 97.9562 90.6641V89.6641ZM100.295 91.6032C100.083 90.4788 99.0981 89.6641 97.9562 89.6641V90.6641C98.618 90.6641 99.19 91.1373 99.3128 91.7885L100.295 91.6032ZM101.2 91.7555C100.898 91.5816 100.477 91.3782 99.9499 91.2176L99.6583 92.1741C100.102 92.3096 100.454 92.4801 100.701 92.6223L101.2 91.7555ZM102.65 93.9565C102.65 92.9416 102.022 92.0771 101.136 91.7244L100.766 92.6534C101.285 92.8602 101.65 93.3657 101.65 93.9565H102.65ZM98.795 95.8674C100.349 97.0558 102.65 95.9635 102.65 93.9565H101.65C101.65 95.1222 100.309 95.7661 99.4024 95.073L98.795 95.8674ZM98.584 95.4752C98.5892 95.6364 98.671 95.7937 98.8183 95.8881C98.921 95.9539 99.0213 95.9644 99.034 95.966L99.1634 94.9744C99.1674 94.9749 99.2604 94.9837 99.3579 95.0462C99.4158 95.0833 99.4771 95.1401 99.5221 95.2211C99.5665 95.3011 99.5815 95.3801 99.5835 95.4429L98.584 95.4752ZM97.6308 95.7711C97.597 95.8019 97.6077 95.777 97.7324 95.7501C97.837 95.7275 97.9749 95.7137 98.1253 95.7153C98.2752 95.7168 98.4226 95.7334 98.5468 95.7631C98.6773 95.7943 98.749 95.8321 98.7767 95.8537L99.3908 95.0644C99.2068 94.9213 98.9824 94.8391 98.7794 94.7905C98.5701 94.7404 98.3466 94.7175 98.1354 94.7153C97.9247 94.7132 97.7112 94.7316 97.5213 94.7726C97.3515 94.8093 97.1244 94.8794 96.9568 95.0323L97.6308 95.7711ZM98.0792 95.161C97.9344 95.1071 97.7898 95.0531 97.4686 94.9333L97.119 95.8702C97.4401 95.9899 97.585 96.044 97.7299 96.098L98.0792 95.161Z" fill="#1A4D3D" mask="url(#path-3-inside-1)"/>
<defs>
<filter id="filter0_d" x="2" y="2" width="160" height="160" filterUnits="userSpaceOnUse" color-interpolation-filters="sRGB">
<feFlood flood-opacity="0" result="BackgroundImageFix"/>
<feColorMatrix in="SourceAlpha" type="matrix" values="0 0 0 0 0 0 0 0 0 0 0 0 0 0 0 0 0 0 127 0"/>
<feOffset/>
<feGaussianBlur stdDeviation="4"/>
<feColorMatrix type="matrix" values="0 0 0 0 0.301961 0 0 0 0 0.458824 0 0 0 0 0.407843 0 0 0 1 0"/>
<feBlend mode="normal" in2="BackgroundImageFix" result="effect1_dropShadow"/>
<feBlend mode="normal" in="SourceGraphic" in2="effect1_dropShadow" result="shape"/>
</filter>
<linearGradient id="paint0_linear" x1="82" y1="154" x2="82" y2="10" gradientUnits="userSpaceOnUse">
<stop stop-color="#1A4D3D"/>
<stop offset="1" stop-color="#336152"/>
</linearGradient>
</defs>
</svg>
