<svg width="164" height="164" viewBox="0 0 164 164" fill="none" xmlns="http://www.w3.org/2000/svg">
<circle opacity="0.1" cx="82" cy="82" r="82" fill="#1A4D3D"/>
<g filter="url(#filter0_d)">
<circle cx="82" cy="83" r="72" fill="url(#paint0_linear)"/>
</g>
<path fill-rule="evenodd" clip-rule="evenodd" d="M100.883 59.3852H95.0925V56.7949C95.0925 55.9569 94.1783 55.576 93.3403 55.576H88.8454C87.7789 52.5286 85.1124 51.0049 82.065 51.0049C79.0511 50.8916 76.3098 52.7396 75.2845 55.576H70.8658C70.0278 55.576 69.1897 55.9569 69.1897 56.7949V59.3852H63.3996C59.9684 59.4218 57.1613 62.1285 57 65.5561V109.21C57 112.562 60.0474 115 63.3996 115H100.883C104.235 115 107.282 112.562 107.282 109.21V65.5562C107.121 62.1285 104.314 59.4218 100.883 59.3852ZM72.237 58.6234H76.4272C77.1586 58.5342 77.7462 57.9777 77.8748 57.2521C78.326 55.2873 80.0497 53.8769 82.065 53.8238C84.0616 53.8843 85.7594 55.2991 86.1789 57.2521C86.3156 58.0028 86.9419 58.5664 87.7026 58.6234H92.0452V64.7182H72.237V58.6234ZM104.235 109.21C104.235 110.886 102.559 111.953 100.883 111.953H63.3996C61.7235 111.953 60.0474 110.886 60.0474 109.21V65.5562C60.2028 63.8116 61.6482 62.4647 63.3996 62.4327H69.1896V66.3182C69.2701 67.1718 70.0094 67.8104 70.8657 67.7658H93.3401C94.2121 67.8134 94.9747 67.1836 95.0923 66.3182V62.4326H100.882C102.634 62.4647 104.079 63.8115 104.235 65.5561V109.21H104.235ZM76.2748 85.0596C75.7033 84.4572 74.7546 84.4232 74.1416 84.9835L69.2657 89.6307L67.2087 87.4974C66.6373 86.895 65.6885 86.8612 65.0755 87.4213C64.4854 88.0396 64.4854 89.0124 65.0755 89.6307L68.199 92.8305C68.4694 93.1332 68.8599 93.3006 69.2656 93.2876C69.6675 93.2819 70.0508 93.1176 70.3321 92.8305L76.2745 87.1928C76.8636 86.6524 76.903 85.7366 76.3625 85.1477C76.3347 85.1169 76.3054 85.0876 76.2748 85.0596ZM80.6174 88.3355H98.1399C98.9814 88.3355 99.6636 89.0176 99.6636 89.8592C99.6636 90.7007 98.9814 91.3829 98.1399 91.3829H80.6174C79.7759 91.3829 79.0937 90.7007 79.0937 89.8592C79.0937 89.0176 79.7759 88.3355 80.6174 88.3355ZM76.2748 72.87C75.7033 72.2676 74.7546 72.2336 74.1416 72.7939L69.2657 77.4411L67.2087 75.3078C66.6373 74.7054 65.6885 74.6715 65.0755 75.2317C64.4854 75.85 64.4854 76.8228 65.0755 77.4411L68.199 80.6409C68.4694 80.9436 68.8599 81.111 69.2656 81.098C69.6675 81.0923 70.0508 80.928 70.3321 80.6409L76.2745 75.0032C76.8636 74.4628 76.903 73.547 76.3625 72.9581C76.3347 72.9273 76.3054 72.898 76.2748 72.87ZM80.6174 76.1459H98.1399C98.9814 76.1459 99.6636 76.828 99.6636 77.6696C99.6636 78.5111 98.9814 79.1933 98.1399 79.1933H80.6174C79.7759 79.1933 79.0937 78.5111 79.0937 77.6696C79.0937 76.828 79.7759 76.1459 80.6174 76.1459ZM76.2748 97.249C75.7033 96.6466 74.7546 96.6128 74.1416 97.1729L69.2657 101.82L67.2087 99.6869C66.6373 99.0845 65.6885 99.0507 65.0755 99.6108C64.4854 100.229 64.4854 101.202 65.0755 101.82L68.199 105.02C68.4694 105.323 68.8599 105.49 69.2656 105.477C69.6675 105.471 70.0508 105.307 70.3321 105.02L76.2745 99.3823C76.8636 98.8418 76.903 97.9261 76.3625 97.3371C76.3347 97.3065 76.3054 97.2772 76.2748 97.249ZM80.6174 100.525H98.1399C98.9814 100.525 99.6636 101.207 99.6636 102.049C99.6636 102.89 98.9814 103.572 98.1399 103.572H80.6174C79.7759 103.572 79.0937 102.89 79.0937 102.049C79.0937 101.207 79.7759 100.525 80.6174 100.525Z" fill="white"/>
<defs>
<filter id="filter0_d" x="2" y="3" width="160" height="160" filterUnits="userSpaceOnUse" color-interpolation-filters="sRGB">
<feFlood flood-opacity="0" result="BackgroundImageFix"/>
<feColorMatrix in="SourceAlpha" type="matrix" values="0 0 0 0 0 0 0 0 0 0 0 0 0 0 0 0 0 0 127 0"/>
<feOffset/>
<feGaussianBlur stdDeviation="4"/>
<feColorMatrix type="matrix" values="0 0 0 0 0.301961 0 0 0 0 0.458824 0 0 0 0 0.407843 0 0 0 1 0"/>
<feBlend mode="normal" in2="BackgroundImageFix" result="effect1_dropShadow"/>
<feBlend mode="normal" in="SourceGraphic" in2="effect1_dropShadow" result="shape"/>
</filter>
<linearGradient id="paint0_linear" x1="82" y1="155" x2="82" y2="11" gradientUnits="userSpaceOnUse">
<stop stop-color="#1A4D3D"/>
<stop offset="1" stop-color="#336152"/>
</linearGradient>
</defs>
</svg>
