<svg width="164" height="164" viewBox="0 0 164 164" fill="none" xmlns="http://www.w3.org/2000/svg">
<circle opacity="0.1" cx="82" cy="82" r="82" fill="#1A4D3D"/>
<g filter="url(#filter0_d)">
<circle cx="82" cy="82" r="72" fill="url(#paint0_linear)"/>
</g>
<mask id="path-3-inside-1" fill="white">
<path fill-rule="evenodd" clip-rule="evenodd" d="M79.8033 117H84.1965C87.7498 117 90.6406 114.109 90.6406 110.556V109.07C92.1512 108.587 93.6189 107.978 95.0289 107.249L96.0812 108.301C98.6273 110.85 102.713 110.788 105.195 108.302L108.301 105.197C110.783 102.717 110.854 98.6314 108.302 96.0822L107.248 95.0289C107.978 93.6189 108.587 92.1514 109.07 90.6406H110.556C114.109 90.6406 117 87.7498 117 84.1967V79.8033C117 76.2502 114.109 73.3594 110.556 73.3594H109.07C108.587 71.8485 107.978 70.3811 107.248 68.9711L108.301 67.9187C110.854 65.3679 110.783 61.2829 108.302 58.8043L105.197 55.6994C102.72 53.2192 98.6332 53.1443 96.0822 55.6985L95.0289 56.7517C93.6189 56.0221 92.1512 55.4129 90.6406 54.9302V53.444C90.6406 49.8908 87.7498 47 84.1967 47H79.8035C76.2502 47 73.3594 49.8908 73.3594 53.444V54.9301C71.8488 55.4129 70.3811 56.0221 68.9711 56.7516L67.9188 55.6993C65.3727 53.1503 61.2872 53.2124 58.8046 55.6985L55.6993 58.8036C53.2169 61.2833 53.1465 65.3687 55.6985 67.918L56.7517 68.9711C56.0221 70.3811 55.413 71.8486 54.9302 73.3594H53.4441C49.8909 73.3594 47 76.2502 47 79.8033V84.1967C47 87.7498 49.8909 90.6406 53.444 90.6406H54.9301C55.4129 92.1515 56.0219 93.6189 56.7516 95.0289L55.6991 96.0813C53.1456 98.6321 53.217 102.717 55.6983 105.196L58.8033 108.301C61.2803 110.781 65.3667 110.856 67.9177 108.302L68.971 107.248C70.381 107.978 71.8486 108.587 73.3592 109.07V110.556C73.3592 114.109 76.2502 117 79.8033 117ZM75.9226 105.542C73.7236 104.975 71.6154 104.1 69.6566 102.941C68.665 102.355 67.6501 102.769 67.1623 103.256L65.0167 105.402C64.0905 106.329 62.6052 106.303 61.7046 105.401L58.5977 102.294C57.6955 101.393 57.6713 99.9084 58.5985 98.9822L60.7435 96.8373C61.4055 96.1753 61.5351 95.1491 61.0587 94.3432C59.9004 92.3846 59.0252 90.2764 58.4577 88.0773C58.2239 87.1718 57.4073 86.5391 56.472 86.5391H53.4441C52.1525 86.5391 51.1016 85.4882 51.1016 84.1967V79.8033C51.1016 78.5118 52.1525 77.4609 53.4441 77.4608H56.4721C57.4073 77.4608 58.2241 76.8282 58.4579 75.9226C59.0254 73.7235 59.9004 71.6153 61.0588 69.6566C61.5353 68.8508 61.4056 67.8246 60.7437 67.1626L58.5979 65.0168C57.6687 64.0887 57.6988 62.6036 58.5987 61.7048L61.7059 58.5977C62.6078 57.6943 64.093 57.6728 65.0178 58.5987L67.1626 60.7437C67.8246 61.4056 68.8507 61.5353 69.6568 61.0588C71.6155 59.9004 73.7237 59.0252 75.9227 58.4577C76.8283 58.2241 77.4611 57.4073 77.4611 56.472V53.444C77.4611 52.1524 78.512 51.1016 79.8036 51.1016H84.1968C85.4884 51.1016 86.5393 52.1524 86.5393 53.444V56.4723C86.5393 57.4076 87.1721 58.2243 88.0777 58.458C90.2767 59.0255 92.3849 59.9006 94.3437 61.0591C95.1493 61.5357 96.1758 61.4061 96.8378 60.7439L98.9835 58.5981C99.9096 57.6708 101.395 57.6971 102.295 58.5989L105.402 61.7059C106.305 62.607 106.329 64.0918 105.402 65.0179L103.257 67.1629C102.595 67.8249 102.465 68.8511 102.941 69.6569C104.1 71.6155 104.975 73.7237 105.542 75.9229C105.776 76.8283 106.593 77.4611 107.528 77.4611H110.556C111.848 77.4611 112.899 78.5119 112.899 79.8035V84.1968C112.899 85.4884 111.848 86.5392 110.556 86.5392H107.528C106.593 86.5392 105.776 87.1718 105.542 88.0774C104.975 90.2765 104.1 92.3847 102.941 94.3434C102.465 95.1492 102.595 96.1754 103.257 96.8374L105.402 98.9832C106.332 99.9111 106.301 101.396 105.402 102.295L102.294 105.402C101.392 106.306 99.9073 106.327 98.9825 105.401L96.8377 103.256C96.1755 102.594 95.1495 102.465 94.3435 102.941C92.3847 104.1 90.2765 104.975 88.0776 105.542C87.1719 105.776 86.5392 106.593 86.5392 107.528V110.556C86.5392 111.848 85.4882 112.898 84.1967 112.898H79.8035C78.5119 112.898 77.4609 111.848 77.4609 110.556V107.528C77.4609 106.593 76.8282 105.776 75.9226 105.542ZM66.7697 82C66.7697 90.3981 73.602 97.2305 82.0002 97.2305C90.3984 97.2305 97.2307 90.3981 97.2307 82C97.2307 73.6019 90.3984 66.7695 82.0002 66.7695C73.602 66.7695 66.7697 73.6019 66.7697 82ZM70.8713 82C70.8713 75.8635 75.8636 70.8711 82.0002 70.8711C88.1368 70.8711 93.1291 75.8635 93.1291 82C93.1291 88.1365 88.1367 93.1289 82.0002 93.1289C75.8637 93.1289 70.8713 88.1365 70.8713 82Z"/>
</mask>
<path fill-rule="evenodd" clip-rule="evenodd" d="M79.8033 117H84.1965C87.7498 117 90.6406 114.109 90.6406 110.556V109.07C92.1512 108.587 93.6189 107.978 95.0289 107.249L96.0812 108.301C98.6273 110.85 102.713 110.788 105.195 108.302L108.301 105.197C110.783 102.717 110.854 98.6314 108.302 96.0822L107.248 95.0289C107.978 93.6189 108.587 92.1514 109.07 90.6406H110.556C114.109 90.6406 117 87.7498 117 84.1967V79.8033C117 76.2502 114.109 73.3594 110.556 73.3594H109.07C108.587 71.8485 107.978 70.3811 107.248 68.9711L108.301 67.9187C110.854 65.3679 110.783 61.2829 108.302 58.8043L105.197 55.6994C102.72 53.2192 98.6332 53.1443 96.0822 55.6985L95.0289 56.7517C93.6189 56.0221 92.1512 55.4129 90.6406 54.9302V53.444C90.6406 49.8908 87.7498 47 84.1967 47H79.8035C76.2502 47 73.3594 49.8908 73.3594 53.444V54.9301C71.8488 55.4129 70.3811 56.0221 68.9711 56.7516L67.9188 55.6993C65.3727 53.1503 61.2872 53.2124 58.8046 55.6985L55.6993 58.8036C53.2169 61.2833 53.1465 65.3687 55.6985 67.918L56.7517 68.9711C56.0221 70.3811 55.413 71.8486 54.9302 73.3594H53.4441C49.8909 73.3594 47 76.2502 47 79.8033V84.1967C47 87.7498 49.8909 90.6406 53.444 90.6406H54.9301C55.4129 92.1515 56.0219 93.6189 56.7516 95.0289L55.6991 96.0813C53.1456 98.6321 53.217 102.717 55.6983 105.196L58.8033 108.301C61.2803 110.781 65.3667 110.856 67.9177 108.302L68.971 107.248C70.381 107.978 71.8486 108.587 73.3592 109.07V110.556C73.3592 114.109 76.2502 117 79.8033 117ZM75.9226 105.542C73.7236 104.975 71.6154 104.1 69.6566 102.941C68.665 102.355 67.6501 102.769 67.1623 103.256L65.0167 105.402C64.0905 106.329 62.6052 106.303 61.7046 105.401L58.5977 102.294C57.6955 101.393 57.6713 99.9084 58.5985 98.9822L60.7435 96.8373C61.4055 96.1753 61.5351 95.1491 61.0587 94.3432C59.9004 92.3846 59.0252 90.2764 58.4577 88.0773C58.2239 87.1718 57.4073 86.5391 56.472 86.5391H53.4441C52.1525 86.5391 51.1016 85.4882 51.1016 84.1967V79.8033C51.1016 78.5118 52.1525 77.4609 53.4441 77.4608H56.4721C57.4073 77.4608 58.2241 76.8282 58.4579 75.9226C59.0254 73.7235 59.9004 71.6153 61.0588 69.6566C61.5353 68.8508 61.4056 67.8246 60.7437 67.1626L58.5979 65.0168C57.6687 64.0887 57.6988 62.6036 58.5987 61.7048L61.7059 58.5977C62.6078 57.6943 64.093 57.6728 65.0178 58.5987L67.1626 60.7437C67.8246 61.4056 68.8507 61.5353 69.6568 61.0588C71.6155 59.9004 73.7237 59.0252 75.9227 58.4577C76.8283 58.2241 77.4611 57.4073 77.4611 56.472V53.444C77.4611 52.1524 78.512 51.1016 79.8036 51.1016H84.1968C85.4884 51.1016 86.5393 52.1524 86.5393 53.444V56.4723C86.5393 57.4076 87.1721 58.2243 88.0777 58.458C90.2767 59.0255 92.3849 59.9006 94.3437 61.0591C95.1493 61.5357 96.1758 61.4061 96.8378 60.7439L98.9835 58.5981C99.9096 57.6708 101.395 57.6971 102.295 58.5989L105.402 61.7059C106.305 62.607 106.329 64.0918 105.402 65.0179L103.257 67.1629C102.595 67.8249 102.465 68.8511 102.941 69.6569C104.1 71.6155 104.975 73.7237 105.542 75.9229C105.776 76.8283 106.593 77.4611 107.528 77.4611H110.556C111.848 77.4611 112.899 78.5119 112.899 79.8035V84.1968C112.899 85.4884 111.848 86.5392 110.556 86.5392H107.528C106.593 86.5392 105.776 87.1718 105.542 88.0774C104.975 90.2765 104.1 92.3847 102.941 94.3434C102.465 95.1492 102.595 96.1754 103.257 96.8374L105.402 98.9832C106.332 99.9111 106.301 101.396 105.402 102.295L102.294 105.402C101.392 106.306 99.9073 106.327 98.9825 105.401L96.8377 103.256C96.1755 102.594 95.1495 102.465 94.3435 102.941C92.3847 104.1 90.2765 104.975 88.0776 105.542C87.1719 105.776 86.5392 106.593 86.5392 107.528V110.556C86.5392 111.848 85.4882 112.898 84.1967 112.898H79.8035C78.5119 112.898 77.4609 111.848 77.4609 110.556V107.528C77.4609 106.593 76.8282 105.776 75.9226 105.542ZM66.7697 82C66.7697 90.3981 73.602 97.2305 82.0002 97.2305C90.3984 97.2305 97.2307 90.3981 97.2307 82C97.2307 73.6019 90.3984 66.7695 82.0002 66.7695C73.602 66.7695 66.7697 73.6019 66.7697 82ZM70.8713 82C70.8713 75.8635 75.8636 70.8711 82.0002 70.8711C88.1368 70.8711 93.1291 75.8635 93.1291 82C93.1291 88.1365 88.1367 93.1289 82.0002 93.1289C75.8637 93.1289 70.8713 88.1365 70.8713 82Z" fill="white"/>
<path d="M90.6406 109.07L90.458 108.499L90.0406 108.632V109.07H90.6406ZM95.0289 107.249L95.4531 106.824L95.1429 106.514L94.7532 106.716L95.0289 107.249ZM96.0812 108.301L96.5057 107.877L96.5055 107.877L96.0812 108.301ZM105.195 108.302L104.771 107.877L104.771 107.878L105.195 108.302ZM108.301 105.197L107.877 104.772L107.876 104.772L108.301 105.197ZM108.302 96.0822L107.877 96.5064L107.878 96.5067L108.302 96.0822ZM107.248 95.0289L106.715 94.7531L106.514 95.1429L106.824 95.4531L107.248 95.0289ZM109.07 90.6406V90.0406H108.632L108.498 90.458L109.07 90.6406ZM109.07 73.3594L108.498 73.542L108.632 73.9594H109.07V73.3594ZM107.248 68.9711L106.824 68.5468L106.514 68.8571L106.715 69.2469L107.248 68.9711ZM108.301 67.9187L107.877 67.4942L107.876 67.4944L108.301 67.9187ZM108.302 58.8043L107.877 59.2286L107.878 59.2288L108.302 58.8043ZM105.197 55.6994L104.772 56.1234L104.772 56.1237L105.197 55.6994ZM96.0822 55.6985L96.5064 56.1227L96.5067 56.1225L96.0822 55.6985ZM95.0289 56.7517L94.7531 57.2846L95.1429 57.4863L95.4531 57.176L95.0289 56.7517ZM90.6406 54.9302H90.0406V55.3684L90.458 55.5018L90.6406 54.9302ZM73.3594 54.9301L73.542 55.5016L73.9594 55.3682V54.9301H73.3594ZM68.9711 56.7516L68.5469 57.1759L68.8571 57.4861L69.2468 57.2845L68.9711 56.7516ZM67.9188 55.6993L67.4943 56.1233L67.4945 56.1235L67.9188 55.6993ZM58.8046 55.6985L59.2288 56.1227L59.2291 56.1224L58.8046 55.6985ZM55.6993 58.8036L56.1233 59.2281L56.1235 59.2279L55.6993 58.8036ZM55.6985 67.918L56.1227 67.4937L56.1225 67.4935L55.6985 67.918ZM56.7517 68.9711L57.2846 69.2469L57.4863 68.8571L57.176 68.5468L56.7517 68.9711ZM54.9302 73.3594V73.9594H55.3684L55.5018 73.542L54.9302 73.3594ZM54.9301 90.6406L55.5016 90.458L55.3683 90.0406H54.9301V90.6406ZM56.7516 95.0289L57.1759 95.4531L57.4862 95.1429L57.2845 94.7531L56.7516 95.0289ZM55.6991 96.0813L56.1232 96.5058L56.1234 96.5056L55.6991 96.0813ZM55.6983 105.196L56.1226 104.771L56.1224 104.771L55.6983 105.196ZM58.8033 108.301L59.2279 107.877L59.2276 107.876L58.8033 108.301ZM67.9177 108.302L67.4934 107.877L67.4932 107.878L67.9177 108.302ZM68.971 107.248L69.2467 106.715L68.857 106.514L68.5467 106.824L68.971 107.248ZM73.3592 109.07H73.9592V108.632L73.5418 108.498L73.3592 109.07ZM69.6566 102.941L69.3512 103.458L69.3512 103.458L69.6566 102.941ZM75.9226 105.542L75.7726 106.123L75.7727 106.123L75.9226 105.542ZM67.1623 103.256L66.7381 102.832L66.738 102.832L67.1623 103.256ZM65.0167 105.402L64.5924 104.978L64.5921 104.978L65.0167 105.402ZM61.7046 105.401L62.1292 104.977L62.1289 104.977L61.7046 105.401ZM58.5977 102.294L59.022 101.87L59.0217 101.87L58.5977 102.294ZM58.5985 98.9822L59.0225 99.4068L59.0228 99.4065L58.5985 98.9822ZM60.7435 96.8373L61.1678 97.2615H61.1678L60.7435 96.8373ZM61.0587 94.3432L61.5751 94.0379L61.5751 94.0378L61.0587 94.3432ZM58.4577 88.0773L59.0387 87.9274L59.0387 87.9273L58.4577 88.0773ZM53.4441 77.4608V76.8608H53.444L53.4441 77.4608ZM58.4579 75.9226L59.0388 76.0726L59.0388 76.0725L58.4579 75.9226ZM61.0588 69.6566L61.5752 69.9621L61.5753 69.962L61.0588 69.6566ZM60.7437 67.1626L61.1679 66.7383V66.7383L60.7437 67.1626ZM58.5979 65.0168L59.0221 64.5925L59.0219 64.5923L58.5979 65.0168ZM58.5987 61.7048L59.0227 62.1293L59.0229 62.1291L58.5987 61.7048ZM61.7059 58.5977L62.1301 59.022L62.1305 59.0216L61.7059 58.5977ZM65.0178 58.5987L64.5932 59.0227L64.5935 59.0229L65.0178 58.5987ZM67.1626 60.7437L66.7383 61.1679L66.7383 61.1679L67.1626 60.7437ZM69.6568 61.0588L69.9621 61.5753L69.9622 61.5752L69.6568 61.0588ZM75.9227 58.4577L75.7728 57.8767L75.7728 57.8768L75.9227 58.4577ZM88.0777 58.458L88.2276 57.877L88.2276 57.877L88.0777 58.458ZM94.3437 61.0591L94.6491 60.5427L94.6491 60.5426L94.3437 61.0591ZM96.8378 60.7439L96.4135 60.3197L96.4135 60.3197L96.8378 60.7439ZM98.9835 58.5981L99.4078 59.0224L99.408 59.0221L98.9835 58.5981ZM102.295 58.5989L101.871 59.0229L101.871 59.0232L102.295 58.5989ZM105.402 61.7059L104.978 62.1301L104.978 62.1304L105.402 61.7059ZM105.402 65.0179L104.978 64.5934L104.977 64.5936L105.402 65.0179ZM103.257 67.1629L103.681 67.5871V67.5871L103.257 67.1629ZM102.941 69.6569L102.425 69.9623L102.425 69.9623L102.941 69.6569ZM105.542 75.9229L104.961 76.0728L104.961 76.0728L105.542 75.9229ZM105.542 88.0774L104.961 87.9274L104.961 87.9275L105.542 88.0774ZM102.941 94.3434L102.425 94.0379L102.425 94.038L102.941 94.3434ZM105.402 98.9832L104.978 99.4075L104.978 99.4077L105.402 98.9832ZM105.402 102.295L104.978 101.871L104.977 101.871L105.402 102.295ZM102.294 105.402L101.87 104.978L101.87 104.978L102.294 105.402ZM98.9825 105.401L99.407 104.977L99.4068 104.977L98.9825 105.401ZM96.8377 103.256L97.262 102.832L97.2619 102.832L96.8377 103.256ZM94.3435 102.941L94.0381 102.425L94.0381 102.425L94.3435 102.941ZM88.0776 105.542L88.2275 106.123L88.2275 106.123L88.0776 105.542ZM84.1965 116.4H79.8033V117.6H84.1965V116.4ZM90.0406 110.556C90.0406 113.778 87.4185 116.4 84.1965 116.4V117.6C88.0812 117.6 91.2406 114.441 91.2406 110.556H90.0406ZM90.0406 109.07V110.556H91.2406V109.07H90.0406ZM94.7532 106.716C93.373 107.43 91.9365 108.026 90.458 108.499L90.8233 109.642C92.366 109.149 93.8648 108.526 95.3046 107.781L94.7532 106.716ZM96.5055 107.877L95.4531 106.824L94.6046 107.673L95.6569 108.725L96.5055 107.877ZM104.771 107.878C102.519 110.133 98.8138 110.188 96.5057 107.877L95.6567 108.725C98.4409 111.512 102.907 111.443 105.62 108.726L104.771 107.878ZM107.876 104.772L104.771 107.877L105.62 108.726L108.725 105.621L107.876 104.772ZM107.878 96.5067C110.191 98.8172 110.129 102.522 107.877 104.772L108.725 105.621C111.437 102.911 111.517 98.4456 108.726 95.6577L107.878 96.5067ZM106.824 95.4531L107.877 96.5064L108.726 95.6579L107.673 94.6046L106.824 95.4531ZM108.498 90.458C108.026 91.9367 107.43 93.373 106.715 94.7531L107.781 95.3046C108.526 93.8648 109.148 92.3661 109.641 90.8233L108.498 90.458ZM110.556 90.0406H109.07V91.2406H110.556V90.0406ZM116.4 84.1967C116.4 87.4185 113.778 90.0406 110.556 90.0406V91.2406C114.44 91.2406 117.6 88.0812 117.6 84.1967H116.4ZM116.4 79.8033V84.1967H117.6V79.8033H116.4ZM110.556 73.9594C113.778 73.9594 116.4 76.5815 116.4 79.8033H117.6C117.6 75.9188 114.44 72.7594 110.556 72.7594V73.9594ZM109.07 73.9594H110.556V72.7594H109.07V73.9594ZM106.715 69.2469C107.43 70.627 108.026 72.0632 108.498 73.542L109.641 73.1768C109.148 71.6338 108.526 70.1352 107.781 68.6953L106.715 69.2469ZM107.876 67.4944L106.824 68.5468L107.673 69.3954L108.725 68.3429L107.876 67.4944ZM107.878 59.2288C110.128 61.4773 110.191 65.182 107.877 67.4942L108.725 68.3431C111.517 65.5538 111.437 61.0885 108.726 58.3798L107.878 59.2288ZM104.772 56.1237L107.877 59.2286L108.726 58.38L105.621 55.2751L104.772 56.1237ZM96.5067 56.1225C98.8188 53.8075 102.525 53.8733 104.772 56.1234L105.621 55.2754C102.914 52.5651 98.4476 52.481 95.6576 55.2745L96.5067 56.1225ZM95.4531 57.176L96.5064 56.1227L95.6579 55.2742L94.6046 56.3275L95.4531 57.176ZM90.458 55.5018C91.9365 55.9741 93.373 56.5704 94.7531 57.2846L95.3046 56.2189C93.8648 55.4737 92.366 54.8516 90.8232 54.3587L90.458 55.5018ZM90.0406 53.444V54.9302H91.2406V53.444H90.0406ZM84.1967 47.6C87.4185 47.6 90.0406 50.2222 90.0406 53.444H91.2406C91.2406 49.5594 88.0812 46.4 84.1967 46.4V47.6ZM79.8035 47.6H84.1967V46.4H79.8035V47.6ZM73.9594 53.444C73.9594 50.2222 76.5815 47.6 79.8035 47.6V46.4C75.9188 46.4 72.7594 49.5594 72.7594 53.444H73.9594ZM73.9594 54.9301V53.444H72.7594V54.9301H73.9594ZM69.2468 57.2845C70.627 56.5704 72.0635 55.9741 73.542 55.5016L73.1767 54.3586C71.634 54.8516 70.1352 55.4737 68.6954 56.2187L69.2468 57.2845ZM67.4945 56.1235L68.5469 57.1759L69.3954 56.3273L68.3431 55.275L67.4945 56.1235ZM59.2291 56.1224C61.4811 53.8673 65.1862 53.8126 67.4943 56.1233L68.3433 55.2753C65.5591 52.488 61.0934 52.5574 58.38 55.2745L59.2291 56.1224ZM56.1235 59.2279L59.2288 56.1227L58.3803 55.2742L55.275 58.3793L56.1235 59.2279ZM56.1225 67.4935C53.8094 65.1829 53.8712 61.4777 56.1233 59.2281L55.2752 58.3791C52.5625 61.0888 52.4835 65.5545 55.2744 68.3425L56.1225 67.4935ZM57.176 68.5468L56.1227 67.4937L55.2742 68.3423L56.3275 69.3954L57.176 68.5468ZM55.5018 73.542C55.9743 72.0633 56.5704 70.627 57.2846 69.2469L56.2189 68.6954C55.4737 70.1352 54.8517 71.6339 54.3587 73.1767L55.5018 73.542ZM53.4441 73.9594H54.9302V72.7594H53.4441V73.9594ZM47.6 79.8033C47.6 76.5815 50.2223 73.9594 53.4441 73.9594V72.7594C49.5596 72.7594 46.4 75.9188 46.4 79.8033H47.6ZM47.6 84.1967V79.8033H46.4V84.1967H47.6ZM53.444 90.0406C50.2223 90.0406 47.6 87.4185 47.6 84.1967H46.4C46.4 88.0812 49.5596 91.2406 53.444 91.2406V90.0406ZM54.9301 90.0406H53.444V91.2406H54.9301V90.0406ZM57.2845 94.7531C56.5703 93.373 55.9741 91.9368 55.5016 90.458L54.3586 90.8232C54.8516 92.3662 55.4736 93.8648 56.2187 95.3046L57.2845 94.7531ZM56.1234 96.5056L57.1759 95.4531L56.3273 94.6046L55.2749 95.6571L56.1234 96.5056ZM56.1224 104.771C53.8714 102.523 53.8086 98.818 56.1232 96.5058L55.2751 95.6569C52.4827 98.4462 52.5626 102.912 55.2743 105.62L56.1224 104.771ZM59.2276 107.876L56.1226 104.771L55.2741 105.62L58.3791 108.725L59.2276 107.876ZM67.4932 107.878C65.1811 110.192 61.475 110.127 59.2279 107.877L58.3788 108.725C61.0855 111.435 65.5522 111.519 68.3422 108.726L67.4932 107.878ZM68.5467 106.824L67.4934 107.877L68.342 108.726L69.3952 107.673L68.5467 106.824ZM73.5418 108.498C72.0634 108.026 70.6268 107.43 69.2467 106.715L68.6952 107.781C70.1351 108.526 71.6339 109.148 73.1766 109.641L73.5418 108.498ZM73.9592 110.556V109.07H72.7592V110.556H73.9592ZM79.8033 116.4C76.5815 116.4 73.9592 113.778 73.9592 110.556H72.7592C72.7592 114.441 75.9188 117.6 79.8033 117.6V116.4ZM69.3512 103.458C71.3584 104.645 73.5189 105.542 75.7726 106.123L76.0725 104.961C73.9282 104.408 71.8724 103.555 69.962 102.425L69.3512 103.458ZM67.5865 103.681C67.9402 103.327 68.6607 103.049 69.3512 103.458L69.9621 102.425C68.6693 101.66 67.3601 102.21 66.7381 102.832L67.5865 103.681ZM65.4409 105.826L67.5866 103.68L66.738 102.832L64.5924 104.978L65.4409 105.826ZM61.2801 105.825C62.4105 106.957 64.2762 106.993 65.4412 105.826L64.5921 104.978C63.9049 105.666 62.7999 105.649 62.1292 104.977L61.2801 105.825ZM58.1735 102.719L61.2804 105.825L62.1289 104.977L59.022 101.87L58.1735 102.719ZM58.1745 98.5577C57.0088 99.7221 57.0408 101.587 58.1737 102.719L59.0217 101.87C58.3503 101.199 58.3339 100.095 59.0225 99.4068L58.1745 98.5577ZM60.3193 96.413L58.1743 98.558L59.0228 99.4065L61.1678 97.2615L60.3193 96.413ZM60.5422 94.6486C60.8793 95.2187 60.7876 95.9447 60.3193 96.413L61.1678 97.2615C62.0235 96.4058 62.191 95.0794 61.5751 94.0379L60.5422 94.6486ZM57.8767 88.2272C58.4584 90.4811 59.3553 92.6416 60.5422 94.6487L61.5751 94.0378C60.4455 92.1276 59.5921 90.0718 59.0387 87.9274L57.8767 88.2272ZM56.472 87.1391C57.1336 87.1391 57.7114 87.5866 57.8768 88.2273L59.0387 87.9273C58.7365 86.7569 57.681 85.9391 56.472 85.9391V87.1391ZM53.4441 87.1391H56.472V85.9391H53.4441V87.1391ZM50.5016 84.1967C50.5016 85.8197 51.8212 87.1391 53.4441 87.1391V85.9391C52.4838 85.9391 51.7016 85.1568 51.7016 84.1967H50.5016ZM50.5016 79.8033V84.1967H51.7016V79.8033H50.5016ZM53.444 76.8608C51.8212 76.861 50.5016 78.1803 50.5016 79.8033H51.7016C51.7016 78.8432 52.4838 78.0609 53.4442 78.0608L53.444 76.8608ZM56.4721 76.8608H53.4441V78.0608H56.4721V76.8608ZM57.8769 75.7726C57.7115 76.4133 57.1337 76.8608 56.4721 76.8608V78.0608C57.6809 78.0608 58.7366 77.2431 59.0388 76.0726L57.8769 75.7726ZM60.5424 69.3512C59.3553 71.3583 58.4585 73.5188 57.8769 75.7727L59.0388 76.0725C59.5922 73.9281 60.4455 71.8722 61.5752 69.9621L60.5424 69.3512ZM60.3194 67.5869C60.7877 68.0552 60.8794 68.7811 60.5423 69.3512L61.5753 69.962C62.1911 68.9205 62.0236 67.594 61.1679 66.7383L60.3194 67.5869ZM58.1736 65.4411L60.3194 67.5869L61.1679 66.7383L59.0221 64.5925L58.1736 65.4411ZM58.1747 61.2803C57.0453 62.4083 57.0049 64.2738 58.1738 65.4413L59.0219 64.5923C58.3325 63.9037 58.3523 62.7989 59.0227 62.1293L58.1747 61.2803ZM61.2816 58.1734L58.1744 61.2805L59.0229 62.1291L62.1301 59.022L61.2816 58.1734ZM65.4423 58.1747C64.2798 57.0108 62.4142 57.039 61.2813 58.1738L62.1305 59.0216C62.8014 58.3496 63.9062 58.3348 64.5932 59.0227L65.4423 58.1747ZM67.5869 60.3194L65.442 58.1744L64.5935 59.0229L66.7383 61.1679L67.5869 60.3194ZM69.3515 60.5423C68.781 60.8794 68.0551 60.7877 67.5869 60.3194L66.7383 61.1679C67.594 62.0236 68.9203 62.1911 69.9621 61.5753L69.3515 60.5423ZM75.7728 57.8768C73.5191 58.4584 71.3585 59.3553 69.3513 60.5423L69.9622 61.5752C71.8725 60.4455 73.9284 59.5921 76.0727 59.0387L75.7728 57.8768ZM76.8611 56.472C76.8611 57.1337 76.4135 57.7115 75.7728 57.8767L76.0726 59.0387C77.2432 58.7367 78.0611 57.6809 78.0611 56.472H76.8611ZM76.8611 53.444V56.472H78.0611V53.444H76.8611ZM79.8036 50.5016C78.1807 50.5016 76.8611 51.821 76.8611 53.444H78.0611C78.0611 52.4838 78.8434 51.7016 79.8036 51.7016V50.5016ZM84.1968 50.5016H79.8036V51.7016H84.1968V50.5016ZM87.1393 53.444C87.1393 51.821 85.8197 50.5016 84.1968 50.5016V51.7016C85.1571 51.7016 85.9393 52.4838 85.9393 53.444H87.1393ZM87.1393 56.4723V53.444H85.9393V56.4723H87.1393ZM88.2276 57.877C87.587 57.7117 87.1393 57.134 87.1393 56.4723H85.9393C85.9393 57.6812 86.7572 58.7369 87.9278 59.039L88.2276 57.877ZM94.6491 60.5426C92.6419 59.3556 90.4813 58.4587 88.2276 57.877L87.9278 59.039C90.072 59.5924 92.1279 60.4457 94.0382 61.5755L94.6491 60.5426ZM96.4135 60.3197C95.9452 60.7881 95.219 60.8798 94.6491 60.5427L94.0382 61.5755C95.0796 62.1916 96.4064 62.024 97.2621 61.1681L96.4135 60.3197ZM98.5592 58.1739L96.4135 60.3197L97.2621 61.1682L99.4078 59.0224L98.5592 58.1739ZM102.72 58.175C101.59 57.043 99.724 57.0076 98.5589 58.1741L99.408 59.0221C100.095 58.334 101.2 58.3513 101.871 59.0229L102.72 58.175ZM105.827 61.2816L102.72 58.1747L101.871 59.0232L104.978 62.1301L105.827 61.2816ZM105.826 65.4424C106.991 64.278 106.959 62.4129 105.826 61.2814L104.978 62.1304C105.65 62.801 105.666 63.9055 104.978 64.5934L105.826 65.4424ZM103.681 67.5871L105.826 65.4422L104.977 64.5936L102.832 66.7386L103.681 67.5871ZM103.458 69.3515C103.121 68.7814 103.213 68.0554 103.681 67.5871L102.832 66.7386C101.977 67.5943 101.809 68.9207 102.425 69.9623L103.458 69.3515ZM106.123 75.7729C105.542 73.5191 104.645 71.3585 103.458 69.3515L102.425 69.9623C103.555 71.8725 104.408 73.9284 104.961 76.0728L106.123 75.7729ZM107.528 76.8611C106.866 76.8611 106.289 76.4135 106.123 75.7729L104.961 76.0728C105.264 77.2432 106.319 78.0611 107.528 78.0611V76.8611ZM110.556 76.8611H107.528V78.0611H110.556V76.8611ZM113.499 79.8035C113.499 78.1805 112.179 76.8611 110.556 76.8611V78.0611C111.516 78.0611 112.299 78.8433 112.299 79.8035H113.499ZM113.499 84.1968V79.8035H112.299V84.1968H113.499ZM110.556 87.1392C112.179 87.1392 113.499 85.8198 113.499 84.1968H112.299C112.299 85.157 111.516 85.9392 110.556 85.9392V87.1392ZM107.528 87.1392H110.556V85.9392H107.528V87.1392ZM106.123 88.2274C106.289 87.5867 106.867 87.1392 107.528 87.1392V85.9392C106.319 85.9392 105.264 86.7569 104.961 87.9274L106.123 88.2274ZM103.458 94.6488C104.645 92.6417 105.542 90.4812 106.123 88.2274L104.961 87.9275C104.408 90.0719 103.555 92.1278 102.425 94.0379L103.458 94.6488ZM103.681 96.4131C103.213 95.9448 103.121 95.2189 103.458 94.6488L102.425 94.038C101.809 95.0795 101.977 96.406 102.832 97.2617L103.681 96.4131ZM105.827 98.5589L103.681 96.4131L102.832 97.2617L104.978 99.4075L105.827 98.5589ZM105.826 102.72C106.955 101.592 106.995 99.7261 105.826 98.5587L104.978 99.4077C105.668 100.096 105.648 101.201 104.978 101.871L105.826 102.72ZM102.719 105.827L105.826 102.719L104.977 101.871L101.87 104.978L102.719 105.827ZM98.558 105.825C99.7205 106.989 101.586 106.961 102.719 105.826L101.87 104.978C101.199 105.65 100.094 105.665 99.407 104.977L98.558 105.825ZM96.4134 103.681L98.5582 105.826L99.4068 104.977L97.262 102.832L96.4134 103.681ZM94.6489 103.458C95.2191 103.12 95.945 103.212 96.4134 103.681L97.2619 102.832C96.4061 101.976 95.0798 101.809 94.0381 102.425L94.6489 103.458ZM88.2275 106.123C90.4812 105.542 92.6417 104.645 94.6489 103.458L94.0381 102.425C92.1278 103.555 90.0719 104.408 87.9276 104.961L88.2275 106.123ZM87.1392 107.528C87.1392 106.866 87.5868 106.289 88.2275 106.123L87.9277 104.961C86.7571 105.263 85.9392 106.319 85.9392 107.528H87.1392ZM87.1392 110.556V107.528H85.9392V110.556H87.1392ZM84.1967 113.498C85.8196 113.498 87.1392 112.179 87.1392 110.556H85.9392C85.9392 111.516 85.1569 112.298 84.1967 112.298V113.498ZM79.8035 113.498H84.1967V112.298H79.8035V113.498ZM76.8609 110.556C76.8609 112.179 78.1806 113.498 79.8035 113.498V112.298C78.8432 112.298 78.0609 111.516 78.0609 110.556H76.8609ZM76.8609 107.528V110.556H78.0609V107.528H76.8609ZM75.7727 106.123C76.4133 106.289 76.8609 106.866 76.8609 107.528H78.0609C78.0609 106.319 77.2431 105.263 76.0725 104.961L75.7727 106.123ZM82.0002 96.6305C73.9334 96.6305 67.3697 90.0667 67.3697 82H66.1697C66.1697 90.7295 73.2706 97.8305 82.0002 97.8305V96.6305ZM96.6307 82C96.6307 90.0667 90.0671 96.6305 82.0002 96.6305V97.8305C90.7298 97.8305 97.8307 90.7295 97.8307 82H96.6307ZM82.0002 67.3695C90.0671 67.3695 96.6307 73.9333 96.6307 82H97.8307C97.8307 73.2705 90.7298 66.1695 82.0002 66.1695V67.3695ZM67.3697 82C67.3697 73.9333 73.9334 67.3695 82.0002 67.3695V66.1695C73.2706 66.1695 66.1697 73.2705 66.1697 82H67.3697ZM82.0002 70.2711C75.5322 70.2711 70.2713 75.5321 70.2713 82H71.4713C71.4713 76.1949 76.195 71.4711 82.0002 71.4711V70.2711ZM93.7291 82C93.7291 75.5321 88.4682 70.2711 82.0002 70.2711V71.4711C87.8055 71.4711 92.5291 76.1949 92.5291 82H93.7291ZM82.0002 93.7289C88.4681 93.7289 93.7291 88.4679 93.7291 82H92.5291C92.5291 87.8051 87.8053 92.5289 82.0002 92.5289V93.7289ZM70.2713 82C70.2713 88.4679 75.5324 93.7289 82.0002 93.7289V92.5289C76.1951 92.5289 71.4713 87.8051 71.4713 82H70.2713Z" fill="#1A4D3D" mask="url(#path-3-inside-1)"/>
<defs>
<filter id="filter0_d" x="2" y="2" width="160" height="160" filterUnits="userSpaceOnUse" color-interpolation-filters="sRGB">
<feFlood flood-opacity="0" result="BackgroundImageFix"/>
<feColorMatrix in="SourceAlpha" type="matrix" values="0 0 0 0 0 0 0 0 0 0 0 0 0 0 0 0 0 0 127 0"/>
<feOffset/>
<feGaussianBlur stdDeviation="4"/>
<feColorMatrix type="matrix" values="0 0 0 0 0.301961 0 0 0 0 0.458824 0 0 0 0 0.407843 0 0 0 1 0"/>
<feBlend mode="normal" in2="BackgroundImageFix" result="effect1_dropShadow"/>
<feBlend mode="normal" in="SourceGraphic" in2="effect1_dropShadow" result="shape"/>
</filter>
<linearGradient id="paint0_linear" x1="82" y1="154" x2="82" y2="10" gradientUnits="userSpaceOnUse">
<stop stop-color="#1A4D3D"/>
<stop offset="1" stop-color="#336152"/>
</linearGradient>
</defs>
</svg>
