<svg width="164" height="164" viewBox="0 0 164 164" fill="none" xmlns="http://www.w3.org/2000/svg">
<circle opacity="0.1" cx="82" cy="82" r="82" fill="#1A4D3D"/>
<g filter="url(#filter0_d)">
<circle cx="82" cy="83" r="72" fill="url(#paint0_linear)"/>
</g>
<path fill-rule="evenodd" clip-rule="evenodd" d="M104.75 77.0936H112.75C113.44 77.0936 114 77.6534 114 78.3436V113.75C114 114.44 113.44 115 112.75 115H53.75C51.6823 115 50 113.318 50 111.25V54.75C50 52.6823 51.6823 51 53.75 51H87.2469C87.5784 51 87.8962 51.1317 88.1307 51.3661L100.131 63.3665C100.365 63.601 100.497 63.9189 100.497 64.2504V80.875C100.497 81.5653 99.9373 82.125 99.2469 82.125C98.5565 82.125 97.9969 81.5653 97.9969 80.875V65.5004H89.7469C87.6791 65.5004 85.9969 63.8181 85.9969 61.7504V53.5H53.75C53.0608 53.5 52.5 54.0608 52.5 54.75V111.25C52.5 111.939 53.0608 112.5 53.75 112.5H64.5V102.547C64.5 101.857 65.0596 101.297 65.75 101.297H73.75C74.4404 101.297 75 101.857 75 102.547V112.5H77.5V95.375C77.5 94.6847 78.0596 94.125 78.75 94.125H86.75C87.4404 94.125 88 94.6847 88 95.375V112.5H90.5V86.625C90.5 85.9347 91.0596 85.375 91.75 85.375H99.75C100.44 85.375 101 85.9347 101 86.625V112.5H103.5V95.5682V94.0311V78.3436C103.5 77.6534 104.06 77.0936 104.75 77.0936ZM106 94.0311V95.5682V112.5H108.75H111.5V79.5936H106V94.0311ZM96.2293 63.0004L88.4969 55.2679V61.7504C88.4969 62.4396 89.0575 63.0004 89.7469 63.0004H96.2293ZM67 112.5H72.5V103.797H67V112.5ZM80 112.5H85.5V96.625H80V112.5ZM93 112.5H98.5V87.875H93V112.5ZM66.9471 59.0911C66.9471 58.4009 67.5068 57.8411 68.1971 57.8411C76.4284 57.8411 83.125 64.5378 83.125 72.7691C83.125 73.4594 82.5654 74.0191 81.875 74.0191H79.6265C79.0019 79.7731 74.1144 84.266 68.1971 84.266C61.8578 84.266 56.7003 79.1085 56.7003 72.7691C56.7003 66.8519 61.1933 61.9644 66.9471 61.3398V59.0911ZM59.2003 72.769C59.2003 77.7299 63.2363 81.7659 68.1971 81.7659C72.7338 81.7659 76.497 78.3902 77.1074 74.019H68.1971C67.5068 74.019 66.9471 73.4592 66.9471 72.769V63.8588C62.5759 64.4691 59.2003 68.2324 59.2003 72.769ZM69.4471 71.519V71.5191H80.5626C79.9749 65.6626 75.3036 60.9913 69.4471 60.4035V71.519ZM81.875 87.7812H58C57.3096 87.7812 56.75 88.341 56.75 89.0312C56.75 89.7215 57.3096 90.2812 58 90.2812H81.875C82.5654 90.2812 83.125 89.7215 83.125 89.0312C83.125 88.341 82.5654 87.7812 81.875 87.7812ZM58 93.8125H66C66.6904 93.8125 67.25 94.3722 67.25 95.0625C67.25 95.7528 66.6904 96.3125 66 96.3125H58C57.3096 96.3125 56.75 95.7528 56.75 95.0625C56.75 94.3722 57.3096 93.8125 58 93.8125Z" fill="white"/>
<defs>
<filter id="filter0_d" x="2" y="3" width="160" height="160" filterUnits="userSpaceOnUse" color-interpolation-filters="sRGB">
<feFlood flood-opacity="0" result="BackgroundImageFix"/>
<feColorMatrix in="SourceAlpha" type="matrix" values="0 0 0 0 0 0 0 0 0 0 0 0 0 0 0 0 0 0 127 0"/>
<feOffset/>
<feGaussianBlur stdDeviation="4"/>
<feColorMatrix type="matrix" values="0 0 0 0 0.301961 0 0 0 0 0.458824 0 0 0 0 0.407843 0 0 0 1 0"/>
<feBlend mode="normal" in2="BackgroundImageFix" result="effect1_dropShadow"/>
<feBlend mode="normal" in="SourceGraphic" in2="effect1_dropShadow" result="shape"/>
</filter>
<linearGradient id="paint0_linear" x1="82" y1="155" x2="82" y2="11" gradientUnits="userSpaceOnUse">
<stop stop-color="#1A4D3D"/>
<stop offset="1" stop-color="#336152"/>
</linearGradient>
</defs>
</svg>
