<svg width="164" height="164" viewBox="0 0 164 164" fill="none" xmlns="http://www.w3.org/2000/svg">
<circle opacity="0.1" cx="82" cy="82" r="82" fill="#1A4D3D"/>
<g filter="url(#filter0_d)">
<circle cx="82" cy="83" r="72" fill="url(#paint0_linear)"/>
</g>
<mask id="path-3-outside-1" maskUnits="userSpaceOnUse" x="46" y="50" width="71" height="66" fill="black">
<rect fill="white" x="46" y="50" width="71" height="66"/>
<path fill-rule="evenodd" clip-rule="evenodd" d="M105.958 76.3046V83.0834C112.094 85.5005 116.447 91.4865 116.447 98.4703C116.447 107.585 109.032 115 99.9176 115C95.4808 115 91.4472 113.243 88.4751 110.388H51.2068C49.6961 110.388 48.4671 109.159 48.4671 107.648C48.4671 106.137 49.6962 104.908 51.2068 104.908H55.2705V100.392V99.9105V76.3047L52.2509 78.3134C51.1139 79.0696 49.6447 79.0697 48.5076 78.3134C47.5636 77.6854 47 76.6335 47 75.4997C47 74.3659 47.5636 73.314 48.5076 72.686L60.4881 64.7165V56.5543H60.2056C59.4985 56.5543 58.9232 55.979 58.9232 55.272V52.2823C58.9232 51.5752 59.4985 51 60.2056 51H70.63C71.3371 51 71.9123 51.5752 71.9123 52.2823V55.272C71.9123 55.979 71.3371 56.5543 70.63 56.5543H70.3473V58.1582L79.6558 51.9662C80.238 51.5788 80.9905 51.5788 81.5728 51.9662L104.933 67.5057C104.934 67.5063 104.935 67.5069 104.936 67.5074L105.35 67.7826C105.35 67.7828 105.35 67.7829 105.35 67.7831L112.721 72.686C113.665 73.314 114.228 74.3657 114.228 75.4996C114.228 76.6334 113.665 77.6851 112.721 78.3131C112.152 78.6913 111.501 78.8805 110.849 78.8805C110.197 78.8805 109.546 78.6914 108.977 78.3133L105.958 76.3046ZM104.257 69.4276C104.257 69.4273 104.256 69.427 104.256 69.4267L103.842 69.1515L80.6142 53.7002L49.6013 74.3303C49.2031 74.5952 48.9746 75.0216 48.9746 75.4998C48.9746 75.9781 49.2031 76.4044 49.6013 76.6693C50.0737 76.9836 50.6845 76.9836 51.1572 76.6693L79.6558 57.7118C80.112 57.4084 80.6724 57.3437 81.174 57.516C81.1804 57.5182 81.1869 57.5203 81.1933 57.5224C81.2055 57.5264 81.2177 57.5303 81.2296 57.535C81.2311 57.5355 81.2326 57.5361 81.2341 57.5368C81.2355 57.5374 81.237 57.5381 81.2385 57.5386C81.2751 57.5529 81.3114 57.5681 81.3472 57.5849C81.3521 57.5872 81.3567 57.5899 81.3615 57.5922C81.3953 57.6083 81.4289 57.6253 81.4618 57.6439C81.4653 57.6458 81.4687 57.648 81.4721 57.6501C81.4748 57.6519 81.4776 57.6536 81.4804 57.6553C81.5116 57.6733 81.5426 57.6918 81.5728 57.7118L81.6973 57.7947L105.517 73.6398L105.518 73.6402L110.071 76.669C110.544 76.9833 111.154 76.9833 111.627 76.669C112.025 76.4041 112.254 75.9778 112.254 75.4996C112.254 75.0213 112.025 74.595 111.627 74.3301L104.257 69.4276ZM57.2451 99.9105V74.9912L80.6142 59.4458L103.983 74.9912V82.4451C103.925 82.4303 103.866 82.4167 103.807 82.403C103.779 82.3966 103.751 82.3901 103.723 82.3835C103.686 82.3748 103.65 82.3659 103.613 82.3575C103.515 82.3351 103.417 82.3139 103.319 82.2935C103.265 82.2819 103.21 82.2709 103.155 82.26C103.065 82.2419 102.974 82.2241 102.883 82.2076C102.817 82.1955 102.75 82.1847 102.684 82.1734C102.661 82.1696 102.639 82.1658 102.617 82.162C102.556 82.1517 102.496 82.1414 102.435 82.132C102.294 82.1103 102.152 82.0907 102.01 82.0726C101.945 82.0644 101.88 82.0577 101.815 82.0503C101.723 82.0397 101.63 82.0292 101.538 82.0201C101.471 82.0136 101.404 82.0079 101.337 82.0022C101.244 81.9942 101.151 81.987 101.057 81.9807C100.993 81.9763 100.928 81.972 100.864 81.9683C100.762 81.9625 100.66 81.9582 100.557 81.9542C100.541 81.9536 100.524 81.9529 100.507 81.9522C100.468 81.9506 100.429 81.949 100.39 81.9478C100.241 81.9436 100.092 81.9412 99.9416 81.9409C99.9336 81.9409 99.9255 81.9405 99.9175 81.9405C91.9423 81.9405 85.2682 87.6178 83.7243 95.1431C83.5038 96.2182 83.3879 97.331 83.3879 98.4702C83.3879 98.6091 83.3897 98.748 83.3932 98.8867C83.4317 100.438 83.6852 101.937 84.1247 103.355L84.1259 103.359C84.1407 103.407 84.1561 103.454 84.1715 103.501C84.1767 103.517 84.1818 103.533 84.187 103.549C84.3351 104.009 84.5022 104.463 84.6901 104.908H79.8264V81.9218C79.8264 80.7752 78.8937 79.8426 77.7472 79.8426H63.2699C62.1234 79.8426 61.1907 80.7754 61.1907 81.9218V104.908H57.2451V100.392V99.9105ZM62.4627 63.403L68.3727 59.4718V56.5543H62.4627V63.403ZM69.9377 52.9746H60.8979V54.5797H69.9377V52.9746ZM63.2698 81.8172C63.2121 81.8172 63.1652 81.864 63.1652 81.9218V104.908H77.8518V81.9218C77.8518 81.8642 77.805 81.8172 77.7472 81.8172H63.2698ZM50.4417 107.648C50.4417 108.07 50.785 108.413 51.2068 108.413H86.7119C86.3419 107.922 85.9993 107.412 85.6861 106.883H51.2068C50.785 106.883 50.4417 107.226 50.4417 107.648ZM86.154 103.205C88.1232 108.914 93.5489 113.025 99.9176 113.025C107.943 113.025 114.473 106.496 114.472 98.4701C114.472 91.9854 110.209 86.4785 104.339 84.6024C104.299 84.5898 104.26 84.5767 104.22 84.5643C104.126 84.5352 104.031 84.5071 103.936 84.4797C103.851 84.4554 103.766 84.4323 103.681 84.4096C103.567 84.3789 103.452 84.3497 103.336 84.3218C103.243 84.2993 103.15 84.2777 103.057 84.2571C103.037 84.2528 103.018 84.2485 102.999 84.2442C102.949 84.2333 102.9 84.2223 102.851 84.2122C102.705 84.1824 102.559 84.1554 102.413 84.13C102.351 84.1193 102.289 84.1091 102.228 84.0992C102.072 84.0744 101.916 84.0511 101.759 84.0313C101.735 84.0284 101.712 84.0257 101.688 84.0231C101.672 84.0213 101.656 84.0196 101.64 84.0177C101.497 84.0007 101.353 83.9858 101.209 83.9732C101.192 83.9717 101.175 83.9702 101.158 83.9686C101.133 83.9664 101.109 83.9641 101.085 83.9622C100.916 83.9488 100.746 83.9385 100.577 83.9309C100.544 83.9294 100.511 83.9282 100.478 83.927L100.454 83.9261C100.278 83.9198 100.102 83.9154 99.9259 83.9153L99.9176 83.9152C92.8951 83.9152 87.0183 88.9141 85.6588 95.5405C85.4646 96.4871 85.3626 97.467 85.3626 98.4702C85.3626 98.6119 85.365 98.7535 85.3692 98.895C85.3702 98.931 85.3719 98.9666 85.3733 99.0024C85.3773 99.1129 85.3824 99.2231 85.3889 99.3334C85.3908 99.3662 85.3929 99.3989 85.3951 99.4316C85.4034 99.5556 85.4129 99.6794 85.4243 99.8031L85.4282 99.8477C85.5134 100.743 85.6809 101.629 85.9276 102.49C85.9302 102.499 85.9328 102.508 85.9355 102.517C85.9383 102.526 85.9411 102.535 85.9438 102.545C85.9746 102.651 86.0068 102.756 86.0399 102.861C86.0602 102.925 86.0808 102.988 86.1018 103.051C86.1189 103.103 86.1364 103.154 86.154 103.205ZM73.8655 91.8268C73.8655 91.2835 74.3058 90.8432 74.8492 90.8432C75.3925 90.8432 75.8328 91.2835 75.8328 91.8268V93.8598C75.8328 94.4032 75.3925 94.8435 74.8492 94.8435C74.3058 94.8435 73.8655 94.4032 73.8655 93.8598V91.8268Z"/>
</mask>
<path fill-rule="evenodd" clip-rule="evenodd" d="M105.958 76.3046V83.0834C112.094 85.5005 116.447 91.4865 116.447 98.4703C116.447 107.585 109.032 115 99.9176 115C95.4808 115 91.4472 113.243 88.4751 110.388H51.2068C49.6961 110.388 48.4671 109.159 48.4671 107.648C48.4671 106.137 49.6962 104.908 51.2068 104.908H55.2705V100.392V99.9105V76.3047L52.2509 78.3134C51.1139 79.0696 49.6447 79.0697 48.5076 78.3134C47.5636 77.6854 47 76.6335 47 75.4997C47 74.3659 47.5636 73.314 48.5076 72.686L60.4881 64.7165V56.5543H60.2056C59.4985 56.5543 58.9232 55.979 58.9232 55.272V52.2823C58.9232 51.5752 59.4985 51 60.2056 51H70.63C71.3371 51 71.9123 51.5752 71.9123 52.2823V55.272C71.9123 55.979 71.3371 56.5543 70.63 56.5543H70.3473V58.1582L79.6558 51.9662C80.238 51.5788 80.9905 51.5788 81.5728 51.9662L104.933 67.5057C104.934 67.5063 104.935 67.5069 104.936 67.5074L105.35 67.7826C105.35 67.7828 105.35 67.7829 105.35 67.7831L112.721 72.686C113.665 73.314 114.228 74.3657 114.228 75.4996C114.228 76.6334 113.665 77.6851 112.721 78.3131C112.152 78.6913 111.501 78.8805 110.849 78.8805C110.197 78.8805 109.546 78.6914 108.977 78.3133L105.958 76.3046ZM104.257 69.4276C104.257 69.4273 104.256 69.427 104.256 69.4267L103.842 69.1515L80.6142 53.7002L49.6013 74.3303C49.2031 74.5952 48.9746 75.0216 48.9746 75.4998C48.9746 75.9781 49.2031 76.4044 49.6013 76.6693C50.0737 76.9836 50.6845 76.9836 51.1572 76.6693L79.6558 57.7118C80.112 57.4084 80.6724 57.3437 81.174 57.516C81.1804 57.5182 81.1869 57.5203 81.1933 57.5224C81.2055 57.5264 81.2177 57.5303 81.2296 57.535C81.2311 57.5355 81.2326 57.5361 81.2341 57.5368C81.2355 57.5374 81.237 57.5381 81.2385 57.5386C81.2751 57.5529 81.3114 57.5681 81.3472 57.5849C81.3521 57.5872 81.3567 57.5899 81.3615 57.5922C81.3953 57.6083 81.4289 57.6253 81.4618 57.6439C81.4653 57.6458 81.4687 57.648 81.4721 57.6501C81.4748 57.6519 81.4776 57.6536 81.4804 57.6553C81.5116 57.6733 81.5426 57.6918 81.5728 57.7118L81.6973 57.7947L105.517 73.6398L105.518 73.6402L110.071 76.669C110.544 76.9833 111.154 76.9833 111.627 76.669C112.025 76.4041 112.254 75.9778 112.254 75.4996C112.254 75.0213 112.025 74.595 111.627 74.3301L104.257 69.4276ZM57.2451 99.9105V74.9912L80.6142 59.4458L103.983 74.9912V82.4451C103.925 82.4303 103.866 82.4167 103.807 82.403C103.779 82.3966 103.751 82.3901 103.723 82.3835C103.686 82.3748 103.65 82.3659 103.613 82.3575C103.515 82.3351 103.417 82.3139 103.319 82.2935C103.265 82.2819 103.21 82.2709 103.155 82.26C103.065 82.2419 102.974 82.2241 102.883 82.2076C102.817 82.1955 102.75 82.1847 102.684 82.1734C102.661 82.1696 102.639 82.1658 102.617 82.162C102.556 82.1517 102.496 82.1414 102.435 82.132C102.294 82.1103 102.152 82.0907 102.01 82.0726C101.945 82.0644 101.88 82.0577 101.815 82.0503C101.723 82.0397 101.63 82.0292 101.538 82.0201C101.471 82.0136 101.404 82.0079 101.337 82.0022C101.244 81.9942 101.151 81.987 101.057 81.9807C100.993 81.9763 100.928 81.972 100.864 81.9683C100.762 81.9625 100.66 81.9582 100.557 81.9542C100.541 81.9536 100.524 81.9529 100.507 81.9522C100.468 81.9506 100.429 81.949 100.39 81.9478C100.241 81.9436 100.092 81.9412 99.9416 81.9409C99.9336 81.9409 99.9255 81.9405 99.9175 81.9405C91.9423 81.9405 85.2682 87.6178 83.7243 95.1431C83.5038 96.2182 83.3879 97.331 83.3879 98.4702C83.3879 98.6091 83.3897 98.748 83.3932 98.8867C83.4317 100.438 83.6852 101.937 84.1247 103.355L84.1259 103.359C84.1407 103.407 84.1561 103.454 84.1715 103.501C84.1767 103.517 84.1818 103.533 84.187 103.549C84.3351 104.009 84.5022 104.463 84.6901 104.908H79.8264V81.9218C79.8264 80.7752 78.8937 79.8426 77.7472 79.8426H63.2699C62.1234 79.8426 61.1907 80.7754 61.1907 81.9218V104.908H57.2451V100.392V99.9105ZM62.4627 63.403L68.3727 59.4718V56.5543H62.4627V63.403ZM69.9377 52.9746H60.8979V54.5797H69.9377V52.9746ZM63.2698 81.8172C63.2121 81.8172 63.1652 81.864 63.1652 81.9218V104.908H77.8518V81.9218C77.8518 81.8642 77.805 81.8172 77.7472 81.8172H63.2698ZM50.4417 107.648C50.4417 108.07 50.785 108.413 51.2068 108.413H86.7119C86.3419 107.922 85.9993 107.412 85.6861 106.883H51.2068C50.785 106.883 50.4417 107.226 50.4417 107.648ZM86.154 103.205C88.1232 108.914 93.5489 113.025 99.9176 113.025C107.943 113.025 114.473 106.496 114.472 98.4701C114.472 91.9854 110.209 86.4785 104.339 84.6024C104.299 84.5898 104.26 84.5767 104.22 84.5643C104.126 84.5352 104.031 84.5071 103.936 84.4797C103.851 84.4554 103.766 84.4323 103.681 84.4096C103.567 84.3789 103.452 84.3497 103.336 84.3218C103.243 84.2993 103.15 84.2777 103.057 84.2571C103.037 84.2528 103.018 84.2485 102.999 84.2442C102.949 84.2333 102.9 84.2223 102.851 84.2122C102.705 84.1824 102.559 84.1554 102.413 84.13C102.351 84.1193 102.289 84.1091 102.228 84.0992C102.072 84.0744 101.916 84.0511 101.759 84.0313C101.735 84.0284 101.712 84.0257 101.688 84.0231C101.672 84.0213 101.656 84.0196 101.64 84.0177C101.497 84.0007 101.353 83.9858 101.209 83.9732C101.192 83.9717 101.175 83.9702 101.158 83.9686C101.133 83.9664 101.109 83.9641 101.085 83.9622C100.916 83.9488 100.746 83.9385 100.577 83.9309C100.544 83.9294 100.511 83.9282 100.478 83.927L100.454 83.9261C100.278 83.9198 100.102 83.9154 99.9259 83.9153L99.9176 83.9152C92.8951 83.9152 87.0183 88.9141 85.6588 95.5405C85.4646 96.4871 85.3626 97.467 85.3626 98.4702C85.3626 98.6119 85.365 98.7535 85.3692 98.895C85.3702 98.931 85.3719 98.9666 85.3733 99.0024C85.3773 99.1129 85.3824 99.2231 85.3889 99.3334C85.3908 99.3662 85.3929 99.3989 85.3951 99.4316C85.4034 99.5556 85.4129 99.6794 85.4243 99.8031L85.4282 99.8477C85.5134 100.743 85.6809 101.629 85.9276 102.49C85.9302 102.499 85.9328 102.508 85.9355 102.517C85.9383 102.526 85.9411 102.535 85.9438 102.545C85.9746 102.651 86.0068 102.756 86.0399 102.861C86.0602 102.925 86.0808 102.988 86.1018 103.051C86.1189 103.103 86.1364 103.154 86.154 103.205ZM73.8655 91.8268C73.8655 91.2835 74.3058 90.8432 74.8492 90.8432C75.3925 90.8432 75.8328 91.2835 75.8328 91.8268V93.8598C75.8328 94.4032 75.3925 94.8435 74.8492 94.8435C74.3058 94.8435 73.8655 94.4032 73.8655 93.8598V91.8268Z" fill="white"/>
<path d="M105.958 83.0834H105.558V83.3558L105.811 83.4556L105.958 83.0834ZM105.958 76.3046L106.179 75.9715L105.558 75.5581V76.3046H105.958ZM88.4751 110.388L88.7522 110.099L88.6361 109.988H88.4751V110.388ZM55.2705 104.908V105.308H55.6705V104.908H55.2705ZM55.2705 76.3047H55.6705V75.5582L55.0489 75.9717L55.2705 76.3047ZM52.2509 78.3134L52.4724 78.6465L52.4724 78.6464L52.2509 78.3134ZM48.5076 78.3134L48.2861 78.6464L48.2861 78.6464L48.5076 78.3134ZM48.5076 72.686L48.2861 72.353L48.2861 72.353L48.5076 72.686ZM60.4881 64.7165L60.7096 65.0496L60.8881 64.9308V64.7165H60.4881ZM60.4881 56.5543H60.8881V56.1543H60.4881V56.5543ZM70.3473 56.5543V56.1543H69.9473V56.5543H70.3473ZM70.3473 58.1582H69.9473V58.9047L70.5688 58.4913L70.3473 58.1582ZM79.6558 51.9662L79.8774 52.2992L79.8774 52.2992L79.6558 51.9662ZM81.5728 51.9662L81.3512 52.2992L81.3513 52.2992L81.5728 51.9662ZM104.933 67.5057L104.712 67.8388L104.713 67.8395L104.933 67.5057ZM104.936 67.5074L105.158 67.1744L105.158 67.1744L104.936 67.5074ZM105.35 67.7826L105.572 67.4498L105.571 67.4496L105.35 67.7826ZM105.35 67.7831L105.127 68.1146L105.129 68.1161L105.35 67.7831ZM112.721 72.686L112.942 72.353V72.353L112.721 72.686ZM112.721 78.3131L112.942 78.6462L112.721 78.3131ZM108.977 78.3133L109.199 77.9802L109.199 77.9802L108.977 78.3133ZM104.256 69.4267L104.034 69.7598L104.035 69.7604L104.256 69.4267ZM104.257 69.4276L104.479 69.0946L104.478 69.0939L104.257 69.4276ZM103.842 69.1515L104.064 68.8185L104.064 68.8185L103.842 69.1515ZM80.6142 53.7002L80.8358 53.3671L80.6142 53.2198L80.3927 53.3671L80.6142 53.7002ZM49.6013 74.3303L49.8228 74.6634L49.8228 74.6634L49.6013 74.3303ZM49.6013 76.6693L49.8228 76.3363L49.8228 76.3363L49.6013 76.6693ZM51.1572 76.6693L51.3787 77.0024L51.3787 77.0024L51.1572 76.6693ZM79.6558 57.7118L79.4343 57.3788L79.4343 57.3788L79.6558 57.7118ZM81.174 57.516L81.0441 57.8943L81.0442 57.8943L81.174 57.516ZM81.1933 57.5224L81.3177 57.1422L81.3177 57.1422L81.1933 57.5224ZM81.2296 57.535L81.0858 57.9083L81.0931 57.9109L81.2296 57.535ZM81.2341 57.5368L81.0725 57.9027L81.0725 57.9027L81.2341 57.5368ZM81.2385 57.5386L81.3835 57.1657L81.3753 57.1628L81.2385 57.5386ZM81.3472 57.5849L81.518 57.2232L81.5173 57.2228L81.3472 57.5849ZM81.3615 57.5922L81.1868 57.952L81.189 57.9531L81.3615 57.5922ZM81.4618 57.6439L81.6587 57.2957L81.6583 57.2954L81.4618 57.6439ZM81.4721 57.6501L81.2582 57.9881L81.2583 57.9882L81.4721 57.6501ZM81.4804 57.6553L81.2778 58.0002L81.2802 58.0015L81.4804 57.6553ZM81.5728 57.7118L81.7944 57.3788L81.794 57.3785L81.5728 57.7118ZM81.6973 57.7947L81.4757 58.1277L81.4758 58.1278L81.6973 57.7947ZM105.517 73.6398L105.756 73.319L105.748 73.3127L105.739 73.3068L105.517 73.6398ZM105.518 73.6402L105.279 73.961L105.288 73.9674L105.296 73.9733L105.518 73.6402ZM110.071 76.669L109.85 77.0021L109.85 77.0021L110.071 76.669ZM111.627 76.669L111.849 77.0021L111.849 77.0021L111.627 76.669ZM111.627 74.3301L111.406 74.6631L111.406 74.6631L111.627 74.3301ZM57.2451 74.9912L57.0236 74.6581L56.8451 74.7768V74.9912H57.2451ZM80.6142 59.4458L80.8358 59.1128L80.6142 58.9654L80.3927 59.1128L80.6142 59.4458ZM103.983 74.9912H104.383V74.7768L104.205 74.6581L103.983 74.9912ZM103.983 82.4451L103.885 82.8329L104.383 82.9586V82.4451H103.983ZM103.807 82.403L103.717 82.7928L103.717 82.7928L103.807 82.403ZM103.723 82.3835L103.631 82.7727L103.631 82.7728L103.723 82.3835ZM103.613 82.3575L103.524 82.7474L103.524 82.7474L103.613 82.3575ZM103.319 82.2935L103.237 82.6848L103.238 82.685L103.319 82.2935ZM103.155 82.26L103.234 81.8678L103.234 81.8677L103.155 82.26ZM102.883 82.2076L102.811 82.6011L102.812 82.6011L102.883 82.2076ZM102.684 82.1734L102.751 81.779L102.75 81.779L102.684 82.1734ZM102.617 82.162L102.549 82.5563H102.549L102.617 82.162ZM102.435 82.132L102.374 82.5274L102.374 82.5274L102.435 82.132ZM102.01 82.0726L101.959 82.4694L101.96 82.4695L102.01 82.0726ZM101.815 82.0503L101.769 82.4476L101.769 82.4477L101.815 82.0503ZM101.538 82.0201L101.577 81.6221L101.576 81.622L101.538 82.0201ZM101.337 82.0022L101.302 82.4008L101.303 82.4008L101.337 82.0022ZM101.057 81.9807L101.084 81.5816L101.084 81.5816L101.057 81.9807ZM100.864 81.9683L100.841 82.3677L100.841 82.3677L100.864 81.9683ZM100.557 81.9542L100.542 82.3539L100.542 82.3539L100.557 81.9542ZM100.507 81.9522L100.49 82.3518H100.49L100.507 81.9522ZM100.39 81.9478L100.402 81.548L100.402 81.548L100.39 81.9478ZM99.9416 81.9409L99.9423 81.5409H99.9416V81.9409ZM83.7243 95.1431L83.3325 95.0627L83.7243 95.1431ZM83.3932 98.8867L83.7931 98.8768L83.7931 98.8766L83.3932 98.8867ZM84.1247 103.355L84.5099 103.247L84.5068 103.237L84.1247 103.355ZM84.1259 103.359L83.7407 103.468L83.7439 103.478L84.1259 103.359ZM84.1715 103.501L83.7913 103.625L83.7913 103.625L84.1715 103.501ZM84.187 103.549L84.5677 103.426L84.5674 103.425L84.187 103.549ZM84.6901 104.908V105.308H85.2929L85.0586 104.753L84.6901 104.908ZM79.8264 104.908H79.4264V105.308H79.8264V104.908ZM61.1907 104.908V105.308H61.5907V104.908H61.1907ZM57.2451 104.908H56.8451V105.308H57.2451V104.908ZM68.3727 59.4718L68.5942 59.8048L68.7727 59.6861V59.4718H68.3727ZM62.4627 63.403H62.0627V64.1495L62.6843 63.736L62.4627 63.403ZM68.3727 56.5543H68.7727V56.1543H68.3727V56.5543ZM62.4627 56.5543V56.1543H62.0627V56.5543H62.4627ZM60.8979 52.9746V52.5746H60.4979V52.9746H60.8979ZM69.9377 52.9746H70.3377V52.5746H69.9377V52.9746ZM60.8979 54.5797H60.4979V54.9797H60.8979V54.5797ZM69.9377 54.5797V54.9797H70.3377V54.5797H69.9377ZM63.1652 104.908H62.7652V105.308H63.1652V104.908ZM77.8518 104.908V105.308H78.2518V104.908H77.8518ZM86.7119 108.413V108.813H87.5145L87.0313 108.172L86.7119 108.413ZM85.6861 106.883L86.0302 106.679L85.914 106.483H85.6861V106.883ZM86.154 103.205L85.7757 103.335L85.7759 103.336L86.154 103.205ZM114.472 98.4701H114.072V98.4701L114.472 98.4701ZM104.339 84.6024L104.461 84.2214L104.46 84.2212L104.339 84.6024ZM104.22 84.5643L104.338 84.1823L104.338 84.1822L104.22 84.5643ZM103.936 84.4797L104.047 84.0954L104.046 84.0951L103.936 84.4797ZM103.681 84.4096L103.577 84.7959L103.578 84.796L103.681 84.4096ZM103.336 84.3218L103.43 83.933L103.43 83.933L103.336 84.3218ZM103.057 84.2571L103.143 83.8665L103.143 83.8664L103.057 84.2571ZM102.999 84.2442L103.086 83.8538H103.086L102.999 84.2442ZM102.851 84.2122L102.77 84.6041L102.771 84.6041L102.851 84.2122ZM102.413 84.13L102.344 84.5241L102.344 84.5241L102.413 84.13ZM102.228 84.0992L102.291 83.7042L102.29 83.7042L102.228 84.0992ZM101.759 84.0313L101.809 83.6344L101.808 83.6343L101.759 84.0313ZM101.688 84.0231L101.644 84.4207L101.644 84.4207L101.688 84.0231ZM101.64 84.0177L101.593 84.4149L101.594 84.415L101.64 84.0177ZM101.209 83.9732L101.244 83.5747L101.243 83.5747L101.209 83.9732ZM101.158 83.9686L101.194 83.5703H101.194L101.158 83.9686ZM101.085 83.9622L101.053 84.361L101.054 84.361L101.085 83.9622ZM100.577 83.9309L100.558 84.3305L100.559 84.3305L100.577 83.9309ZM100.478 83.927L100.463 84.3268L100.464 84.3268L100.478 83.927ZM100.454 83.9261L100.439 84.3259L100.439 84.3259L100.454 83.9261ZM99.9259 83.9153L99.9194 84.3153L99.9256 84.3153L99.9259 83.9153ZM99.9176 83.9152L99.9241 83.5152H99.9176V83.9152ZM85.6588 95.5405L86.0506 95.6209V95.6209L85.6588 95.5405ZM85.3692 98.895L85.7691 98.8844L85.769 98.8831L85.3692 98.895ZM85.3733 99.0024L85.773 98.9877L85.773 98.9873L85.3733 99.0024ZM85.3889 99.3334L85.7882 99.3103L85.7882 99.3098L85.3889 99.3334ZM85.3951 99.4316L84.996 99.4581L84.996 99.4582L85.3951 99.4316ZM85.4243 99.8031L85.8227 99.768L85.8226 99.7664L85.4243 99.8031ZM85.4282 99.8477L85.0298 99.8829L85.03 99.8856L85.4282 99.8477ZM85.9276 102.49L86.3125 102.381L86.3122 102.38L85.9276 102.49ZM85.9355 102.517L85.5526 102.633L85.5526 102.633L85.9355 102.517ZM85.9438 102.545L86.3279 102.433L86.3278 102.433L85.9438 102.545ZM86.0399 102.861L85.6584 102.981L85.6588 102.982L86.0399 102.861ZM86.1018 103.051L86.4816 102.926L86.4813 102.925L86.1018 103.051ZM106.358 83.0834V76.3046H105.558V83.0834H106.358ZM116.847 98.4703C116.847 91.3163 112.388 85.1864 106.104 82.7113L105.811 83.4556C111.8 85.8146 116.047 91.6568 116.047 98.4703H116.847ZM99.9176 115.4C109.253 115.4 116.847 107.806 116.847 98.4703H116.047C116.047 107.364 108.811 114.6 99.9176 114.6V115.4ZM88.198 110.676C91.2413 113.599 95.3731 115.4 99.9176 115.4V114.6C95.5886 114.6 91.6531 112.886 88.7522 110.099L88.198 110.676ZM51.2068 110.788H88.4751V109.988H51.2068V110.788ZM48.0671 107.648C48.0671 109.379 49.4752 110.788 51.2068 110.788V109.988C49.917 109.988 48.8671 108.938 48.8671 107.648H48.0671ZM51.2068 104.508C49.4753 104.508 48.0671 105.916 48.0671 107.648H48.8671C48.8671 106.358 49.9171 105.308 51.2068 105.308V104.508ZM55.2705 104.508H51.2068V105.308H55.2705V104.508ZM54.8705 100.392V104.908H55.6705V100.392H54.8705ZM54.8705 99.9105V100.392H55.6705V99.9105H54.8705ZM54.8705 76.3047V99.9105H55.6705V76.3047H54.8705ZM52.4724 78.6464L55.492 76.6378L55.0489 75.9717L52.0293 77.9803L52.4724 78.6464ZM48.2861 78.6464C49.5574 79.492 51.2013 79.4919 52.4724 78.6465L52.0293 77.9803C51.0266 78.6473 49.732 78.6474 48.7292 77.9803L48.2861 78.6464ZM46.6 75.4997C46.6 76.7674 47.2306 77.9443 48.2861 78.6464L48.7292 77.9804C47.8966 77.4265 47.4 76.4996 47.4 75.4997H46.6ZM48.2861 72.353C47.2306 73.0551 46.6 74.232 46.6 75.4997H47.4C47.4 74.4998 47.8966 73.5729 48.7292 73.019L48.2861 72.353ZM60.2666 64.3835L48.2861 72.353L48.7292 73.019L60.7096 65.0496L60.2666 64.3835ZM60.0881 56.5543V64.7165H60.8881V56.5543H60.0881ZM60.2056 56.9543H60.4881V56.1543H60.2056V56.9543ZM58.5232 55.272C58.5232 56.2 59.2776 56.9543 60.2056 56.9543V56.1543C59.7194 56.1543 59.3232 55.7581 59.3232 55.272H58.5232ZM58.5232 52.2823V55.272H59.3232V52.2823H58.5232ZM60.2056 50.6C59.2776 50.6 58.5232 51.3543 58.5232 52.2823H59.3232C59.3232 51.7962 59.7194 51.4 60.2056 51.4V50.6ZM70.63 50.6H60.2056V51.4H70.63V50.6ZM72.3123 52.2823C72.3123 51.3543 71.558 50.6 70.63 50.6V51.4C71.1161 51.4 71.5123 51.7962 71.5123 52.2823H72.3123ZM72.3123 55.272V52.2823H71.5123V55.272H72.3123ZM70.63 56.9543C71.558 56.9543 72.3123 56.2 72.3123 55.272H71.5123C71.5123 55.7581 71.1161 56.1543 70.63 56.1543V56.9543ZM70.3473 56.9543H70.63V56.1543H70.3473V56.9543ZM70.7473 58.1582V56.5543H69.9473V58.1582H70.7473ZM79.4343 51.6331L70.1258 57.8252L70.5688 58.4913L79.8774 52.2992L79.4343 51.6331ZM81.7944 51.6331C81.0779 51.1565 80.1506 51.1564 79.4342 51.6331L79.8774 52.2992C80.3253 52.0011 80.9031 52.0011 81.3512 52.2992L81.7944 51.6331ZM105.155 67.1727L81.7943 51.6331L81.3513 52.2992L104.712 67.8388L105.155 67.1727ZM105.158 67.1744C105.156 67.1736 105.155 67.1728 105.154 67.172L104.713 67.8395C104.713 67.8398 104.714 67.8401 104.714 67.8405L105.158 67.1744ZM105.571 67.4496L105.158 67.1744L104.714 67.8405L105.128 68.1157L105.571 67.4496ZM105.574 67.4516C105.573 67.4505 105.571 67.4497 105.571 67.4495C105.57 67.449 105.571 67.4495 105.572 67.4498L105.128 68.1155C105.128 68.1159 105.129 68.1166 105.129 68.1162C105.129 68.1161 105.128 68.1155 105.127 68.1146L105.574 67.4516ZM112.942 72.353L105.572 67.4501L105.129 68.1161L112.499 73.019L112.942 72.353ZM114.628 75.4996C114.628 74.2319 113.998 73.0551 112.942 72.353L112.499 73.019C113.332 73.5729 113.828 74.4996 113.828 75.4996H114.628ZM112.942 78.6462C113.998 77.944 114.628 76.7673 114.628 75.4996H113.828C113.828 76.4995 113.332 77.4262 112.499 77.9801L112.942 78.6462ZM110.849 79.2805C111.578 79.2805 112.307 79.0687 112.942 78.6462L112.499 77.9801C111.997 78.3139 111.423 78.4805 110.849 78.4805V79.2805ZM108.756 78.6463C109.391 79.0688 110.12 79.2805 110.849 79.2805V78.4805C110.275 78.4805 109.701 78.314 109.199 77.9802L108.756 78.6463ZM105.736 76.6376L108.756 78.6463L109.199 77.9802L106.179 75.9715L105.736 76.6376ZM104.035 69.7604C104.035 69.7601 104.035 69.7599 104.035 69.7601C104.035 69.7602 104.036 69.7607 104.037 69.7613L104.478 69.0939C104.478 69.0942 104.479 69.0944 104.478 69.0942C104.478 69.0941 104.477 69.0936 104.477 69.093L104.035 69.7604ZM103.621 69.4845L104.034 69.7598L104.478 69.0937L104.064 68.8185L103.621 69.4845ZM80.3927 54.0332L103.621 69.4846L104.064 68.8185L80.8358 53.3671L80.3927 54.0332ZM49.8228 74.6634L80.8358 54.0332L80.3927 53.3671L49.3797 73.9973L49.8228 74.6634ZM49.3746 75.4998C49.3746 75.1554 49.5361 74.8541 49.8228 74.6634L49.3797 73.9973C48.87 74.3364 48.5746 74.8877 48.5746 75.4998H49.3746ZM49.8228 76.3363C49.5361 76.1455 49.3746 75.8442 49.3746 75.4998H48.5746C48.5746 76.112 48.87 76.6633 49.3797 77.0024L49.8228 76.3363ZM50.9357 76.3362C50.5972 76.5613 50.161 76.5612 49.8228 76.3363L49.3797 77.0023C49.9864 77.4059 50.7718 77.4059 51.3787 77.0024L50.9357 76.3362ZM79.4343 57.3788L50.9357 76.3363L51.3787 77.0024L79.8774 58.0449L79.4343 57.3788ZM81.3039 57.1377C80.6865 56.9256 79.9958 57.0053 79.4343 57.3788L79.8774 58.0449C80.2281 57.8116 80.6584 57.7618 81.0441 57.8943L81.3039 57.1377ZM81.3177 57.1422C81.3108 57.1399 81.3071 57.1387 81.3039 57.1376L81.0442 57.8943C81.0538 57.8976 81.063 57.9006 81.069 57.9026L81.3177 57.1422ZM81.3734 57.1617C81.3502 57.1528 81.3283 57.1457 81.3177 57.1422L81.069 57.9026C81.0755 57.9047 81.0791 57.9059 81.0823 57.907C81.0852 57.908 81.0861 57.9083 81.0858 57.9082L81.3734 57.1617ZM81.3956 57.1709C81.3955 57.1708 81.3916 57.1691 81.3873 57.1673C81.3826 57.1653 81.3753 57.1623 81.3662 57.159L81.0931 57.9109C81.0855 57.9082 81.0796 57.9058 81.0764 57.9044C81.0735 57.9032 81.0712 57.9021 81.0725 57.9027L81.3956 57.1709ZM81.3753 57.1628C81.3828 57.1655 81.3885 57.1679 81.3917 57.1692C81.3945 57.1704 81.3968 57.1714 81.3956 57.1709L81.0725 57.9027C81.0727 57.9028 81.0765 57.9045 81.0808 57.9063C81.0854 57.9083 81.0927 57.9112 81.1016 57.9145L81.3753 57.1628ZM81.5173 57.2228C81.4712 57.2012 81.4261 57.1824 81.3834 57.1658L81.0935 57.9114C81.124 57.9233 81.1516 57.9349 81.1772 57.9469L81.5173 57.2228ZM81.5362 57.2324C81.5397 57.2341 81.5423 57.2354 81.5432 57.2359C81.5438 57.2362 81.5444 57.2365 81.5424 57.2355C81.5411 57.2348 81.5379 57.2331 81.5341 57.2311C81.5301 57.229 81.5246 57.2263 81.518 57.2232L81.1764 57.9466C81.1723 57.9446 81.1692 57.9431 81.1676 57.9422C81.1662 57.9415 81.1653 57.941 81.1664 57.9416C81.1668 57.9418 81.1698 57.9434 81.1727 57.9449C81.1759 57.9466 81.1809 57.9492 81.1868 57.952L81.5362 57.2324ZM81.6583 57.2954C81.6148 57.2709 81.5726 57.2497 81.534 57.2313L81.189 57.9531C81.218 57.9669 81.2429 57.9796 81.2654 57.9923L81.6583 57.2954ZM81.6859 57.3121C81.6841 57.3109 81.6722 57.3033 81.6587 57.2957L81.265 57.9921C81.261 57.9898 81.2582 57.9881 81.2572 57.9875C81.2565 57.9871 81.2561 57.9868 81.2582 57.9881L81.6859 57.3121ZM81.683 57.3104C81.6853 57.3117 81.6868 57.3127 81.6872 57.3129C81.6874 57.313 81.6874 57.313 81.6858 57.312L81.2583 57.9882C81.2602 57.9894 81.2685 57.9947 81.2778 58.0002L81.683 57.3104ZM81.794 57.3785C81.7536 57.3518 81.7145 57.3286 81.6807 57.309L81.2802 58.0015C81.3088 58.0181 81.3315 58.0318 81.3516 58.0451L81.794 57.3785ZM81.9189 57.4617L81.7944 57.3788L81.3512 58.0448L81.4757 58.1277L81.9189 57.4617ZM105.739 73.3068L81.9189 57.4617L81.4758 58.1278L105.296 73.9729L105.739 73.3068ZM105.757 73.3194L105.756 73.319L105.279 73.9606L105.279 73.961L105.757 73.3194ZM110.293 76.336L105.74 73.3072L105.296 73.9733L109.85 77.0021L110.293 76.336ZM111.406 76.3359C111.067 76.561 110.631 76.561 110.293 76.336L109.85 77.0021C110.456 77.4056 111.242 77.4056 111.849 77.0021L111.406 76.3359ZM111.854 75.4996C111.854 75.8439 111.692 76.1452 111.406 76.336L111.849 77.0021C112.358 76.663 112.654 76.1117 112.654 75.4996H111.854ZM111.406 74.6631C111.692 74.8539 111.854 75.1552 111.854 75.4996H112.654C112.654 74.8874 112.358 74.3361 111.849 73.997L111.406 74.6631ZM104.036 69.7607L111.406 74.6631L111.849 73.997L104.479 69.0946L104.036 69.7607ZM57.6451 99.9105V74.9912H56.8451V99.9105H57.6451ZM57.4666 75.3242L80.8358 59.7789L80.3927 59.1128L57.0236 74.6581L57.4666 75.3242ZM80.3927 59.7789L103.762 75.3242L104.205 74.6581L80.8358 59.1128L80.3927 59.7789ZM103.583 74.9912V82.4451H104.383V74.9912H103.583ZM104.081 82.0573C104.018 82.0413 103.955 82.0268 103.897 82.0133L103.717 82.7928C103.776 82.8065 103.831 82.8193 103.885 82.8329L104.081 82.0573ZM103.897 82.0133C103.869 82.0068 103.842 82.0006 103.815 81.9942L103.631 82.7728C103.66 82.7797 103.689 82.7863 103.717 82.7928L103.897 82.0133ZM103.815 81.9943C103.783 81.9866 103.741 81.9764 103.702 81.9676L103.524 82.7474C103.559 82.7554 103.59 82.763 103.631 82.7727L103.815 81.9943ZM103.702 81.9676C103.601 81.9445 103.501 81.9228 103.401 81.9019L103.238 82.685C103.334 82.7051 103.429 82.7257 103.524 82.7474L103.702 81.9676ZM103.402 81.9021C103.345 81.8901 103.288 81.8787 103.234 81.8678L103.077 82.6521C103.132 82.6632 103.185 82.6738 103.237 82.6848L103.402 81.9021ZM103.234 81.8677C103.142 81.8495 103.049 81.8312 102.955 81.814L102.812 82.6011C102.899 82.6171 102.987 82.6343 103.077 82.6523L103.234 81.8677ZM102.955 81.8141C102.885 81.8014 102.814 81.7897 102.751 81.779L102.617 82.5678C102.687 82.5796 102.748 82.5896 102.811 82.6011L102.955 81.8141ZM102.75 81.779C102.728 81.7753 102.706 81.7715 102.684 81.7677L102.549 82.5563C102.572 82.5601 102.595 82.564 102.617 82.5679L102.75 81.779ZM102.684 81.7677C102.624 81.7575 102.56 81.7466 102.496 81.7367L102.374 82.5274C102.431 82.5361 102.488 82.5459 102.549 82.5563L102.684 81.7677ZM102.496 81.7367C102.351 81.7144 102.206 81.6942 102.06 81.6758L101.96 82.4695C102.099 82.4871 102.237 82.5063 102.374 82.5274L102.496 81.7367ZM102.061 81.6758C101.993 81.6672 101.919 81.6595 101.86 81.6529L101.769 82.4477C101.841 82.4559 101.898 82.4615 101.959 82.4694L102.061 81.6758ZM101.861 81.6529C101.768 81.6423 101.673 81.6315 101.577 81.6221L101.499 82.4182C101.588 82.427 101.677 82.4371 101.769 82.4476L101.861 81.6529ZM101.576 81.622C101.507 81.6152 101.437 81.6093 101.37 81.6037L101.303 82.4008C101.37 82.4065 101.435 82.412 101.499 82.4183L101.576 81.622ZM101.371 81.6037C101.276 81.5955 101.18 81.5881 101.084 81.5816L101.03 82.3797C101.121 82.386 101.212 82.393 101.302 82.4008L101.371 81.6037ZM101.084 81.5816C101.02 81.5773 100.953 81.5728 100.886 81.569L100.841 82.3677C100.903 82.3712 100.966 82.3754 101.03 82.3798L101.084 81.5816ZM100.887 81.569C100.781 81.5629 100.676 81.5585 100.573 81.5545L100.542 82.3539C100.643 82.3578 100.743 82.3621 100.841 82.3677L100.887 81.569ZM100.573 81.5545C100.557 81.5539 100.54 81.5532 100.523 81.5525L100.49 82.3518C100.507 82.3525 100.524 82.3532 100.542 82.3539L100.573 81.5545ZM100.523 81.5525C100.485 81.5509 100.444 81.5492 100.402 81.548L100.379 82.3477C100.415 82.3487 100.451 82.3502 100.49 82.3518L100.523 81.5525ZM100.402 81.548C100.249 81.5437 100.096 81.5412 99.9423 81.5409L99.9409 82.3409C100.087 82.3412 100.233 82.3436 100.379 82.3477L100.402 81.548ZM99.9416 81.5409C99.9435 81.5409 99.9446 81.541 99.9396 81.5409C99.9365 81.5408 99.9274 81.5405 99.9175 81.5405V82.3405C99.9156 82.3405 99.9145 82.3405 99.9194 82.3406C99.9226 82.3407 99.9317 82.3409 99.9416 82.3409V81.5409ZM99.9175 81.5405C91.7483 81.5405 84.9137 87.3554 83.3325 95.0627L84.1161 95.2235C85.6227 87.8802 92.1363 82.3405 99.9175 82.3405V81.5405ZM83.3325 95.0627C83.1065 96.1641 82.9879 97.3038 82.9879 98.4702H83.7879C83.7879 97.3581 83.901 96.2723 84.1161 95.2235L83.3325 95.0627ZM82.9879 98.4702C82.9879 98.6125 82.9897 98.7548 82.9933 98.8969L83.7931 98.8766C83.7896 98.7412 83.7879 98.6057 83.7879 98.4702H82.9879ZM82.9933 98.8967C83.0328 100.485 83.2924 102.021 83.7426 103.473L84.5068 103.237C84.0781 101.853 83.8307 100.391 83.7931 98.8768L82.9933 98.8967ZM83.7397 103.463L83.7409 103.468L84.511 103.251L84.5098 103.247L83.7397 103.463ZM83.7439 103.478C83.7597 103.529 83.776 103.579 83.7913 103.625L84.5518 103.377C84.5362 103.329 84.5217 103.285 84.5079 103.241L83.7439 103.478ZM83.7913 103.625C83.7965 103.641 83.8015 103.657 83.8065 103.672L84.5674 103.425C84.5622 103.409 84.5569 103.393 84.5518 103.377L83.7913 103.625ZM83.8062 103.671C83.9577 104.142 84.1288 104.607 84.3215 105.064L85.0586 104.753C84.8756 104.319 84.7125 103.876 84.5677 103.426L83.8062 103.671ZM84.6901 104.508H79.8264V105.308H84.6901V104.508ZM80.2264 104.908V81.9218H79.4264V104.908H80.2264ZM80.2264 81.9218C80.2264 80.5543 79.1146 79.4426 77.7472 79.4426V80.2426C78.6728 80.2426 79.4264 80.9962 79.4264 81.9218H80.2264ZM77.7472 79.4426H63.2699V80.2426H77.7472V79.4426ZM63.2699 79.4426C61.9024 79.4426 60.7907 80.5545 60.7907 81.9218H61.5907C61.5907 80.9963 62.3443 80.2426 63.2699 80.2426V79.4426ZM60.7907 81.9218V104.908H61.5907V81.9218H60.7907ZM61.1907 104.508H57.2451V105.308H61.1907V104.508ZM57.6451 104.908V100.392H56.8451V104.908H57.6451ZM57.6451 100.392V99.9105H56.8451V100.392H57.6451ZM68.1511 59.1387L62.2412 63.0699L62.6843 63.736L68.5942 59.8048L68.1511 59.1387ZM67.9727 56.5543V59.4718H68.7727V56.5543H67.9727ZM62.4627 56.9543H68.3727V56.1543H62.4627V56.9543ZM62.8627 63.403V56.5543H62.0627V63.403H62.8627ZM60.8979 53.3746H69.9377V52.5746H60.8979V53.3746ZM61.2979 54.5797V52.9746H60.4979V54.5797H61.2979ZM69.9377 54.1797H60.8979V54.9797H69.9377V54.1797ZM69.5377 52.9746V54.5797H70.3377V52.9746H69.5377ZM63.5652 81.9218C63.5652 82.0853 63.4327 82.2172 63.2698 82.2172V81.4172C62.9916 81.4172 62.7652 81.6428 62.7652 81.9218H63.5652ZM63.5652 104.908V81.9218H62.7652V104.908H63.5652ZM77.8518 104.508H63.1652V105.308H77.8518V104.508ZM77.4518 81.9218V104.908H78.2518V81.9218H77.4518ZM77.7472 82.2172C77.5838 82.2172 77.4518 82.0847 77.4518 81.9218H78.2518C78.2518 81.6436 78.0263 81.4172 77.7472 81.4172V82.2172ZM63.2698 82.2172H77.7472V81.4172H63.2698V82.2172ZM51.2068 108.013C51.0059 108.013 50.8417 107.849 50.8417 107.648H50.0417C50.0417 108.291 50.5641 108.813 51.2068 108.813V108.013ZM86.7119 108.013H51.2068V108.813H86.7119V108.013ZM85.3419 107.087C85.6627 107.628 86.0136 108.151 86.3925 108.654L87.0313 108.172C86.6701 107.693 86.3358 107.195 86.0302 106.679L85.3419 107.087ZM51.2068 107.283H85.6861V106.483H51.2068V107.283ZM50.8417 107.648C50.8417 107.447 51.0059 107.283 51.2068 107.283V106.483C50.5641 106.483 50.0417 107.005 50.0417 107.648H50.8417ZM99.9176 112.625C93.7252 112.625 88.4476 108.627 86.5321 103.075L85.7759 103.336C87.7989 109.2 93.3727 113.425 99.9176 113.425V112.625ZM114.072 98.4701C114.073 106.275 107.722 112.625 99.9176 112.625V113.425C108.164 113.425 114.873 106.717 114.872 98.4701L114.072 98.4701ZM104.217 84.9835C109.927 86.8082 114.072 92.1649 114.072 98.4701H114.872C114.872 91.806 110.492 86.1487 104.461 84.2214L104.217 84.9835ZM104.101 84.9463C104.141 84.9588 104.169 84.9682 104.218 84.9837L104.46 84.2212C104.429 84.2114 104.378 84.1945 104.338 84.1823L104.101 84.9463ZM103.825 84.864C103.918 84.8909 104.01 84.9182 104.102 84.9465L104.338 84.1822C104.241 84.1521 104.144 84.1233 104.047 84.0954L103.825 84.864ZM103.578 84.796C103.662 84.8185 103.744 84.8409 103.826 84.8642L104.046 84.0951C103.958 84.0699 103.87 84.0461 103.784 84.0231L103.578 84.796ZM103.242 84.7106C103.355 84.7378 103.467 84.7662 103.577 84.7959L103.785 84.0232C103.667 83.9916 103.549 83.9617 103.43 83.933L103.242 84.7106ZM102.971 84.6477C103.061 84.6677 103.152 84.6887 103.242 84.7106L103.43 83.933C103.335 83.9099 103.239 83.8877 103.143 83.8665L102.971 84.6477ZM102.912 84.6347C102.931 84.639 102.951 84.6434 102.971 84.6478L103.143 83.8664C103.124 83.8623 103.105 83.8581 103.086 83.8538L102.912 84.6347ZM102.771 84.6041C102.816 84.6134 102.862 84.6236 102.912 84.6347L103.086 83.8538C103.037 83.843 102.984 83.8313 102.931 83.8203L102.771 84.6041ZM102.344 84.5241C102.488 84.549 102.63 84.5752 102.77 84.6041L102.931 83.8204C102.781 83.7895 102.63 83.7617 102.481 83.7359L102.344 84.5241ZM102.164 84.4942C102.225 84.5039 102.285 84.5138 102.344 84.5241L102.481 83.7359C102.417 83.7248 102.354 83.7143 102.291 83.7042L102.164 84.4942ZM101.709 84.4281C101.86 84.4472 102.011 84.4698 102.165 84.4942L102.29 83.7042C102.132 83.679 101.972 83.655 101.809 83.6344L101.709 84.4281ZM101.644 84.4207C101.668 84.4233 101.689 84.4257 101.71 84.4282L101.808 83.6343C101.781 83.631 101.755 83.6281 101.732 83.6256L101.644 84.4207ZM101.594 84.415C101.611 84.417 101.628 84.4189 101.644 84.4207L101.732 83.6256C101.716 83.6237 101.701 83.6221 101.687 83.6204L101.594 84.415ZM101.174 84.3717C101.314 84.3839 101.453 84.3984 101.593 84.4149L101.687 83.6205C101.54 83.6031 101.392 83.5877 101.244 83.5747L101.174 84.3717ZM101.121 84.3669C101.138 84.3685 101.156 84.3702 101.175 84.3718L101.243 83.5747C101.227 83.5733 101.212 83.5719 101.194 83.5703L101.121 84.3669ZM101.054 84.361C101.075 84.3627 101.096 84.3646 101.121 84.3669L101.194 83.5703C101.171 83.5681 101.144 83.5656 101.116 83.5635L101.054 84.361ZM100.559 84.3305C100.724 84.3379 100.889 84.3479 101.053 84.361L101.117 83.5635C100.943 83.5497 100.769 83.5391 100.595 83.5313L100.559 84.3305ZM100.464 84.3268C100.497 84.3279 100.528 84.3291 100.558 84.3305L100.595 83.5313C100.56 83.5297 100.525 83.5284 100.492 83.5273L100.464 84.3268ZM100.439 84.3259L100.463 84.3268L100.492 83.5273L100.468 83.5264L100.439 84.3259ZM99.9256 84.3153C100.096 84.3154 100.266 84.3196 100.439 84.3259L100.468 83.5264C100.29 83.5199 100.109 83.5154 99.9262 83.5153L99.9256 84.3153ZM99.9111 84.3151L99.9194 84.3152L99.9323 83.5153L99.9241 83.5152L99.9111 84.3151ZM86.0506 95.6209C87.3728 89.1766 93.0892 84.3152 99.9176 84.3152V83.5152C92.7011 83.5152 86.6638 88.6517 85.267 95.4601L86.0506 95.6209ZM85.7626 98.4702C85.7626 97.4942 85.8618 96.5413 86.0506 95.6209L85.267 95.4601C85.0673 96.433 84.9626 97.4398 84.9626 98.4702H85.7626ZM85.769 98.8831C85.7649 98.745 85.7626 98.6074 85.7626 98.4702H84.9626C84.9626 98.6165 84.9651 98.7621 84.9694 98.9069L85.769 98.8831ZM85.773 98.9873C85.7714 98.945 85.7699 98.9177 85.7691 98.8844L84.9693 98.9056C84.9704 98.9442 84.9725 98.9882 84.9736 99.0176L85.773 98.9873ZM85.7882 99.3098C85.7819 99.2031 85.777 99.0958 85.773 98.9877L84.9735 99.0172C84.9777 99.1299 84.9829 99.2431 84.9896 99.357L85.7882 99.3098ZM85.7942 99.4051C85.792 99.3721 85.79 99.3411 85.7882 99.3103L84.9895 99.3565C84.9916 99.3913 84.9938 99.4257 84.996 99.4581L85.7942 99.4051ZM85.8226 99.7664C85.8116 99.6468 85.8023 99.5264 85.7942 99.405L84.996 99.4582C85.0044 99.5848 85.0142 99.7121 85.026 99.8398L85.8226 99.7664ZM85.8267 99.8126L85.8227 99.768L85.0258 99.8383L85.0298 99.8829L85.8267 99.8126ZM86.3122 102.38C86.0722 101.542 85.9093 100.681 85.8264 99.8099L85.03 99.8856C85.1175 100.806 85.2896 101.715 85.5431 102.6L86.3122 102.38ZM86.3185 102.402C86.3159 102.393 86.314 102.387 86.3125 102.381L85.5428 102.599C85.5463 102.612 85.5498 102.623 85.5526 102.633L86.3185 102.402ZM86.3278 102.433C86.3245 102.421 86.321 102.41 86.3185 102.401L85.5526 102.633C85.5556 102.643 85.5577 102.65 85.5597 102.656L86.3278 102.433ZM86.4215 102.741C86.389 102.638 86.3576 102.535 86.3279 102.433L85.5597 102.656C85.5915 102.766 85.6247 102.874 85.6584 102.981L86.4215 102.741ZM86.4813 102.925C86.4609 102.863 86.4408 102.802 86.4211 102.74L85.6588 102.982C85.6795 103.048 85.7007 103.113 85.7222 103.177L86.4813 102.925ZM86.5324 103.076C86.5148 103.025 86.4979 102.975 86.4816 102.926L85.722 103.177C85.7398 103.231 85.7579 103.284 85.7757 103.335L86.5324 103.076ZM74.8492 90.4432C74.0849 90.4432 73.4655 91.0626 73.4655 91.8268H74.2655C74.2655 91.5044 74.5267 91.2432 74.8492 91.2432V90.4432ZM76.2328 91.8268C76.2328 91.0626 75.6134 90.4432 74.8492 90.4432V91.2432C75.1716 91.2432 75.4328 91.5044 75.4328 91.8268H76.2328ZM76.2328 93.8598V91.8268H75.4328V93.8598H76.2328ZM74.8492 95.2435C75.6134 95.2435 76.2328 94.6241 76.2328 93.8598H75.4328C75.4328 94.1823 75.1716 94.4435 74.8492 94.4435V95.2435ZM73.4655 93.8598C73.4655 94.6241 74.0849 95.2435 74.8492 95.2435V94.4435C74.5267 94.4435 74.2655 94.1823 74.2655 93.8598H73.4655ZM73.4655 91.8268V93.8598H74.2655V91.8268H73.4655Z" fill="white" mask="url(#path-3-outside-1)"/>
<path d="M108.008 95.8174L99.3085 104.517C98.6642 105.161 97.6192 105.161 96.9743 104.517L92.4834 100.025C91.8389 99.3811 91.8389 98.3359 92.4834 97.6914C93.128 97.0468 94.1729 97.0468 94.8173 97.6912L98.1417 101.016L105.674 93.4833C106.319 92.8387 107.364 92.8392 108.008 93.4833C108.653 94.1278 108.653 95.1726 108.008 95.8174Z" fill="white"/>
<defs>
<filter id="filter0_d" x="2" y="3" width="160" height="160" filterUnits="userSpaceOnUse" color-interpolation-filters="sRGB">
<feFlood flood-opacity="0" result="BackgroundImageFix"/>
<feColorMatrix in="SourceAlpha" type="matrix" values="0 0 0 0 0 0 0 0 0 0 0 0 0 0 0 0 0 0 127 0"/>
<feOffset/>
<feGaussianBlur stdDeviation="4"/>
<feColorMatrix type="matrix" values="0 0 0 0 0.301961 0 0 0 0 0.458824 0 0 0 0 0.407843 0 0 0 1 0"/>
<feBlend mode="normal" in2="BackgroundImageFix" result="effect1_dropShadow"/>
<feBlend mode="normal" in="SourceGraphic" in2="effect1_dropShadow" result="shape"/>
</filter>
<linearGradient id="paint0_linear" x1="82" y1="155" x2="82" y2="11" gradientUnits="userSpaceOnUse">
<stop stop-color="#1A4D3D"/>
<stop offset="1" stop-color="#336152"/>
</linearGradient>
</defs>
</svg>
