<svg width="115" height="123" viewBox="0 0 115 123" fill="none" xmlns="http://www.w3.org/2000/svg">
<g opacity="0.2">
<path d="M-15.5566 64.9796C-6.40899 64.9796 1.00661 57.5705 1.00661 48.4309C1.00661 39.2913 -6.40899 31.8822 -15.5566 31.8822C-24.7042 31.8822 -32.1199 39.2913 -32.1199 48.4309C-32.1199 57.5705 -24.7042 64.9796 -15.5566 64.9796Z" fill="#2B5648"/>
<path d="M-15.5568 64.429C-6.71344 64.429 0.455502 57.2664 0.455502 48.4308C0.455502 39.5953 -6.71344 32.4326 -15.5568 32.4326C-24.4001 32.4326 -31.5691 39.5953 -31.5691 48.4308C-31.5691 57.2664 -24.4001 64.429 -15.5568 64.429Z" fill="#336152"/>
<path d="M31.586 57.6113C47.5089 57.6113 60.417 44.7146 60.417 28.8056C60.417 12.8967 47.5089 0 31.586 0C15.6631 0 2.755 12.8967 2.755 28.8056C2.755 44.7146 15.6631 57.6113 31.586 57.6113Z" fill="#2B5648"/>
<path d="M31.586 56.655C46.9803 56.655 59.4599 44.1864 59.4599 28.8057C59.4599 13.4249 46.9803 0.956299 31.586 0.956299C16.1917 0.956299 3.71216 13.4249 3.71216 28.8057C3.71216 44.1864 16.1917 56.655 31.586 56.655Z" fill="#336152"/>
<path opacity="0.6" d="M8.60297 17.7732C8.52127 17.7732 8.43955 17.7545 8.36251 17.7149C8.09872 17.5819 7.99366 17.2601 8.12673 16.9965C12.6253 8.09357 21.6155 2.56335 31.5884 2.56335C33.1806 2.56335 34.775 2.70563 36.3251 2.99019C36.6169 3.04383 36.8084 3.3214 36.757 3.61295C36.7033 3.90451 36.4255 4.10043 36.1337 4.04212C34.6443 3.77156 33.1152 3.63394 31.5884 3.63394C22.0217 3.63394 13.398 8.94025 9.08153 17.4793C8.98581 17.6659 8.79907 17.7732 8.60297 17.7732Z" fill="white"/>
<path opacity="0.78" d="M32.1953 52.9837C45.225 52.9837 55.7877 42.4303 55.7877 29.412C55.7877 16.3937 45.225 5.84033 32.1953 5.84033C19.1656 5.84033 8.60291 16.3937 8.60291 29.412C8.60291 42.4303 19.1656 52.9837 32.1953 52.9837Z" fill="#809C93"/>
<path d="M51.4713 122.789C67.8558 122.789 81.1381 109.518 81.1381 93.1483C81.1381 76.7783 67.8558 63.5077 51.4713 63.5077C35.0868 63.5077 21.8046 76.7783 21.8046 93.1483C21.8046 109.518 35.0868 122.789 51.4713 122.789Z" fill="#2B5648"/>
<path d="M51.4714 121.805C67.3118 121.805 80.153 108.975 80.153 93.1483C80.153 77.3218 67.3118 64.4919 51.4714 64.4919C35.631 64.4919 22.7898 77.3218 22.7898 93.1483C22.7898 108.975 35.631 121.805 51.4714 121.805Z" fill="#336152"/>
<path opacity="0.6" d="M27.8205 81.78C27.7388 81.78 27.6571 81.7614 27.58 81.7217C27.3162 81.5888 27.2112 81.2669 27.3443 81.0033C31.9689 71.8485 41.2158 66.1597 51.4712 66.1597C53.1077 66.1597 54.7465 66.3066 56.3433 66.5982C56.6351 66.6518 56.8265 66.9294 56.7752 67.2209C56.7215 67.5125 56.446 67.7061 56.1519 67.6501C54.6181 67.3702 53.0447 67.2303 51.4712 67.2303C41.6197 67.2303 32.7416 72.6928 28.2991 81.4862C28.2057 81.6704 28.0166 81.78 27.8205 81.78Z" fill="white"/>
<path opacity="0.78" d="M75.6842 99.4118C78.7985 86.3844 70.753 73.3013 57.7142 70.1897C44.6753 67.0782 31.5806 75.1166 28.4664 88.144C25.3521 101.171 33.3976 114.255 46.4364 117.366C59.4753 120.478 72.57 112.439 75.6842 99.4118Z" fill="#809C93"/>
<path d="M89.5304 74.4864C101.535 74.4864 111.267 64.7633 111.267 52.7691C111.267 40.7749 101.535 31.0518 89.5304 31.0518C77.5257 31.0518 67.7939 40.7749 67.7939 52.7691C67.7939 64.7633 77.5257 74.4864 89.5304 74.4864Z" fill="#2B5648"/>
<path d="M89.5305 73.7657C101.137 73.7657 110.546 64.3652 110.546 52.7691C110.546 41.173 101.137 31.7725 89.5305 31.7725C77.9242 31.7725 68.5154 41.173 68.5154 52.7691C68.5154 64.3652 77.9242 73.7657 89.5305 73.7657Z" fill="#336152"/>
<path opacity="0.6" d="M72.2016 44.5822C72.1199 44.5822 72.0382 44.5635 71.9611 44.5238C71.6973 44.3909 71.5923 44.069 71.7254 43.8054C75.1384 37.0484 81.9621 32.8523 89.5306 32.8523C90.7375 32.8523 91.9468 32.9619 93.1257 33.1765C93.4175 33.2302 93.609 33.5077 93.5576 33.7993C93.5039 34.0908 93.2284 34.2868 92.9343 34.2308C91.8184 34.0279 90.6722 33.9252 89.5306 33.9252C82.3683 33.9252 75.9111 37.8974 72.6802 44.2906C72.5868 44.4749 72.3977 44.5822 72.2016 44.5822Z" fill="white"/>
<path opacity="0.78" d="M98.2496 68.9711C106.951 64.4162 110.309 53.676 105.75 44.9822C101.191 36.2885 90.4415 32.9333 81.7401 37.4882C73.0388 42.0432 69.6806 52.7834 74.2396 61.4772C78.7985 70.1709 89.5482 73.5261 98.2496 68.9711Z" fill="#809C93"/>
<path fill-rule="evenodd" clip-rule="evenodd" d="M29.8795 44.3723V46.9357C29.8795 47.7613 30.5495 48.4308 31.3735 48.4331H32.8816C33.708 48.4331 34.378 47.7637 34.378 46.938V44.0691C39.9691 43.1968 42.8522 39.7051 42.8522 35.8216C42.8522 31.5882 40.4921 29.2325 34.8146 27.5298C30.8413 26.3076 29.0064 25.3489 29.0064 23.9518C29.0064 22.8182 29.8795 21.5517 32.9377 21.5517C35.3562 21.5517 37.2191 22.0695 38.5358 22.5663C39.3622 22.8789 40.2726 22.4124 40.5037 21.5611L41.1037 19.3522C41.3068 18.6012 40.9076 17.8128 40.1746 17.5563C38.7459 17.0548 36.9436 16.6303 34.4667 16.5323V14.2302C34.4667 13.4045 33.7968 12.7351 32.9704 12.7351H31.4623C30.6358 12.7351 29.9659 13.4045 29.9659 14.2302V16.7959C24.8113 17.6239 21.8418 20.7237 21.8418 24.7822C21.8418 29.2768 25.5116 31.5019 30.6218 32.899C34.2029 33.8577 35.6877 34.8186 35.6877 36.4327C35.6877 38.2217 33.7664 39.094 31.1891 39.094C28.7076 39.094 26.4057 38.4759 24.5405 37.6945C23.7024 37.3423 22.7476 37.7948 22.5095 38.6718L21.8582 41.0602C21.6644 41.7646 22.0052 42.518 22.6776 42.8119C24.5568 43.6353 27.2041 44.265 29.8795 44.3723ZM-16.5397 57.3711V58.8452C-16.5397 59.3187 -16.1545 59.7035 -15.6806 59.6965H-14.8145C-14.3406 59.6965 -13.9554 59.3117 -13.9554 58.8382V57.1892C-10.7431 56.6877 -9.08797 54.6841 -9.08797 52.452C-9.08797 50.0216 -10.4443 48.6664 -13.7056 47.6891C-15.9887 46.987 -17.0416 46.4366 -17.0416 45.6342C-17.0416 44.9835 -16.5397 44.2558 -14.7841 44.2558C-13.3928 44.2558 -12.3236 44.552 -11.5672 44.8389C-11.0933 45.0185 -10.5704 44.7502 -10.4373 44.2604L-10.0918 42.9916C-9.97509 42.5624 -10.2062 42.1076 -10.6264 41.9606C-11.4481 41.6737 -12.4847 41.4288 -13.9064 41.3729V40.0504C-13.9064 39.5769 -14.2916 39.192 -14.7655 39.192H-15.6316C-16.1055 39.192 -16.4906 39.5769 -16.4906 40.0504V41.5245C-19.4508 42.0003 -21.1573 43.7799 -21.1573 46.1124C-21.1573 48.6944 -19.0516 49.9726 -16.1148 50.7749C-14.0558 51.3277 -13.2037 51.8782 -13.2037 52.8065C-13.2037 53.8351 -14.3079 54.3366 -15.788 54.3366C-17.2144 54.3366 -18.5357 53.9821 -19.6072 53.5342C-20.0881 53.3336 -20.6367 53.5925 -20.7745 54.0963L-21.148 55.4678C-21.2577 55.8737 -21.0616 56.3075 -20.6764 56.4754C-19.5979 56.9466 -18.0758 57.3104 -16.5397 57.3711ZM49.7135 111.803V109.165C46.9611 109.056 44.2368 108.405 42.3038 107.56C41.6128 107.26 41.2603 106.483 41.4587 105.757L42.1287 103.299C42.3739 102.396 43.3567 101.93 44.2181 102.292C46.1371 103.096 48.5066 103.731 51.0605 103.731C53.7125 103.731 55.6898 102.833 55.6898 100.99C55.6898 99.3293 54.1607 98.3404 50.4769 97.3537C45.2173 95.917 41.4424 93.6265 41.4424 89.0013C41.4424 84.8239 44.4983 81.6354 49.8022 80.7841V78.1461C49.8022 77.2971 50.4909 76.609 51.3406 76.609H52.8931C53.7428 76.609 54.4315 77.2971 54.4315 78.1461V80.5159C56.9784 80.6185 58.8344 81.0523 60.3051 81.5701C61.0591 81.8337 61.47 82.6454 61.2622 83.4174L60.6459 85.6915C60.4078 86.5685 59.4694 87.049 58.6196 86.7271C57.2656 86.214 55.349 85.6822 52.8581 85.6822C49.7112 85.6822 48.8124 86.9837 48.8124 88.1523C48.8124 89.589 50.701 90.578 54.791 91.8352C60.6343 93.5868 63.0598 96.0102 63.0598 100.367C63.0598 104.363 60.0926 107.957 54.3405 108.855V111.808C54.3405 112.657 53.6518 113.345 52.802 113.345H51.2496C50.4022 113.34 49.7135 112.652 49.7135 111.803ZM88.2441 64.5036V66.4372C88.2441 67.06 88.7484 67.5638 89.3693 67.5638H90.5062C91.1295 67.5638 91.6338 67.06 91.6338 66.4372V64.2727C95.8499 63.6149 98.0233 60.9816 98.0233 58.0544C98.0233 54.8636 96.2444 53.0863 91.963 51.8035C88.9655 50.8821 87.5834 50.1567 87.5834 49.1048C87.5834 48.2488 88.2441 47.2949 90.5482 47.2949C92.3715 47.2949 93.7769 47.6844 94.769 48.0599C95.3923 48.2955 96.0787 47.9433 96.2537 47.3018L96.7066 45.6365C96.8607 45.072 96.5596 44.4773 96.0063 44.2837C94.9301 43.9058 93.5714 43.5863 91.7038 43.5116V41.7763C91.7038 41.1535 91.1996 40.6497 90.5762 40.6497H89.4394C88.816 40.6497 88.3118 41.1535 88.3118 41.7763V43.7099C84.4249 44.335 82.1861 46.6697 82.1861 49.7299C82.1861 53.1189 84.9525 54.7983 88.8044 55.8502C91.5031 56.5756 92.6236 57.2987 92.6236 58.5162C92.6236 59.8667 91.1739 60.5245 89.2316 60.5245C87.3617 60.5245 85.6248 60.058 84.2194 59.4702C83.5868 59.2043 82.8678 59.5472 82.688 60.2072L82.1954 62.0079C82.0507 62.5397 82.3075 63.1065 82.8141 63.3281C84.2311 63.9462 86.2271 64.422 88.2441 64.5036Z" fill="white"/>
</g>
</svg>
