<svg width="19" height="24" viewBox="0 0 19 24" fill="none" xmlns="http://www.w3.org/2000/svg">
<path fill-rule="evenodd" clip-rule="evenodd" d="M16.4596 3.14445H14.2879V2.17311C14.2879 1.85884 13.945 1.71601 13.6307 1.71601H11.9447C11.5447 0.573237 10.5445 0.00184982 9.40148 0.00184982C8.27103 -0.0406392 7.2428 0.652364 6.85824 1.71601H5.20085C4.88651 1.71601 4.57218 1.85884 4.57218 2.17311V3.14445H2.40037C1.11339 3.15818 0.0604934 4.17321 0 5.45854V21.8287C0 23.0858 1.14303 24 2.40037 24H16.4596C17.717 24 18.86 23.0858 18.86 21.8287V5.4586C18.7995 4.17321 17.7466 3.15818 16.4596 3.14445ZM5.71515 2.85879H7.28683C7.56118 2.82532 7.78155 2.61665 7.8298 2.34454C7.99902 1.60774 8.64558 1.07884 9.40148 1.05894C10.1504 1.08163 10.7872 1.61217 10.9446 2.34454C10.9958 2.62605 11.2307 2.8374 11.5161 2.85879H13.1449V5.14433H5.71515V2.85879ZM17.717 21.8288C17.717 22.4573 17.0883 22.8573 16.4596 22.8573H2.40037C1.7717 22.8573 1.14303 22.4573 1.14303 21.8288V5.4586C1.20134 4.80437 1.74348 4.29926 2.40037 4.28728H4.57212V5.74432C4.60231 6.06444 4.87962 6.3039 5.20079 6.28716H13.6306C13.9577 6.30504 14.2437 6.06887 14.2878 5.74432V4.28723H16.4596C17.1164 4.29926 17.6586 4.80431 17.7169 5.45854V21.8288H17.717ZM7.22969 12.7723C7.01534 12.5464 6.65949 12.5337 6.42955 12.7438L4.60069 14.4865L3.82915 13.6865C3.6148 13.4606 3.25895 13.4479 3.02901 13.658C2.80765 13.8898 2.80765 14.2546 3.02901 14.4865L4.20059 15.6864C4.30199 15.7999 4.44847 15.8627 4.60063 15.8578C4.75137 15.8557 4.89517 15.7941 5.00068 15.6864L7.22958 13.5723C7.45055 13.3696 7.46532 13.0262 7.26256 12.8054C7.25217 12.7938 7.24117 12.7828 7.22969 12.7723ZM8.85853 14.0008H15.4309C15.7466 14.0008 16.0024 14.2566 16.0024 14.5722C16.0024 14.8878 15.7466 15.1436 15.4309 15.1436H8.85853C8.54288 15.1436 8.28701 14.8878 8.28701 14.5722C8.28701 14.2566 8.54288 14.0008 8.85853 14.0008ZM7.22969 8.20124C7.01534 7.97534 6.65949 7.9626 6.42955 8.17269L4.60069 9.9154L3.82915 9.11543C3.6148 8.88954 3.25895 8.8768 3.02901 9.08689C2.80765 9.31875 2.80765 9.68354 3.02901 9.9154L4.20059 11.1153C4.30199 11.2288 4.44847 11.2916 4.60063 11.2867C4.75137 11.2846 4.89517 11.223 5.00068 11.1153L7.22958 9.0012C7.45055 8.79854 7.46532 8.45513 7.26256 8.23427C7.25217 8.22273 7.24117 8.21174 7.22969 8.20124ZM8.85853 9.4297H15.4309C15.7466 9.4297 16.0024 9.68551 16.0024 10.0011C16.0024 10.3167 15.7466 10.5725 15.4309 10.5725H8.85853C8.54288 10.5725 8.28701 10.3167 8.28701 10.0011C8.28701 9.68551 8.54288 9.4297 8.85853 9.4297ZM7.22969 17.3434C7.01534 17.1175 6.65949 17.1048 6.42955 17.3148L4.60069 19.0575L3.82915 18.2576C3.6148 18.0317 3.25895 18.019 3.02901 18.229C2.80765 18.4609 2.80765 18.8257 3.02901 19.0575L4.20059 20.2575C4.30199 20.371 4.44847 20.4338 4.60063 20.4289C4.75137 20.4268 4.89517 20.3651 5.00068 20.2575L7.22958 18.1433C7.45055 17.9407 7.46532 17.5973 7.26256 17.3764C7.25217 17.3649 7.24117 17.3539 7.22969 17.3434ZM8.85853 18.5719H15.4309C15.7466 18.5719 16.0024 18.8277 16.0024 19.1433C16.0024 19.4589 15.7466 19.7147 15.4309 19.7147H8.85853C8.54288 19.7147 8.28701 19.4589 8.28701 19.1433C8.28701 18.8277 8.54288 18.5719 8.85853 18.5719Z" fill="white"/>
</svg>
