<svg width="24" height="24" viewBox="0 0 24 24" fill="none" xmlns="http://www.w3.org/2000/svg">
<path fill-rule="evenodd" clip-rule="evenodd" d="M20.5312 9.78511H23.5312C23.7901 9.78511 24 9.99502 24 10.2539V23.5312C24 23.7901 23.7901 24 23.5312 24H1.40625C0.630844 24 0 23.3692 0 22.5938V1.40625C0 0.630844 0.630844 0 1.40625 0H13.9676C14.0919 0 14.2111 0.0494062 14.299 0.137297L18.799 4.63744C18.8869 4.72538 18.9363 4.84458 18.9363 4.96889V11.2031C18.9363 11.462 18.7265 11.6719 18.4676 11.6719C18.2087 11.6719 17.9988 11.462 17.9988 11.2031V5.43764H14.9051C14.1297 5.43764 13.4988 4.8068 13.4988 4.03139V0.9375H1.40625C1.14778 0.9375 0.9375 1.14778 0.9375 1.40625V22.5938C0.9375 22.8522 1.14778 23.0625 1.40625 23.0625H5.4375V19.3301C5.4375 19.0712 5.64736 18.8613 5.90625 18.8613H8.90625C9.16514 18.8613 9.375 19.0712 9.375 19.3301V23.0625H10.3125V16.6406C10.3125 16.3818 10.5224 16.1719 10.7812 16.1719H13.7812C14.0401 16.1719 14.25 16.3818 14.25 16.6406V23.0625H15.1875V13.3594C15.1875 13.1005 15.3974 12.8906 15.6562 12.8906H18.6562C18.9151 12.8906 19.125 13.1005 19.125 13.3594V23.0625H20.0625V16.7131V16.1367V10.2539C20.0625 9.99502 20.2724 9.78511 20.5312 9.78511ZM21 16.1367V16.7131V23.0625H22.0312H23.0625V10.7226H21V16.1367ZM17.336 4.50014L14.4363 1.60045V4.03139C14.4363 4.28986 14.6466 4.50014 14.9051 4.50014H17.336ZM6.375 23.0625H8.4375V19.7988H6.375V23.0625ZM11.25 23.0625H13.3125V17.1094H11.25V23.0625ZM16.125 23.0625H18.1875V13.8281H16.125V23.0625ZM6.3551 3.03417C6.3551 2.77532 6.56496 2.56542 6.82385 2.56542C9.91056 2.56542 12.4218 5.07665 12.4218 8.16342C12.4218 8.42226 12.2119 8.63217 11.953 8.63217H11.1099C10.8756 10.7899 9.04282 12.4747 6.82385 12.4747C4.44658 12.4747 2.51252 10.5407 2.51252 8.16342C2.51252 5.94445 4.19739 4.11164 6.3551 3.8774V3.03417ZM3.45002 8.16337C3.45002 10.0237 4.96352 11.5372 6.82385 11.5372C8.52508 11.5372 9.9363 10.2713 10.1652 8.63212H6.82385C6.56496 8.63212 6.3551 8.42221 6.3551 8.16337V4.82203C4.71588 5.05092 3.45002 6.46214 3.45002 8.16337ZM7.2926 7.69462V7.69467H11.4609C11.2405 5.49848 9.48878 3.74671 7.2926 3.52631V7.69462ZM11.9531 13.793H3C2.74111 13.793 2.53125 14.0029 2.53125 14.2617C2.53125 14.5206 2.74111 14.7305 3 14.7305H11.9531C12.212 14.7305 12.4219 14.5206 12.4219 14.2617C12.4219 14.0029 12.212 13.793 11.9531 13.793ZM3 16.0547H6C6.25889 16.0547 6.46875 16.2646 6.46875 16.5234C6.46875 16.7823 6.25889 16.9922 6 16.9922H3C2.74111 16.9922 2.53125 16.7823 2.53125 16.5234C2.53125 16.2646 2.74111 16.0547 3 16.0547Z" fill="#003927"/>
</svg>
