<svg width="19" height="24" viewBox="0 0 19 24" fill="none" xmlns="http://www.w3.org/2000/svg">
<path fill-rule="evenodd" clip-rule="evenodd" d="M16.4559 3.14445H14.2847V2.17311C14.2847 1.85884 13.9419 1.71601 13.6276 1.71601H11.942C11.5421 0.573237 10.5421 0.00184982 9.39937 0.00184982C8.26917 -0.0406392 7.24118 0.652364 6.8567 1.71601H5.19968C4.88542 1.71601 4.57115 1.85884 4.57115 2.17311V3.14445H2.39984C1.11314 3.15818 0.0604799 4.17321 0 5.45854V21.8287C0 23.0858 1.14277 24 2.39984 24H16.4559C17.713 24 18.8558 23.0858 18.8558 21.8287V5.4586C18.7953 4.17321 17.7426 3.15818 16.4559 3.14445ZM5.71387 2.85879H7.2852C7.55949 2.82532 7.77981 2.61665 7.82804 2.34454C7.99723 1.60774 8.64364 1.07884 9.39937 1.05894C10.1481 1.08163 10.7848 1.61217 10.9421 2.34454C10.9933 2.62605 11.2282 2.8374 11.5135 2.85879H13.142V5.14433H5.71387V2.85879ZM17.713 21.8288C17.713 22.4573 17.0845 22.8573 16.4559 22.8573H2.39984C1.77131 22.8573 1.14277 22.4573 1.14277 21.8288V5.4586C1.20107 4.80437 1.74309 4.29926 2.39984 4.28728H4.5711V5.74432C4.60128 6.06444 4.87853 6.3039 5.19963 6.28716H13.6275C13.9546 6.30504 14.2405 6.06887 14.2846 5.74432V4.28723H16.4559C17.1126 4.29926 17.6547 4.80431 17.7129 5.45854V21.8288H17.713ZM7.22807 12.7723C7.01377 12.5464 6.658 12.5337 6.42811 12.7438L4.59966 14.4865L3.82829 13.6865C3.61399 13.4606 3.25822 13.4479 3.02833 13.658C2.80702 13.8898 2.80702 14.2546 3.02833 14.4865L4.19965 15.6864C4.30103 15.7999 4.44747 15.8627 4.5996 15.8578C4.75031 15.8557 4.89407 15.7941 4.99956 15.6864L7.22796 13.5723C7.44888 13.3696 7.46365 13.0262 7.26094 12.8054C7.25055 12.7938 7.23955 12.7828 7.22807 12.7723ZM8.85654 14.0008H15.4275C15.743 14.0008 15.9989 14.2566 15.9989 14.5722C15.9989 14.8878 15.743 15.1436 15.4275 15.1436H8.85654C8.54097 15.1436 8.28516 14.8878 8.28516 14.5722C8.28516 14.2566 8.54097 14.0008 8.85654 14.0008ZM7.22807 8.20125C7.01377 7.97535 6.658 7.96261 6.42811 8.1727L4.59966 9.91541L3.82829 9.11544C3.61399 8.88955 3.25822 8.87681 3.02833 9.0869C2.80702 9.31876 2.80702 9.68355 3.02833 9.91541L4.19965 11.1153C4.30103 11.2288 4.44747 11.2916 4.5996 11.2868C4.75031 11.2846 4.89407 11.223 4.99956 11.1153L7.22796 9.00121C7.44888 8.79855 7.46365 8.45514 7.26094 8.23427C7.25055 8.22274 7.23955 8.21175 7.22807 8.20125ZM8.85654 9.4297H15.4275C15.743 9.4297 15.9989 9.68551 15.9989 10.0011C15.9989 10.3167 15.743 10.5725 15.4275 10.5725H8.85654C8.54097 10.5725 8.28516 10.3167 8.28516 10.0011C8.28516 9.68551 8.54097 9.4297 8.85654 9.4297ZM7.22807 17.3434C7.01377 17.1175 6.658 17.1048 6.42811 17.3148L4.59966 19.0575L3.82829 18.2576C3.61399 18.0317 3.25822 18.019 3.02833 18.229C2.80702 18.4609 2.80702 18.8257 3.02833 19.0575L4.19965 20.2575C4.30103 20.371 4.44747 20.4338 4.5996 20.4289C4.75031 20.4268 4.89407 20.3651 4.99956 20.2575L7.22796 18.1433C7.44888 17.9407 7.46365 17.5973 7.26094 17.3764C7.25055 17.3649 7.23955 17.3539 7.22807 17.3434ZM8.85654 18.5719H15.4275C15.743 18.5719 15.9989 18.8277 15.9989 19.1433C15.9989 19.4589 15.743 19.7147 15.4275 19.7147H8.85654C8.54097 19.7147 8.28516 19.4589 8.28516 19.1433C8.28516 18.8277 8.54097 18.5719 8.85654 18.5719Z" fill="#003927"/>
</svg>
