<svg width="25" height="24" viewBox="0 0 25 24" fill="none" xmlns="http://www.w3.org/2000/svg">
<path fill-rule="evenodd" clip-rule="evenodd" d="M20.5821 9.78511H23.5821C23.841 9.78511 24.0508 9.99502 24.0508 10.2539V23.5312C24.0508 23.7901 23.841 24 23.5821 24H1.45709C0.681686 24 0.0508423 23.3692 0.0508423 22.5938V1.40625C0.0508423 0.630844 0.681686 0 1.45709 0H14.0184C14.1427 0 14.2619 0.0494062 14.3499 0.137297L18.8499 4.63744C18.9378 4.72538 18.9872 4.84458 18.9872 4.96889V11.2031C18.9872 11.462 18.7773 11.6719 18.5184 11.6719C18.2595 11.6719 18.0497 11.462 18.0497 11.2031V5.43764H14.9559C14.1805 5.43764 13.5497 4.8068 13.5497 4.03139V0.9375H1.45709C1.19862 0.9375 0.988342 1.14778 0.988342 1.40625V22.5938C0.988342 22.8522 1.19862 23.0625 1.45709 23.0625H5.48834V19.3301C5.48834 19.0712 5.6982 18.8613 5.95709 18.8613H8.95709C9.21598 18.8613 9.42584 19.0712 9.42584 19.3301V23.0625H10.3633V16.6406C10.3633 16.3818 10.5732 16.1719 10.8321 16.1719H13.8321C14.091 16.1719 14.3008 16.3818 14.3008 16.6406V23.0625H15.2383V13.3594C15.2383 13.1005 15.4482 12.8906 15.7071 12.8906H18.7071C18.966 12.8906 19.1758 13.1005 19.1758 13.3594V23.0625H20.1133V16.7131V16.1367V10.2539C20.1133 9.99502 20.3232 9.78511 20.5821 9.78511ZM21.0508 16.1367V16.7131V23.0625H22.0821H23.1133V10.7226H21.0508V16.1367ZM17.3868 4.50014L14.4872 1.60045V4.03139C14.4872 4.28986 14.6974 4.50014 14.9559 4.50014H17.3868ZM6.42584 23.0625H8.48834V19.7988H6.42584V23.0625ZM11.3008 23.0625H13.3633V17.1094H11.3008V23.0625ZM16.1758 23.0625H18.2383V13.8281H16.1758V23.0625ZM6.40594 3.03417C6.40594 2.77532 6.6158 2.56542 6.87469 2.56542C9.96141 2.56542 12.4726 5.07665 12.4726 8.16342C12.4726 8.42226 12.2628 8.63217 12.0039 8.63217H11.1607C10.9265 10.7899 9.09366 12.4747 6.87469 12.4747C4.49742 12.4747 2.56336 10.5407 2.56336 8.16342C2.56336 5.94445 4.24824 4.11164 6.40594 3.8774V3.03417ZM3.50086 8.16337C3.50086 10.0237 5.01436 11.5372 6.87469 11.5372C8.57592 11.5372 9.98714 10.2713 10.216 8.63212H6.87469C6.6158 8.63212 6.40594 8.42221 6.40594 8.16337V4.82203C4.76672 5.05092 3.50086 6.46214 3.50086 8.16337ZM7.34344 7.69462V7.69467H11.5118C11.2913 5.49848 9.53963 3.74671 7.34344 3.52631V7.69462ZM12.004 13.793H3.05084C2.79195 13.793 2.58209 14.0029 2.58209 14.2617C2.58209 14.5206 2.79195 14.7305 3.05084 14.7305H12.004C12.2629 14.7305 12.4727 14.5206 12.4727 14.2617C12.4727 14.0029 12.2629 13.793 12.004 13.793ZM3.05084 16.0547H6.05084C6.30973 16.0547 6.51959 16.2646 6.51959 16.5234C6.51959 16.7823 6.30973 16.9922 6.05084 16.9922H3.05084C2.79195 16.9922 2.58209 16.7823 2.58209 16.5234C2.58209 16.2646 2.79195 16.0547 3.05084 16.0547Z" fill="white"/>
</svg>
