<svg width="22" height="24" viewBox="0 0 22 24" fill="none" xmlns="http://www.w3.org/2000/svg">
<mask id="path-1-inside-1" fill="white">
<path fill-rule="evenodd" clip-rule="evenodd" d="M16.3626 5.6036C16.477 5.75676 16.4764 5.99571 16.47 8.78959L16.47 8.79084V8.79125V8.79175V8.79237V8.79311C16.4681 9.63728 16.4656 10.7144 16.4656 12.0926C19.4285 12.443 21.7346 14.9698 21.7346 18.0253C21.7346 21.3199 19.0545 24 15.7599 24H1.41134C0.63322 24 0 23.3668 0 22.5887V1.41862C0 0.640503 0.63322 0.00728352 1.41134 0.00728352C3.72114 0.00728352 5.45445 0.00444754 6.75792 0.00231485C10.5097 -0.00382361 10.7004 -0.00413566 10.8271 0.0857728C10.8339 0.0905865 10.8405 0.0956588 10.8474 0.101003L10.8474 0.101008C10.8564 0.107885 10.8659 0.11521 10.8772 0.123013C10.9788 0.185629 16.2961 5.52363 16.3 5.52843C16.3096 5.54021 16.3188 5.5508 16.3274 5.5608L16.3274 5.56085C16.3402 5.5757 16.3519 5.58927 16.3626 5.6036ZM14.0564 5.27627L11.1966 2.41643V5.27627H14.0564ZM1.41134 1.41862V22.5887H11.9079C10.6109 21.4921 9.78527 19.8535 9.78527 18.0253C9.78527 14.9698 12.0914 12.443 15.0543 12.0926V6.68761H11.1966C10.4185 6.68761 9.78527 6.05439 9.78527 5.27627V1.41862H1.41134ZM11.1966 18.0253C11.1966 20.5418 13.2435 22.5887 15.7599 22.5887C18.2763 22.5887 20.3232 20.5418 20.3232 18.0253C20.3232 15.5089 18.2763 13.462 15.7599 13.462C13.2435 13.462 11.1966 15.5089 11.1966 18.0253ZM5.85506 10.7985C5.69713 11.1547 5.28022 11.3156 4.92391 11.1575C4.56769 10.9996 4.40693 10.5827 4.56491 10.2264L6.92316 4.90865C7.08113 4.55242 7.498 4.39167 7.85431 4.54965C8.21058 4.70762 8.37128 5.12453 8.21331 5.4808L5.85506 10.7985ZM4.49602 7.15095C5.1076 7.15095 5.60486 6.63582 5.60486 6.00213C5.60486 5.36844 5.1076 4.85283 4.49602 4.85283C3.88444 4.85283 3.38718 5.36844 3.38718 6.00213C3.38718 6.63582 3.88444 7.15095 4.49602 7.15095ZM7.1038 9.71874C7.1038 9.08505 7.60106 8.56944 8.21264 8.56944C8.82422 8.56944 9.32148 9.08505 9.32148 9.71874C9.32148 10.3524 8.82422 10.8676 8.21264 10.8676C7.60106 10.8676 7.1038 10.3524 7.1038 9.71874ZM7.85646 13.1797H3.71654C3.32682 13.1797 3.01087 13.4957 3.01087 13.8854C3.01087 14.2751 3.32682 14.5911 3.71654 14.5911H7.85646C8.24617 14.5911 8.56212 14.2751 8.56212 13.8854C8.56212 13.4957 8.24622 13.1797 7.85646 13.1797ZM7.10374 17.6019H3.71654C3.32682 17.6019 3.01087 17.286 3.01087 16.8963C3.01087 16.5066 3.32682 16.1906 3.71654 16.1906H7.10374C7.49346 16.1906 7.80941 16.5066 7.80941 16.8963C7.80941 17.286 7.49346 17.6019 7.10374 17.6019ZM7.85646 19.2015H3.71654C3.32682 19.2015 3.01087 19.5174 3.01087 19.9072C3.01087 20.2969 3.32682 20.6128 3.71654 20.6128H7.85646C8.24617 20.6128 8.56212 20.2969 8.56212 19.9072C8.56212 19.5174 8.24622 19.2015 7.85646 19.2015ZM15.7142 17.111C15.8122 17.1475 15.9101 17.1839 16.396 17.3648C18.0408 17.8623 17.9265 19.8735 16.436 20.4175C16.4049 20.7694 16.1152 21.0479 15.7576 21.0596C15.4323 21.0783 15.1094 20.841 15.0411 20.489C14.8007 20.442 14.5702 20.354 14.2865 20.195C13.9464 20.0049 13.8246 19.5749 14.0151 19.2348C14.2056 18.8947 14.6356 18.7733 14.9753 18.9633C15.2514 19.1176 15.3422 19.1299 15.7294 19.1275C16.0057 19.1275 16.1659 18.974 16.1824 18.8613C16.1946 18.7768 16.0159 18.7215 15.7488 18.6387C15.4371 18.5422 15.0052 18.4083 14.6158 18.1476C13.7123 17.5412 13.9125 16.1099 15.0345 15.6768C15.0788 15.3301 15.3747 15.0615 15.7336 15.0615C16.0718 15.0615 16.3638 15.3029 16.4266 15.6359C16.6087 15.6914 16.7535 15.7615 16.8566 15.8208C17.12 15.9257 17.3063 16.1825 17.3063 16.4836C17.3063 17.0785 16.6234 17.4041 16.1621 17.0513C16.1588 17.0508 16.1566 17.05 16.1565 17.0471C15.9977 16.9235 15.5856 16.934 15.4852 17.0256C15.6056 17.0705 15.6599 17.0908 15.7142 17.111Z"/>
</mask>
<path fill-rule="evenodd" clip-rule="evenodd" d="M16.3626 5.6036C16.477 5.75676 16.4764 5.99571 16.47 8.78959L16.47 8.79084V8.79125V8.79175V8.79237V8.79311C16.4681 9.63728 16.4656 10.7144 16.4656 12.0926C19.4285 12.443 21.7346 14.9698 21.7346 18.0253C21.7346 21.3199 19.0545 24 15.7599 24H1.41134C0.63322 24 0 23.3668 0 22.5887V1.41862C0 0.640503 0.63322 0.00728352 1.41134 0.00728352C3.72114 0.00728352 5.45445 0.00444754 6.75792 0.00231485C10.5097 -0.00382361 10.7004 -0.00413566 10.8271 0.0857728C10.8339 0.0905865 10.8405 0.0956588 10.8474 0.101003L10.8474 0.101008C10.8564 0.107885 10.8659 0.11521 10.8772 0.123013C10.9788 0.185629 16.2961 5.52363 16.3 5.52843C16.3096 5.54021 16.3188 5.5508 16.3274 5.5608L16.3274 5.56085C16.3402 5.5757 16.3519 5.58927 16.3626 5.6036ZM14.0564 5.27627L11.1966 2.41643V5.27627H14.0564ZM1.41134 1.41862V22.5887H11.9079C10.6109 21.4921 9.78527 19.8535 9.78527 18.0253C9.78527 14.9698 12.0914 12.443 15.0543 12.0926V6.68761H11.1966C10.4185 6.68761 9.78527 6.05439 9.78527 5.27627V1.41862H1.41134ZM11.1966 18.0253C11.1966 20.5418 13.2435 22.5887 15.7599 22.5887C18.2763 22.5887 20.3232 20.5418 20.3232 18.0253C20.3232 15.5089 18.2763 13.462 15.7599 13.462C13.2435 13.462 11.1966 15.5089 11.1966 18.0253ZM5.85506 10.7985C5.69713 11.1547 5.28022 11.3156 4.92391 11.1575C4.56769 10.9996 4.40693 10.5827 4.56491 10.2264L6.92316 4.90865C7.08113 4.55242 7.498 4.39167 7.85431 4.54965C8.21058 4.70762 8.37128 5.12453 8.21331 5.4808L5.85506 10.7985ZM4.49602 7.15095C5.1076 7.15095 5.60486 6.63582 5.60486 6.00213C5.60486 5.36844 5.1076 4.85283 4.49602 4.85283C3.88444 4.85283 3.38718 5.36844 3.38718 6.00213C3.38718 6.63582 3.88444 7.15095 4.49602 7.15095ZM7.1038 9.71874C7.1038 9.08505 7.60106 8.56944 8.21264 8.56944C8.82422 8.56944 9.32148 9.08505 9.32148 9.71874C9.32148 10.3524 8.82422 10.8676 8.21264 10.8676C7.60106 10.8676 7.1038 10.3524 7.1038 9.71874ZM7.85646 13.1797H3.71654C3.32682 13.1797 3.01087 13.4957 3.01087 13.8854C3.01087 14.2751 3.32682 14.5911 3.71654 14.5911H7.85646C8.24617 14.5911 8.56212 14.2751 8.56212 13.8854C8.56212 13.4957 8.24622 13.1797 7.85646 13.1797ZM7.10374 17.6019H3.71654C3.32682 17.6019 3.01087 17.286 3.01087 16.8963C3.01087 16.5066 3.32682 16.1906 3.71654 16.1906H7.10374C7.49346 16.1906 7.80941 16.5066 7.80941 16.8963C7.80941 17.286 7.49346 17.6019 7.10374 17.6019ZM7.85646 19.2015H3.71654C3.32682 19.2015 3.01087 19.5174 3.01087 19.9072C3.01087 20.2969 3.32682 20.6128 3.71654 20.6128H7.85646C8.24617 20.6128 8.56212 20.2969 8.56212 19.9072C8.56212 19.5174 8.24622 19.2015 7.85646 19.2015ZM15.7142 17.111C15.8122 17.1475 15.9101 17.1839 16.396 17.3648C18.0408 17.8623 17.9265 19.8735 16.436 20.4175C16.4049 20.7694 16.1152 21.0479 15.7576 21.0596C15.4323 21.0783 15.1094 20.841 15.0411 20.489C14.8007 20.442 14.5702 20.354 14.2865 20.195C13.9464 20.0049 13.8246 19.5749 14.0151 19.2348C14.2056 18.8947 14.6356 18.7733 14.9753 18.9633C15.2514 19.1176 15.3422 19.1299 15.7294 19.1275C16.0057 19.1275 16.1659 18.974 16.1824 18.8613C16.1946 18.7768 16.0159 18.7215 15.7488 18.6387C15.4371 18.5422 15.0052 18.4083 14.6158 18.1476C13.7123 17.5412 13.9125 16.1099 15.0345 15.6768C15.0788 15.3301 15.3747 15.0615 15.7336 15.0615C16.0718 15.0615 16.3638 15.3029 16.4266 15.6359C16.6087 15.6914 16.7535 15.7615 16.8566 15.8208C17.12 15.9257 17.3063 16.1825 17.3063 16.4836C17.3063 17.0785 16.6234 17.4041 16.1621 17.0513C16.1588 17.0508 16.1566 17.05 16.1565 17.0471C15.9977 16.9235 15.5856 16.934 15.4852 17.0256C15.6056 17.0705 15.6599 17.0908 15.7142 17.111Z" fill="white"/>
<path d="M16.47 8.78959L16.67 8.79051V8.79005L16.47 8.78959ZM16.3626 5.6036L16.5229 5.48394L16.5229 5.48394L16.3626 5.6036ZM16.47 8.79084L16.27 8.78992V8.79084H16.47ZM16.47 8.79311L16.67 8.79356V8.79311H16.47ZM16.4656 12.0926H16.2656V12.2703L16.4421 12.2912L16.4656 12.0926ZM6.75792 0.00231485L6.75825 0.202315L6.75792 0.00231485ZM10.8271 0.0857728L10.9428 -0.077333V-0.077333L10.8271 0.0857728ZM10.8474 0.101003L10.7255 0.259564L10.7312 0.263893L10.7371 0.267813L10.8474 0.101003ZM10.8474 0.101008L10.9693 -0.0575658L10.9637 -0.0618883L10.9578 -0.0658015L10.8474 0.101008ZM10.8772 0.123013L10.7631 0.28764L10.7723 0.293304L10.8772 0.123013ZM16.3 5.52843L16.1449 5.65466L16.1453 5.65515L16.3 5.52843ZM16.3274 5.5608L16.4818 5.43363L16.4789 5.4302L16.3274 5.5608ZM16.3274 5.56085L16.173 5.68802L16.1759 5.69142L16.3274 5.56085ZM11.1966 2.41643L11.338 2.27501L10.9966 1.93359V2.41643H11.1966ZM14.0564 5.27627V5.47627H14.5393L14.1979 5.13485L14.0564 5.27627ZM11.1966 5.27627H10.9966V5.47627H11.1966V5.27627ZM1.41134 22.5887H1.21134V22.7887H1.41134V22.5887ZM1.41134 1.41862V1.21862H1.21134V1.41862H1.41134ZM11.9079 22.5887V22.7887H12.4542L12.037 22.4359L11.9079 22.5887ZM15.0543 12.0926L15.0778 12.2912L15.2543 12.2703V12.0926H15.0543ZM15.0543 6.68761H15.2543V6.48761H15.0543V6.68761ZM9.78527 1.41862H9.98527V1.21862H9.78527V1.41862ZM4.92391 11.1575L5.00501 10.9747L5.00499 10.9747L4.92391 11.1575ZM5.85506 10.7985L5.67223 10.7175L5.67223 10.7175L5.85506 10.7985ZM4.56491 10.2264L4.38208 10.1453L4.38207 10.1453L4.56491 10.2264ZM6.92316 4.90865L6.74033 4.82757L6.74033 4.82757L6.92316 4.90865ZM7.85431 4.54965L7.93538 4.36682L7.93537 4.36681L7.85431 4.54965ZM8.21331 5.4808L8.39614 5.56188L8.39614 5.56187L8.21331 5.4808ZM16.396 17.3648L16.3261 17.5526L16.3381 17.5562L16.396 17.3648ZM15.7142 17.111L15.7841 16.9236H15.7841L15.7142 17.111ZM16.436 20.4175L16.3674 20.2296L16.2479 20.2732L16.2368 20.3999L16.436 20.4175ZM15.7576 21.0596L15.751 20.8597L15.7462 20.86L15.7576 21.0596ZM15.0411 20.489L15.2375 20.4509L15.2118 20.3186L15.0795 20.2927L15.0411 20.489ZM14.2865 20.195L14.3843 20.0205L14.3841 20.0204L14.2865 20.195ZM14.0151 19.2348L14.1896 19.3325L14.0151 19.2348ZM14.9753 18.9633L14.8776 19.1379L14.8777 19.1379L14.9753 18.9633ZM15.7294 19.1275V18.9275L15.7282 18.9275L15.7294 19.1275ZM16.1824 18.8613L16.3803 18.8903L16.3804 18.8899L16.1824 18.8613ZM15.7488 18.6387L15.808 18.4477H15.808L15.7488 18.6387ZM14.6158 18.1476L14.5044 18.3137L14.5046 18.3138L14.6158 18.1476ZM15.0345 15.6768L15.1066 15.8634L15.2178 15.8204L15.2329 15.7021L15.0345 15.6768ZM16.4266 15.6359L16.23 15.6729L16.2525 15.7919L16.3683 15.8272L16.4266 15.6359ZM16.8566 15.8208L16.7568 15.9941L16.7693 16.0013L16.7826 16.0066L16.8566 15.8208ZM16.1621 17.0513L16.2835 16.8924L16.241 16.8599L16.1879 16.8529L16.1621 17.0513ZM16.1565 17.0471L16.3564 17.0407L16.3533 16.9469L16.2793 16.8892L16.1565 17.0471ZM15.4852 17.0256L15.3504 16.8778L15.1085 17.0985L15.4153 17.213L15.4852 17.0256ZM16.67 8.79005C16.6732 7.39543 16.675 6.63252 16.6615 6.20009C16.6486 5.78534 16.6242 5.61958 16.5229 5.48394L16.2024 5.72325C16.2154 5.74077 16.2479 5.77107 16.2617 6.21256C16.2749 6.63636 16.2732 7.38987 16.27 8.78913L16.67 8.79005ZM16.67 8.79176L16.67 8.79051L16.27 8.78868L16.27 8.78992L16.67 8.79176ZM16.67 8.79125V8.79084H16.27V8.79125H16.67ZM16.67 8.79175V8.79125H16.27V8.79175H16.67ZM16.67 8.79237V8.79175H16.27V8.79237H16.67ZM16.67 8.79311V8.79237H16.27V8.79311H16.67ZM16.6656 12.0926C16.6656 10.7147 16.6681 9.63772 16.67 8.79356L16.27 8.79265C16.2681 9.63684 16.2656 10.7142 16.2656 12.0926H16.6656ZM21.9346 18.0253C21.9346 14.8671 19.5513 12.2562 16.4891 11.8939L16.4421 12.2912C19.3056 12.6299 21.5346 15.0725 21.5346 18.0253H21.9346ZM15.7599 24.2C19.1649 24.2 21.9346 21.4303 21.9346 18.0253H21.5346C21.5346 21.2094 18.944 23.8 15.7599 23.8V24.2ZM1.41134 24.2H15.7599V23.8H1.41134V24.2ZM-0.2 22.5887C-0.2 23.4772 0.522763 24.2 1.41134 24.2V23.8C0.743677 23.8 0.2 23.2563 0.2 22.5887H-0.2ZM-0.2 1.41862V22.5887H0.2V1.41862H-0.2ZM1.41134 -0.192716C0.522763 -0.192716 -0.2 0.530046 -0.2 1.41862H0.2C0.2 0.75096 0.743677 0.207284 1.41134 0.207284V-0.192716ZM6.7576 -0.197685C5.45415 -0.195552 3.72097 -0.192716 1.41134 -0.192716V0.207284C3.72132 0.207284 5.45476 0.204447 6.75825 0.202315L6.7576 -0.197685ZM10.9428 -0.077333C10.8765 -0.124423 10.8066 -0.149076 10.6917 -0.164322C10.5849 -0.178502 10.4215 -0.186749 10.1558 -0.191936C9.62058 -0.202382 8.63194 -0.200752 6.7576 -0.197685L6.75825 0.202315C8.63565 0.199243 9.61824 0.197648 10.148 0.207988C10.4147 0.213195 10.5573 0.221344 10.6391 0.232201C10.679 0.237491 10.6969 0.24253 10.704 0.245012C10.7077 0.246297 10.7079 0.246418 10.7113 0.248879L10.9428 -0.077333ZM10.9693 -0.0575582C10.9629 -0.0625098 10.9533 -0.0699357 10.9428 -0.077333L10.7113 0.248879C10.7145 0.251109 10.7181 0.253828 10.7255 0.259564L10.9693 -0.0575582ZM10.9578 -0.0658015L10.9578 -0.0658072L10.7371 0.267813L10.7371 0.267818L10.9578 -0.0658015ZM10.9911 -0.0413742C10.9844 -0.0460185 10.9785 -0.0505382 10.9693 -0.0575658L10.7256 0.259583C10.7343 0.266307 10.7474 0.276439 10.7633 0.2874L10.9911 -0.0413742ZM16.4551 5.4022C16.4506 5.39679 16.4449 5.39062 16.444 5.38968C16.4436 5.38927 16.443 5.38863 16.4427 5.38834C16.4422 5.38783 16.4417 5.38731 16.4413 5.38691C16.4405 5.38604 16.4393 5.3849 16.438 5.38355C16.4353 5.38082 16.4314 5.37684 16.4263 5.37171C16.416 5.36141 16.4009 5.34624 16.3813 5.32655C16.3421 5.28714 16.2847 5.2295 16.2117 5.15622C16.0657 5.00965 15.8573 4.80047 15.607 4.5494C15.1063 4.04727 14.438 3.37755 13.7667 2.706C13.0954 2.0345 12.4209 1.36102 11.9078 0.851442C11.6513 0.596699 11.4348 0.38264 11.2792 0.230185C11.2014 0.154034 11.1384 0.0927819 11.0929 0.0493643C11.0703 0.0277541 11.0513 0.00984562 11.0367 -0.00352306C11.0295 -0.0101233 11.0224 -0.016501 11.016 -0.0220105C11.0137 -0.0239466 10.9992 -0.036709 10.9821 -0.0472781L10.7723 0.293304C10.7583 0.284692 10.7495 0.276462 10.7555 0.281554C10.7572 0.283072 10.7608 0.286216 10.7666 0.291553C10.7781 0.302057 10.7947 0.317678 10.8166 0.338605C10.8602 0.380262 10.9219 0.440119 10.9993 0.515931C11.1539 0.667402 11.3696 0.880685 11.6259 1.13526C12.1385 1.64432 12.8126 2.31738 13.4838 2.9888C14.155 3.66019 14.8231 4.32978 15.3237 4.83183C15.574 5.08285 15.7824 5.29198 15.9283 5.4385C16.0013 5.51176 16.0587 5.56935 16.0978 5.6087C16.1174 5.62838 16.1324 5.64346 16.1425 5.65366C16.1476 5.65876 16.1514 5.66259 16.1539 5.66513C16.1552 5.66642 16.156 5.66728 16.1565 5.66779C16.1568 5.66807 16.1568 5.66807 16.1567 5.66792C16.1566 5.66782 16.1561 5.66732 16.1558 5.667C16.155 5.66616 16.1494 5.66006 16.1449 5.65466L16.4551 5.4022ZM16.4789 5.4302C16.4701 5.42007 16.4626 5.41128 16.4547 5.40172L16.1453 5.65515C16.1567 5.66915 16.1674 5.68152 16.1759 5.6914L16.4789 5.4302ZM16.4818 5.43371L16.4818 5.43366L16.173 5.68794L16.173 5.68799L16.4818 5.43371ZM16.5229 5.48394C16.5073 5.46302 16.4908 5.44411 16.4789 5.43028L16.1759 5.69142C16.1896 5.70728 16.1966 5.71552 16.2024 5.72325L16.5229 5.48394ZM11.0552 2.55786L13.915 5.41769L14.1979 5.13485L11.338 2.27501L11.0552 2.55786ZM11.3966 5.27627V2.41643H10.9966V5.27627H11.3966ZM14.0564 5.07627H11.1966V5.47627H14.0564V5.07627ZM1.61134 22.5887V1.41862H1.21134V22.5887H1.61134ZM11.9079 22.3887H1.41134V22.7887H11.9079V22.3887ZM9.58527 18.0253C9.58527 19.9151 10.4389 21.6086 11.7788 22.7414L12.037 22.4359C10.7829 21.3755 9.98527 19.7919 9.98527 18.0253H9.58527ZM15.0308 11.8939C11.9686 12.2562 9.58527 14.8671 9.58527 18.0253H9.98527C9.98527 15.0725 12.2142 12.6299 15.0778 12.2912L15.0308 11.8939ZM14.8543 6.68761V12.0926H15.2543V6.68761H14.8543ZM11.1966 6.88761H15.0543V6.48761H11.1966V6.88761ZM9.58527 5.27627C9.58527 6.16485 10.308 6.88761 11.1966 6.88761V6.48761C10.5289 6.48761 9.98527 5.94393 9.98527 5.27627H9.58527ZM9.58527 1.41862V5.27627H9.98527V1.41862H9.58527ZM1.41134 1.61862H9.78527V1.21862H1.41134V1.61862ZM15.7599 22.3887C13.354 22.3887 11.3966 20.4313 11.3966 18.0253H10.9966C10.9966 20.6522 13.1331 22.7887 15.7599 22.7887V22.3887ZM20.1232 18.0253C20.1232 20.4313 18.1659 22.3887 15.7599 22.3887V22.7887C18.3868 22.7887 20.5232 20.6522 20.5232 18.0253H20.1232ZM15.7599 13.662C18.1659 13.662 20.1232 15.6194 20.1232 18.0253H20.5232C20.5232 15.3985 18.3868 13.262 15.7599 13.262V13.662ZM11.3966 18.0253C11.3966 15.6194 13.354 13.662 15.7599 13.662V13.262C13.1331 13.262 10.9966 15.3985 10.9966 18.0253H11.3966ZM4.8428 11.3403C5.30014 11.5432 5.8352 11.3367 6.03789 10.8796L5.67223 10.7175C5.55906 10.9727 5.2603 11.088 5.00501 10.9747L4.8428 11.3403ZM4.38207 10.1453C4.17934 10.6026 4.38563 11.1376 4.84283 11.3404L5.00499 10.9747C4.74974 10.8615 4.63453 10.5628 4.74775 10.3074L4.38207 10.1453ZM6.74033 4.82757L4.38208 10.1453L4.74774 10.3075L7.10599 4.98972L6.74033 4.82757ZM7.93537 4.36681C7.4781 4.16408 6.94309 4.37037 6.74033 4.82757L7.10599 4.98973C7.21918 4.73448 7.51789 4.61927 7.77325 4.73248L7.93537 4.36681ZM8.39614 5.56187C8.59888 5.10465 8.39265 4.56958 7.93538 4.36682L7.77324 4.73248C8.02851 4.84567 8.14369 5.14441 8.03048 5.39973L8.39614 5.56187ZM6.03789 10.8796L8.39614 5.56188L8.03048 5.39972L5.67223 10.7175L6.03789 10.8796ZM5.40486 6.00213C5.40486 6.53209 4.99053 6.95095 4.49602 6.95095V7.35095C5.22467 7.35095 5.80486 6.73954 5.80486 6.00213H5.40486ZM4.49602 5.05283C4.99042 5.05283 5.40486 5.47205 5.40486 6.00213H5.80486C5.80486 5.26482 5.22477 4.65283 4.49602 4.65283V5.05283ZM3.58718 6.00213C3.58718 5.47205 4.00161 5.05283 4.49602 5.05283V4.65283C3.76726 4.65283 3.18718 5.26482 3.18718 6.00213H3.58718ZM4.49602 6.95095C4.00151 6.95095 3.58718 6.53209 3.58718 6.00213H3.18718C3.18718 6.73954 3.76737 7.35095 4.49602 7.35095V6.95095ZM8.21264 8.36944C7.48388 8.36944 6.9038 8.98143 6.9038 9.71874H7.3038C7.3038 9.18866 7.71824 8.76944 8.21264 8.76944V8.36944ZM9.52148 9.71874C9.52148 8.98143 8.94139 8.36944 8.21264 8.36944V8.76944C8.70704 8.76944 9.12148 9.18866 9.12148 9.71874H9.52148ZM8.21264 11.0676C8.94129 11.0676 9.52148 10.4562 9.52148 9.71874H9.12148C9.12148 10.2487 8.70715 10.6676 8.21264 10.6676V11.0676ZM6.9038 9.71874C6.9038 10.4562 7.48399 11.0676 8.21264 11.0676V10.6676C7.71813 10.6676 7.3038 10.2487 7.3038 9.71874H6.9038ZM3.71654 13.3797H7.85646V12.9797H3.71654V13.3797ZM3.21087 13.8854C3.21087 13.6061 3.43728 13.3797 3.71654 13.3797V12.9797C3.21636 12.9797 2.81087 13.3852 2.81087 13.8854H3.21087ZM3.71654 14.3911C3.43728 14.3911 3.21087 14.1647 3.21087 13.8854H2.81087C2.81087 14.3856 3.21636 14.7911 3.71654 14.7911V14.3911ZM7.85646 14.3911H3.71654V14.7911H7.85646V14.3911ZM8.36212 13.8854C8.36212 14.1647 8.13572 14.3911 7.85646 14.3911V14.7911C8.35663 14.7911 8.76212 14.3856 8.76212 13.8854H8.36212ZM7.85646 13.3797C8.13575 13.3797 8.36212 13.6061 8.36212 13.8854H8.76212C8.76212 13.3852 8.35669 12.9797 7.85646 12.9797V13.3797ZM3.71654 17.8019H7.10374V17.4019H3.71654V17.8019ZM2.81087 16.8963C2.81087 17.3964 3.21636 17.8019 3.71654 17.8019V17.4019C3.43728 17.4019 3.21087 17.1755 3.21087 16.8963H2.81087ZM3.71654 15.9906C3.21636 15.9906 2.81087 16.3961 2.81087 16.8963H3.21087C3.21087 16.617 3.43728 16.3906 3.71654 16.3906V15.9906ZM7.10374 15.9906H3.71654V16.3906H7.10374V15.9906ZM8.00941 16.8963C8.00941 16.3961 7.60392 15.9906 7.10374 15.9906V16.3906C7.383 16.3906 7.60941 16.617 7.60941 16.8963H8.00941ZM7.10374 17.8019C7.60392 17.8019 8.00941 17.3964 8.00941 16.8963H7.60941C7.60941 17.1755 7.383 17.4019 7.10374 17.4019V17.8019ZM3.71654 19.4015H7.85646V19.0015H3.71654V19.4015ZM3.21087 19.9072C3.21087 19.6279 3.43728 19.4015 3.71654 19.4015V19.0015C3.21636 19.0015 2.81087 19.407 2.81087 19.9072H3.21087ZM3.71654 20.4128C3.43728 20.4128 3.21087 20.1864 3.21087 19.9072H2.81087C2.81087 20.4073 3.21636 20.8128 3.71654 20.8128V20.4128ZM7.85646 20.4128H3.71654V20.8128H7.85646V20.4128ZM8.36212 19.9072C8.36212 20.1864 8.13572 20.4128 7.85646 20.4128V20.8128C8.35663 20.8128 8.76212 20.4073 8.76212 19.9072H8.36212ZM7.85646 19.4015C8.13575 19.4015 8.36212 19.6279 8.36212 19.9072H8.76212C8.76212 19.407 8.35669 19.0015 7.85646 19.0015V19.4015ZM16.4658 17.1773C15.9798 16.9965 15.882 16.9601 15.7841 16.9236L15.6444 17.2984C15.7424 17.3349 15.8404 17.3714 16.3263 17.5522L16.4658 17.1773ZM16.5046 20.6054C17.3272 20.3051 17.7812 19.5931 17.7917 18.8766C17.8023 18.1527 17.3601 17.4474 16.4539 17.1733L16.3381 17.5562C17.0767 17.7796 17.3997 18.3287 17.3918 18.8707C17.3837 19.4202 17.0353 19.9858 16.3674 20.2296L16.5046 20.6054ZM15.7642 21.2595C16.2237 21.2444 16.5954 20.8868 16.6352 20.4351L16.2368 20.3999C16.2145 20.6519 16.0066 20.8513 15.751 20.8598L15.7642 21.2595ZM14.8448 20.5271C14.9321 20.9774 15.3439 21.2837 15.7691 21.2593L15.7462 20.86C15.5207 20.8729 15.2867 20.7046 15.2375 20.4509L14.8448 20.5271ZM14.1887 20.3694C14.4865 20.5363 14.737 20.6333 15.0027 20.6853L15.0795 20.2927C14.8644 20.2506 14.6539 20.1716 14.3843 20.0205L14.1887 20.3694ZM13.8406 19.137C13.596 19.5737 13.7525 20.1257 14.189 20.3696L14.3841 20.0204C14.1403 19.8842 14.0531 19.5761 14.1896 19.3325L13.8406 19.137ZM15.0729 18.7888C14.6368 18.5448 14.085 18.7007 13.8406 19.137L14.1896 19.3325C14.3262 19.0886 14.6344 19.0018 14.8776 19.1379L15.0729 18.7888ZM15.7282 18.9275C15.5314 18.9287 15.433 18.9254 15.3516 18.9084C15.2761 18.8927 15.2056 18.863 15.0728 18.7887L14.8777 19.1379C15.021 19.218 15.134 19.2716 15.2698 19.3C15.3996 19.3271 15.5402 19.3287 15.7306 19.3275L15.7282 18.9275ZM15.9845 18.8322C15.9869 18.8165 15.9873 18.8395 15.9403 18.8716C15.8992 18.8998 15.8301 18.9275 15.7294 18.9275V19.3275C15.905 19.3275 16.0541 19.2785 16.1663 19.2017C16.2727 19.1289 16.3614 19.0188 16.3803 18.8903L15.9845 18.8322ZM15.6896 18.8298C15.8285 18.8728 15.9254 18.9032 15.9877 18.9315C16.0196 18.946 16.0246 18.9523 16.0192 18.9471C16.0098 18.9381 15.9752 18.8969 15.9845 18.8326L16.3804 18.8899C16.3958 18.7834 16.3434 18.7036 16.2955 18.6579C16.2517 18.616 16.1976 18.5875 16.153 18.5672C16.0622 18.526 15.9362 18.4874 15.808 18.4477L15.6896 18.8298ZM14.5046 18.3138C14.9213 18.5929 15.38 18.7338 15.6896 18.8298L15.808 18.4477C15.4942 18.3505 15.089 18.2238 14.7271 17.9814L14.5046 18.3138ZM14.9625 15.4902C13.7146 15.972 13.4447 17.6025 14.5044 18.3137L14.7273 17.9815C13.9799 17.48 14.1105 16.2479 15.1066 15.8634L14.9625 15.4902ZM15.7336 14.8615C15.2724 14.8615 14.8929 15.2065 14.8361 15.6515L15.2329 15.7021C15.2646 15.4537 15.4769 15.2615 15.7336 15.2615V14.8615ZM16.6231 15.5988C16.5425 15.1712 16.1678 14.8615 15.7336 14.8615V15.2615C15.9758 15.2615 16.1851 15.4347 16.23 15.6729L16.6231 15.5988ZM16.9563 15.6474C16.8422 15.5818 16.6835 15.5051 16.4849 15.4446L16.3683 15.8272C16.5338 15.8777 16.6649 15.9412 16.7568 15.9941L16.9563 15.6474ZM17.5063 16.4836C17.5063 16.0977 17.2673 15.7691 16.9306 15.635L16.7826 16.0066C16.9727 16.0823 17.1063 16.2674 17.1063 16.4836H17.5063ZM16.0406 17.2101C16.6314 17.662 17.5063 17.2468 17.5063 16.4836H17.1063C17.1063 16.9102 16.6153 17.1461 16.2835 16.8924L16.0406 17.2101ZM15.9566 17.0535C15.9586 17.1179 15.9913 17.1808 16.0502 17.2185C16.0912 17.2448 16.1312 17.2489 16.1362 17.2496L16.1879 16.8529C16.1896 16.8532 16.2269 16.8567 16.266 16.8817C16.2892 16.8966 16.3137 16.9193 16.3318 16.9518C16.3496 16.9838 16.3555 17.0155 16.3564 17.0407L15.9566 17.0535ZM15.62 17.1733C15.6048 17.1872 15.6061 17.1784 15.6523 17.1684C15.6905 17.1602 15.7413 17.1551 15.7969 17.1557C15.8524 17.1562 15.9067 17.1624 15.9522 17.1732C16.0002 17.1847 16.0252 17.1984 16.0336 17.2049L16.2793 16.8892C16.2083 16.834 16.1222 16.8026 16.0452 16.7842C15.9657 16.7652 15.8809 16.7565 15.801 16.7557C15.7212 16.7549 15.6402 16.7618 15.5679 16.7774C15.5036 16.7913 15.4158 16.8182 15.3504 16.8778L15.62 17.1733ZM15.7841 16.9236C15.7298 16.9034 15.6756 16.8831 15.5551 16.8382L15.4153 17.213C15.5357 17.2579 15.5901 17.2782 15.6444 17.2984L15.7841 16.9236Z" fill="#2F5E4E" mask="url(#path-1-inside-1)"/>
</svg>
