<svg width="24" height="24" viewBox="0 0 24 24" fill="none" xmlns="http://www.w3.org/2000/svg">
<path d="M8.9713 19.896V17.1441C8.9713 16.4416 9.54495 15.8721 10.2526 15.8721H12.8393C13.1792 15.8721 13.5051 16.0061 13.7454 16.2446C13.9856 16.4832 14.1206 16.8067 14.1206 17.1441V19.896C14.1185 20.1881 14.2339 20.4689 14.4411 20.6762C14.6484 20.8834 14.9304 21 15.2246 21H16.9894C17.8137 21.0021 18.6049 20.6786 19.1885 20.1007C19.772 19.5229 20.1 18.7383 20.1 17.92V10.0802C20.1 9.41921 19.8049 8.79226 19.2942 8.3682L13.2906 3.60828C12.2463 2.77371 10.75 2.80065 9.73685 3.67228L3.87031 8.3682C3.33547 8.77976 3.0158 9.40857 3 10.0802V17.912C3 19.6175 4.39264 21 6.11056 21H7.83506C8.4461 21 8.9427 20.5106 8.94713 19.904L8.9713 19.896Z" fill="#636363"/>
</svg>
