<svg width="180" height="180" viewBox="0 0 180 180" fill="none" xmlns="http://www.w3.org/2000/svg">
<circle cx="90" cy="90" r="90" fill="#CCD7D4"/>
<mask id="mask0" mask-type="alpha" maskUnits="userSpaceOnUse" x="0" y="0" width="180" height="180">
<circle cx="90" cy="90" r="90" fill="#CCD7D4"/>
</mask>
<g mask="url(#mask0)">
<path opacity="0.3" fill-rule="evenodd" clip-rule="evenodd" d="M122.881 71.8214C122.881 89.3959 108.634 103.643 91.0597 103.643C73.4852 103.643 59.2382 89.3959 59.2382 71.8214C59.2382 54.2469 73.4852 40 91.0597 40C108.634 40 122.881 54.2469 122.881 71.8214ZM135.893 131.074C147.709 145.118 154.355 164.516 154.688 185.848C148.498 189.199 122.774 202 91.0586 202C61.7286 202 34.1054 189.124 27.4302 185.78C27.7773 164.474 34.419 145.103 46.224 131.074C57.9715 117.116 73.8923 109.429 91.0586 109.429C108.225 109.429 124.146 117.116 135.893 131.074Z" fill="white"/>
</g>
</svg>
