<svg width="24" height="24" viewBox="0 0 24 24" fill="none" xmlns="http://www.w3.org/2000/svg">
<mask id="path-1-inside-1" fill="white">
<path fill-rule="evenodd" clip-rule="evenodd" d="M11.2469 24H12.7531C13.9714 24 14.9625 23.0089 14.9625 21.7907V21.2812C15.4804 21.1156 15.9836 20.9068 16.467 20.6566L16.8278 21.0174C17.7008 21.8914 19.1015 21.8701 19.9527 21.0177L21.0174 19.9531C21.8685 19.1029 21.8926 17.7022 21.0177 16.8282L20.6565 16.467C20.9067 15.9836 21.1155 15.4805 21.2811 14.9625H21.7906C23.0088 14.9625 24 13.9714 24 12.7531V11.2469C24 10.0286 23.0088 9.0375 21.7906 9.0375H21.2811C21.1155 8.51948 20.9067 8.01638 20.6565 7.53295L21.0174 7.17211C21.8929 6.29756 21.8684 4.89698 21.0177 4.04719L19.9531 2.98266C19.1039 2.1323 17.7028 2.10661 16.8282 2.98233L16.467 3.34345C15.9836 3.09328 15.4804 2.88441 14.9625 2.71894V2.20936C14.9625 0.991125 13.9714 0 12.7531 0H11.2469C10.0286 0 9.0375 0.991125 9.0375 2.20936V2.71889C8.51958 2.88441 8.01638 3.09328 7.53295 3.34341L7.17216 2.98261C6.2992 2.10867 4.89848 2.12995 4.04728 2.98233L2.98261 4.04695C2.1315 4.89712 2.10736 6.29784 2.98233 7.17188L3.34345 7.53295C3.09328 8.01638 2.88445 8.51953 2.71894 9.0375H2.20941C0.991172 9.0375 0 10.0286 0 11.2469V12.7531C0 13.9714 0.991172 14.9625 2.20936 14.9625H2.71889C2.88441 15.4805 3.09323 15.9836 3.34341 16.467L2.98256 16.8279C2.10708 17.7024 2.13155 19.103 2.98228 19.9528L4.04686 21.0173C4.89609 21.8677 6.29714 21.8934 7.17178 21.0177L7.53291 20.6565C8.01633 20.9067 8.51953 21.1156 9.03745 21.2811V21.7906C9.03745 23.0089 10.0286 24 11.2469 24ZM9.91631 20.0716C9.16238 19.8771 8.43956 19.577 7.76798 19.1798C7.428 18.9788 7.08005 19.1206 6.9128 19.2878L6.17714 20.0235C5.85961 20.3415 5.35036 20.3325 5.04159 20.0233L3.97636 18.958C3.66703 18.6491 3.65873 18.14 3.97664 17.8225L4.71206 17.0871C4.93903 16.8601 4.98347 16.5083 4.82011 16.232C4.42298 15.5604 4.12294 14.8376 3.92836 14.0836C3.8482 13.7732 3.56822 13.5563 3.24755 13.5563H2.20941C1.76658 13.5563 1.40625 13.196 1.40625 12.7531V11.2469C1.40625 10.804 1.76658 10.4437 2.20941 10.4437H3.24759C3.56822 10.4437 3.84825 10.2268 3.92841 9.91631C4.12298 9.16233 4.42298 8.43952 4.82016 7.76798C4.98352 7.4917 4.93908 7.13986 4.71211 6.91289L3.97641 6.17719C3.65784 5.859 3.66816 5.3498 3.97669 5.04164L5.04202 3.97636C5.35125 3.66661 5.86045 3.65925 6.17752 3.97669L6.91289 4.71211C7.13986 4.93908 7.49166 4.98352 7.76803 4.82016C8.43961 4.42298 9.16242 4.12294 9.91636 3.92836C10.2269 3.84825 10.4438 3.56822 10.4438 3.24755V2.20936C10.4438 1.76653 10.8041 1.40625 11.247 1.40625H12.7532C13.196 1.40625 13.5563 1.76653 13.5563 2.20936V3.24764C13.5563 3.56831 13.7733 3.84834 14.0838 3.92845C14.8377 4.12303 15.5605 4.42308 16.2321 4.82025C16.5083 4.98366 16.8603 4.93922 17.0872 4.7122L17.8229 3.9765C18.1404 3.65855 18.6497 3.66759 18.9585 3.97678L20.0237 5.04202C20.333 5.35097 20.3413 5.86003 20.0234 6.17756L19.288 6.91298C19.061 7.13995 19.0166 7.4918 19.1799 7.76808C19.5771 8.43961 19.8771 9.16242 20.0717 9.91641C20.1518 10.2269 20.4318 10.4438 20.7525 10.4438H21.7906C22.2335 10.4438 22.5938 10.8041 22.5938 11.2469V12.7532C22.5938 13.196 22.2335 13.5563 21.7906 13.5563H20.7525C20.4319 13.5563 20.1518 13.7732 20.0717 14.0837C19.8771 14.8377 19.5771 15.5605 19.1799 16.232C19.0166 16.5083 19.061 16.8601 19.288 17.0871L20.0237 17.8228C20.3422 18.141 20.3319 18.6502 20.0234 18.9584L18.9581 20.0236C18.6488 20.3334 18.1396 20.3407 17.8226 20.0233L17.0872 19.2879C16.8602 19.0609 16.5084 19.0164 16.2321 19.1798C15.5605 19.577 14.8377 19.8771 14.0837 20.0716C13.7732 20.1518 13.5563 20.4318 13.5563 20.7525V21.7906C13.5563 22.2335 13.196 22.5938 12.7531 22.5938H11.2469C10.8041 22.5938 10.4438 22.2335 10.4438 21.7906V20.7525C10.4438 20.4318 10.2268 20.1518 9.91631 20.0716ZM6.77838 12C6.77838 14.8793 9.12087 17.2219 12.0003 17.2219C14.8796 17.2219 17.2221 14.8793 17.2221 12C17.2221 9.12064 14.8796 6.77811 12.0003 6.77811C9.12087 6.77811 6.77838 9.12064 6.77838 12ZM8.18463 12C8.18463 9.89604 9.89627 8.18436 12.0003 8.18436C14.1042 8.18436 15.8159 9.89604 15.8159 12C15.8159 14.1039 14.1042 15.8156 12.0003 15.8156C9.89632 15.8156 8.18463 14.1039 8.18463 12Z"/>
</mask>
<path fill-rule="evenodd" clip-rule="evenodd" d="M11.2469 24H12.7531C13.9714 24 14.9625 23.0089 14.9625 21.7907V21.2812C15.4804 21.1156 15.9836 20.9068 16.467 20.6566L16.8278 21.0174C17.7008 21.8914 19.1015 21.8701 19.9527 21.0177L21.0174 19.9531C21.8685 19.1029 21.8926 17.7022 21.0177 16.8282L20.6565 16.467C20.9067 15.9836 21.1155 15.4805 21.2811 14.9625H21.7906C23.0088 14.9625 24 13.9714 24 12.7531V11.2469C24 10.0286 23.0088 9.0375 21.7906 9.0375H21.2811C21.1155 8.51948 20.9067 8.01638 20.6565 7.53295L21.0174 7.17211C21.8929 6.29756 21.8684 4.89698 21.0177 4.04719L19.9531 2.98266C19.1039 2.1323 17.7028 2.10661 16.8282 2.98233L16.467 3.34345C15.9836 3.09328 15.4804 2.88441 14.9625 2.71894V2.20936C14.9625 0.991125 13.9714 0 12.7531 0H11.2469C10.0286 0 9.0375 0.991125 9.0375 2.20936V2.71889C8.51958 2.88441 8.01638 3.09328 7.53295 3.34341L7.17216 2.98261C6.2992 2.10867 4.89848 2.12995 4.04728 2.98233L2.98261 4.04695C2.1315 4.89712 2.10736 6.29784 2.98233 7.17188L3.34345 7.53295C3.09328 8.01638 2.88445 8.51953 2.71894 9.0375H2.20941C0.991172 9.0375 0 10.0286 0 11.2469V12.7531C0 13.9714 0.991172 14.9625 2.20936 14.9625H2.71889C2.88441 15.4805 3.09323 15.9836 3.34341 16.467L2.98256 16.8279C2.10708 17.7024 2.13155 19.103 2.98228 19.9528L4.04686 21.0173C4.89609 21.8677 6.29714 21.8934 7.17178 21.0177L7.53291 20.6565C8.01633 20.9067 8.51953 21.1156 9.03745 21.2811V21.7906C9.03745 23.0089 10.0286 24 11.2469 24ZM9.91631 20.0716C9.16238 19.8771 8.43956 19.577 7.76798 19.1798C7.428 18.9788 7.08005 19.1206 6.9128 19.2878L6.17714 20.0235C5.85961 20.3415 5.35036 20.3325 5.04159 20.0233L3.97636 18.958C3.66703 18.6491 3.65873 18.14 3.97664 17.8225L4.71206 17.0871C4.93903 16.8601 4.98347 16.5083 4.82011 16.232C4.42298 15.5604 4.12294 14.8376 3.92836 14.0836C3.8482 13.7732 3.56822 13.5563 3.24755 13.5563H2.20941C1.76658 13.5563 1.40625 13.196 1.40625 12.7531V11.2469C1.40625 10.804 1.76658 10.4437 2.20941 10.4437H3.24759C3.56822 10.4437 3.84825 10.2268 3.92841 9.91631C4.12298 9.16233 4.42298 8.43952 4.82016 7.76798C4.98352 7.4917 4.93908 7.13986 4.71211 6.91289L3.97641 6.17719C3.65784 5.859 3.66816 5.3498 3.97669 5.04164L5.04202 3.97636C5.35125 3.66661 5.86045 3.65925 6.17752 3.97669L6.91289 4.71211C7.13986 4.93908 7.49166 4.98352 7.76803 4.82016C8.43961 4.42298 9.16242 4.12294 9.91636 3.92836C10.2269 3.84825 10.4438 3.56822 10.4438 3.24755V2.20936C10.4438 1.76653 10.8041 1.40625 11.247 1.40625H12.7532C13.196 1.40625 13.5563 1.76653 13.5563 2.20936V3.24764C13.5563 3.56831 13.7733 3.84834 14.0838 3.92845C14.8377 4.12303 15.5605 4.42308 16.2321 4.82025C16.5083 4.98366 16.8603 4.93922 17.0872 4.7122L17.8229 3.9765C18.1404 3.65855 18.6497 3.66759 18.9585 3.97678L20.0237 5.04202C20.333 5.35097 20.3413 5.86003 20.0234 6.17756L19.288 6.91298C19.061 7.13995 19.0166 7.4918 19.1799 7.76808C19.5771 8.43961 19.8771 9.16242 20.0717 9.91641C20.1518 10.2269 20.4318 10.4438 20.7525 10.4438H21.7906C22.2335 10.4438 22.5938 10.8041 22.5938 11.2469V12.7532C22.5938 13.196 22.2335 13.5563 21.7906 13.5563H20.7525C20.4319 13.5563 20.1518 13.7732 20.0717 14.0837C19.8771 14.8377 19.5771 15.5605 19.1799 16.232C19.0166 16.5083 19.061 16.8601 19.288 17.0871L20.0237 17.8228C20.3422 18.141 20.3319 18.6502 20.0234 18.9584L18.9581 20.0236C18.6488 20.3334 18.1396 20.3407 17.8226 20.0233L17.0872 19.2879C16.8602 19.0609 16.5084 19.0164 16.2321 19.1798C15.5605 19.577 14.8377 19.8771 14.0837 20.0716C13.7732 20.1518 13.5563 20.4318 13.5563 20.7525V21.7906C13.5563 22.2335 13.196 22.5938 12.7531 22.5938H11.2469C10.8041 22.5938 10.4438 22.2335 10.4438 21.7906V20.7525C10.4438 20.4318 10.2268 20.1518 9.91631 20.0716ZM6.77838 12C6.77838 14.8793 9.12087 17.2219 12.0003 17.2219C14.8796 17.2219 17.2221 14.8793 17.2221 12C17.2221 9.12064 14.8796 6.77811 12.0003 6.77811C9.12087 6.77811 6.77838 9.12064 6.77838 12ZM8.18463 12C8.18463 9.89604 9.89627 8.18436 12.0003 8.18436C14.1042 8.18436 15.8159 9.89604 15.8159 12C15.8159 14.1039 14.1042 15.8156 12.0003 15.8156C9.89632 15.8156 8.18463 14.1039 8.18463 12Z" fill="#003927"/>
<path d="M14.9625 21.2812L14.9321 21.1859L14.8625 21.2081V21.2812H14.9625ZM16.467 20.6566L16.5378 20.5859L16.486 20.5342L16.4211 20.5678L16.467 20.6566ZM16.8278 21.0174L16.8986 20.9468L16.8986 20.9467L16.8278 21.0174ZM19.9527 21.0177L19.882 20.947L19.882 20.9471L19.9527 21.0177ZM21.0174 19.9531L20.9467 19.8823L20.9467 19.8824L21.0174 19.9531ZM21.0177 16.8282L20.947 16.8989L20.947 16.8989L21.0177 16.8282ZM20.6565 16.467L20.5677 16.4211L20.5341 16.486L20.5858 16.5378L20.6565 16.467ZM21.2811 14.9625V14.8625H21.208L21.1858 14.9321L21.2811 14.9625ZM21.2811 9.0375L21.1858 9.06794L21.208 9.1375H21.2811V9.0375ZM20.6565 7.53295L20.5858 7.46224L20.5341 7.51396L20.5677 7.57891L20.6565 7.53295ZM21.0174 7.17211L20.9467 7.10136L20.9467 7.1014L21.0174 7.17211ZM21.0177 4.04719L20.947 4.1179L20.947 4.11794L21.0177 4.04719ZM19.9531 2.98266L19.8823 3.05332L19.8824 3.05337L19.9531 2.98266ZM16.8282 2.98233L16.8989 3.05304L16.8989 3.053L16.8282 2.98233ZM16.467 3.34345L16.4211 3.43227L16.486 3.46588L16.5378 3.41416L16.467 3.34345ZM14.9625 2.71894H14.8625V2.79197L14.9321 2.81419L14.9625 2.71894ZM9.0375 2.71889L9.06794 2.81414L9.1375 2.79192V2.71889H9.0375ZM7.53295 3.34341L7.46224 3.41412L7.51395 3.46583L7.57891 3.43222L7.53295 3.34341ZM7.17216 2.98261L7.10141 3.05328L7.10145 3.05332L7.17216 2.98261ZM4.04728 2.98233L4.11799 3.05304L4.11804 3.05299L4.04728 2.98233ZM2.98261 4.04695L3.05328 4.1177L3.05332 4.11767L2.98261 4.04695ZM2.98233 7.17188L3.05303 7.10116L3.053 7.10113L2.98233 7.17188ZM3.34345 7.53295L3.43227 7.57891L3.46588 7.51395L3.41416 7.46224L3.34345 7.53295ZM2.71894 9.0375V9.1375H2.79196L2.81419 9.06794L2.71894 9.0375ZM2.71889 14.9625L2.81415 14.9321L2.79192 14.8625H2.71889V14.9625ZM3.34341 16.467L3.41412 16.5378L3.46583 16.486L3.43222 16.4211L3.34341 16.467ZM2.98256 16.8279L3.05324 16.8986L3.05327 16.8986L2.98256 16.8279ZM2.98228 19.9528L3.05299 19.8821L3.05295 19.8821L2.98228 19.9528ZM4.04686 21.0173L4.11762 20.9467L4.11757 20.9466L4.04686 21.0173ZM7.17178 21.0177L7.10107 20.947L7.10103 20.947L7.17178 21.0177ZM7.53291 20.6565L7.57887 20.5677L7.51391 20.5341L7.4622 20.5858L7.53291 20.6565ZM9.03745 21.2811H9.13745V21.208L9.06789 21.1858L9.03745 21.2811ZM7.76798 19.1798L7.71707 19.2659L7.71708 19.2659L7.76798 19.1798ZM9.91631 20.0716L9.89132 20.1685L9.89133 20.1685L9.91631 20.0716ZM6.9128 19.2878L6.8421 19.2171L6.84208 19.2171L6.9128 19.2878ZM6.17714 20.0235L6.10643 19.9528L6.10638 19.9529L6.17714 20.0235ZM5.04159 20.0233L5.11235 19.9526L5.1123 19.9526L5.04159 20.0233ZM3.97636 18.958L4.04707 18.8873L4.04703 18.8873L3.97636 18.958ZM3.97664 17.8225L4.04731 17.8932L4.04735 17.8932L3.97664 17.8225ZM4.71206 17.0871L4.78277 17.1578L4.71206 17.0871ZM4.82011 16.232L4.90619 16.1811L4.90618 16.1811L4.82011 16.232ZM3.92836 14.0836L4.02519 14.0587L4.02518 14.0586L3.92836 14.0836ZM2.20941 10.4437V10.3437H2.2094L2.20941 10.4437ZM3.92841 9.91631L4.02523 9.94131L4.02523 9.9413L3.92841 9.91631ZM4.82016 7.76798L4.90623 7.81889L4.90623 7.81888L4.82016 7.76798ZM4.71211 6.91289L4.6414 6.9836L4.71211 6.91289ZM3.97641 6.17719L4.04712 6.10648L4.04708 6.10644L3.97641 6.17719ZM3.97669 5.04164L4.04736 5.11239L4.0474 5.11235L3.97669 5.04164ZM5.04202 3.97636L5.11273 4.04707L5.11279 4.04701L5.04202 3.97636ZM6.17752 3.97669L6.10676 4.04736L6.1068 4.0474L6.17752 3.97669ZM6.91289 4.71211L6.84218 4.78282L6.84218 4.78282L6.91289 4.71211ZM7.76803 4.82016L7.81891 4.90624L7.81894 4.90623L7.76803 4.82016ZM9.91636 3.92836L9.89138 3.83153L9.89137 3.83153L9.91636 3.92836ZM14.0838 3.92845L14.1088 3.83163L14.1088 3.83162L14.0838 3.92845ZM16.2321 4.82025L16.283 4.73418L16.283 4.73418L16.2321 4.82025ZM17.0872 4.7122L17.0165 4.64149L17.0165 4.6415L17.0872 4.7122ZM17.8229 3.9765L17.8936 4.04721L17.8937 4.04716L17.8229 3.9765ZM18.9585 3.97678L18.8877 4.04744L18.8877 4.04749L18.9585 3.97678ZM20.0237 5.04202L19.953 5.11273L19.953 5.11277L20.0237 5.04202ZM20.0234 6.17756L19.9527 6.10681L19.9527 6.10685L20.0234 6.17756ZM19.288 6.91298L19.2173 6.84227L19.288 6.91298ZM19.1799 7.76808L19.0939 7.81897L19.0939 7.81898L19.1799 7.76808ZM20.0717 9.91641L19.9749 9.94139L19.9749 9.94141L20.0717 9.91641ZM20.0717 14.0837L19.9749 14.0587L19.9749 14.0587L20.0717 14.0837ZM19.1799 16.232L19.0939 16.1811L19.0939 16.1811L19.1799 16.232ZM19.288 17.0871L19.2173 17.1578L19.288 17.0871ZM20.0237 17.8228L19.953 17.8935L19.953 17.8936L20.0237 17.8228ZM20.0234 18.9584L19.9527 18.8876L19.9527 18.8876L20.0234 18.9584ZM18.9581 20.0236L18.8874 19.9529L18.8873 19.953L18.9581 20.0236ZM17.8226 20.0233L17.8933 19.9526L17.8933 19.9526L17.8226 20.0233ZM17.0872 19.2879L17.1579 19.2172L17.1579 19.2172L17.0872 19.2879ZM16.2321 19.1798L16.1812 19.0938L16.1812 19.0938L16.2321 19.1798ZM14.0837 20.0716L14.1087 20.1685L14.1087 20.1685L14.0837 20.0716ZM12.7531 23.9H11.2469V24.1H12.7531V23.9ZM14.8625 21.7907C14.8625 22.9536 13.9162 23.9 12.7531 23.9V24.1C14.0266 24.1 15.0625 23.0641 15.0625 21.7907H14.8625ZM14.8625 21.2812V21.7907H15.0625V21.2812H14.8625ZM16.4211 20.5678C15.9426 20.8154 15.4446 21.0221 14.9321 21.1859L14.9929 21.3764C15.5162 21.2092 16.0246 20.9982 16.513 20.7455L16.4211 20.5678ZM16.8986 20.9467L16.5378 20.5859L16.3963 20.7274L16.7571 21.0881L16.8986 20.9467ZM19.882 20.9471C19.0692 21.7609 17.7319 21.781 16.8986 20.9468L16.7571 21.0881C17.6697 22.0018 19.1338 21.9793 20.0235 21.0884L19.882 20.9471ZM20.9467 19.8824L19.882 20.947L20.0234 21.0884L21.0881 20.0238L20.9467 19.8824ZM20.947 16.8989C21.7821 17.7332 21.7594 19.0705 20.9467 19.8823L21.0881 20.0238C21.9776 19.1353 22.0031 17.6712 21.0883 16.7574L20.947 16.8989ZM20.5858 16.5378L20.947 16.8989L21.0884 16.7575L20.7273 16.3963L20.5858 16.5378ZM21.1858 14.9321C21.022 15.4447 20.8153 15.9426 20.5677 16.4211L20.7454 16.513C20.9981 16.0246 21.2091 15.5163 21.3763 14.9929L21.1858 14.9321ZM21.7906 14.8625H21.2811V15.0625H21.7906V14.8625ZM23.9 12.7531C23.9 13.9161 22.9536 14.8625 21.7906 14.8625V15.0625C23.0641 15.0625 24.1 14.0266 24.1 12.7531H23.9ZM23.9 11.2469V12.7531H24.1V11.2469H23.9ZM21.7906 9.1375C22.9536 9.1375 23.9 10.0839 23.9 11.2469H24.1C24.1 9.97339 23.0641 8.9375 21.7906 8.9375V9.1375ZM21.2811 9.1375H21.7906V8.9375H21.2811V9.1375ZM20.5677 7.57891C20.8153 8.05735 21.022 8.55527 21.1858 9.06794L21.3763 9.00706C21.2091 8.4837 20.9981 7.9754 20.7454 7.48699L20.5677 7.57891ZM20.9467 7.1014L20.5858 7.46224L20.7273 7.60366L21.0881 7.24282L20.9467 7.1014ZM20.947 4.11794C21.7593 4.92939 21.7824 6.26659 20.9467 7.10136L21.0881 7.24286C22.0034 6.32854 21.9775 4.86458 21.0883 3.97644L20.947 4.11794ZM19.8824 3.05337L20.947 4.1179L21.0884 3.97648L20.0238 2.91194L19.8824 3.05337ZM16.8989 3.053C17.7337 2.21715 19.0714 2.24131 19.8823 3.05332L20.0238 2.91199C19.1363 2.02329 17.6719 1.99607 16.7574 2.91166L16.8989 3.053ZM16.5378 3.41416L16.8989 3.05304L16.7575 2.91162L16.3963 3.27274L16.5378 3.41416ZM14.9321 2.81419C15.4446 2.97795 15.9426 3.18467 16.4211 3.43227L16.513 3.25464C16.0246 3.00189 15.5162 2.79086 14.9929 2.62368L14.9321 2.81419ZM14.8625 2.20936V2.71894H15.0625V2.20936H14.8625ZM12.7531 0.1C13.9161 0.1 14.8625 1.04635 14.8625 2.20936H15.0625C15.0625 0.935896 14.0266 -0.1 12.7531 -0.1V0.1ZM11.2469 0.1H12.7531V-0.1H11.2469V0.1ZM9.1375 2.20936C9.1375 1.04635 10.0839 0.1 11.2469 0.1V-0.1C9.9734 -0.1 8.9375 0.935895 8.9375 2.20936H9.1375ZM9.1375 2.71889V2.20936H8.9375V2.71889H9.1375ZM7.57891 3.43222C8.05735 3.18467 8.55537 2.97795 9.06794 2.81414L9.00706 2.62364C8.48379 2.79086 7.9754 3.00189 7.487 3.25459L7.57891 3.43222ZM7.10145 3.05332L7.46224 3.41412L7.60366 3.2727L7.24287 2.9119L7.10145 3.05332ZM4.11804 3.05299C4.9308 2.23912 6.26813 2.21906 7.10141 3.05328L7.24291 2.91194C6.33028 1.99828 4.86617 2.02079 3.97652 2.91167L4.11804 3.05299ZM3.05332 4.11767L4.11799 3.05304L3.97657 2.91162L2.9119 3.97624L3.05332 4.11767ZM3.053 7.10113C2.21785 6.26687 2.24055 4.92953 3.05328 4.1177L2.91194 3.9762C2.02245 4.86472 1.99687 6.32881 2.91166 7.24262L3.053 7.10113ZM3.41416 7.46224L3.05303 7.10116L2.91162 7.24259L3.27275 7.60367L3.41416 7.46224ZM2.81419 9.06794C2.978 8.55532 3.18467 8.05735 3.43227 7.57891L3.25464 7.48699C3.00189 7.9754 2.79091 8.48375 2.62368 9.00706L2.81419 9.06794ZM2.20941 9.1375H2.71894V8.9375H2.20941V9.1375ZM0.1 11.2469C0.1 10.0839 1.0464 9.1375 2.20941 9.1375V8.9375C0.935946 8.9375 -0.1 9.97339 -0.1 11.2469H0.1ZM0.1 12.7531V11.2469H-0.1V12.7531H0.1ZM2.20936 14.8625C1.0464 14.8625 0.1 13.9161 0.1 12.7531H-0.1C-0.1 14.0266 0.935945 15.0625 2.20936 15.0625V14.8625ZM2.71889 14.8625H2.20936V15.0625H2.71889V14.8625ZM3.43222 16.4211C3.18462 15.9426 2.97795 15.4447 2.81415 14.9321L2.62363 14.9929C2.79086 15.5163 3.00184 16.0246 3.25459 16.513L3.43222 16.4211ZM3.05327 16.8986L3.41412 16.5378L3.2727 16.3963L2.91185 16.7572L3.05327 16.8986ZM3.05295 19.8821C2.24061 19.0706 2.21756 17.7334 3.05324 16.8986L2.91189 16.7571C1.99659 17.6715 2.02249 19.1354 2.91161 20.0236L3.05295 19.8821ZM4.11757 20.9466L3.05299 19.8821L2.91157 20.0235L3.97615 21.0881L4.11757 20.9466ZM7.10103 20.947C6.26621 21.7829 4.92856 21.7587 4.11762 20.9467L3.9761 21.088C4.86363 21.9767 6.32807 22.0039 7.24254 21.0883L7.10103 20.947ZM7.4622 20.5858L7.10107 20.947L7.24249 21.0884L7.60362 20.7273L7.4622 20.5858ZM9.06789 21.1858C8.55532 21.022 8.05731 20.8153 7.57887 20.5677L7.48695 20.7454C7.97535 20.9981 8.48374 21.2091 9.00702 21.3763L9.06789 21.1858ZM9.13745 21.7906V21.2811H8.93745V21.7906H9.13745ZM11.2469 23.9C10.0838 23.9 9.13745 22.9536 9.13745 21.7906H8.93745C8.93745 23.0641 9.9734 24.1 11.2469 24.1V23.9ZM7.71708 19.2659C8.39673 19.6679 9.12827 19.9715 9.89132 20.1685L9.9413 19.9748C9.19648 19.7826 8.48239 19.4862 7.81889 19.0938L7.71708 19.2659ZM6.9835 19.3586C7.12839 19.2137 7.42729 19.0945 7.71707 19.2659L7.81889 19.0938C7.42871 18.863 7.0317 19.0276 6.8421 19.2171L6.9835 19.3586ZM6.24785 20.0943L6.98351 19.3586L6.84208 19.2171L6.10643 19.9528L6.24785 20.0943ZM4.97083 20.0939C5.31791 20.4415 5.89055 20.452 6.2479 20.0942L6.10638 19.9529C5.82867 20.231 5.38281 20.2234 5.11235 19.9526L4.97083 20.0939ZM3.90565 19.0287L4.97088 20.094L5.1123 19.9526L4.04707 18.8873L3.90565 19.0287ZM3.90597 17.7517C3.54831 18.109 3.55791 18.6814 3.90569 19.0288L4.04703 18.8873C3.77616 18.6167 3.76916 18.1711 4.04731 17.8932L3.90597 17.7517ZM4.64135 17.0164L3.90593 17.7518L4.04735 17.8932L4.78277 17.1578L4.64135 17.0164ZM4.73403 16.2829C4.87416 16.5199 4.83604 16.8217 4.64135 17.0164L4.78277 17.1578C5.04202 16.8985 5.09278 16.4966 4.90619 16.1811L4.73403 16.2829ZM3.83153 14.1086C4.02846 14.8717 4.33214 15.6033 4.73403 16.2829L4.90618 16.1811C4.51383 15.5176 4.21741 14.8035 4.02519 14.0587L3.83153 14.1086ZM3.24755 13.6563C3.52261 13.6563 3.76278 13.8423 3.83153 14.1086L4.02518 14.0586C3.93363 13.704 3.61383 13.4563 3.24755 13.4563V13.6563ZM2.20941 13.6563H3.24755V13.4563H2.20941V13.6563ZM1.30625 12.7531C1.30625 13.2512 1.71136 13.6563 2.20941 13.6563V13.4563C1.8218 13.4563 1.50625 13.1407 1.50625 12.7531H1.30625ZM1.30625 11.2469V12.7531H1.50625V11.2469H1.30625ZM2.2094 10.3437C1.71136 10.3438 1.30625 10.7488 1.30625 11.2469H1.50625C1.50625 10.8593 1.8218 10.5437 2.20942 10.5437L2.2094 10.3437ZM3.24759 10.3437H2.20941V10.5437H3.24759V10.3437ZM3.83158 9.89132C3.76282 10.1577 3.52262 10.3437 3.24759 10.3437V10.5437C3.61382 10.5437 3.93368 10.296 4.02523 9.94131L3.83158 9.89132ZM4.73408 7.71708C4.33213 8.39669 4.02851 9.12822 3.83158 9.89132L4.02523 9.9413C4.21746 9.19643 4.51384 8.48234 4.90623 7.81889L4.73408 7.71708ZM4.6414 6.9836C4.83609 7.17829 4.87421 7.48009 4.73408 7.71709L4.90623 7.81888C5.09282 7.50331 5.04207 7.10143 4.78282 6.84218L4.6414 6.9836ZM3.9057 6.2479L4.6414 6.9836L4.78282 6.84218L4.04712 6.10648L3.9057 6.2479ZM3.90602 4.97089C3.55924 5.31724 3.54721 5.88983 3.90574 6.24794L4.04708 6.10644C3.76848 5.82816 3.77707 5.38235 4.04736 5.11239L3.90602 4.97089ZM4.97131 3.90565L3.90598 4.97093L4.0474 5.11235L5.11273 4.04707L4.97131 3.90565ZM6.24827 3.90602C5.89158 3.54891 5.31898 3.55739 4.97125 3.90571L5.11279 4.04701C5.38352 3.77583 5.82932 3.76959 6.10676 4.04736L6.24827 3.90602ZM6.9836 4.6414L6.24823 3.90598L6.1068 4.0474L6.84218 4.78282L6.9836 4.6414ZM7.71715 4.73407C7.48005 4.87421 7.17828 4.83608 6.9836 4.6414L6.84218 4.78282C7.10144 5.04208 7.50326 5.09282 7.81891 4.90624L7.71715 4.73407ZM9.89137 3.83153C9.12831 4.02846 8.39678 4.33214 7.71713 4.73408L7.81894 4.90623C8.48244 4.51383 9.19653 4.21741 9.94135 4.02519L9.89137 3.83153ZM10.3438 3.24755C10.3438 3.52262 10.1577 3.76282 9.89138 3.83153L9.94134 4.02519C10.296 3.93368 10.5438 3.61382 10.5438 3.24755H10.3438ZM10.3438 2.20936V3.24755H10.5438V2.20936H10.3438ZM11.247 1.30625C10.7489 1.30625 10.3438 1.7113 10.3438 2.20936H10.5438C10.5438 1.82177 10.8593 1.50625 11.247 1.50625V1.30625ZM12.7532 1.30625H11.247V1.50625H12.7532V1.30625ZM13.6563 2.20936C13.6563 1.7113 13.2512 1.30625 12.7532 1.30625V1.50625C13.1408 1.50625 13.4563 1.82177 13.4563 2.20936H13.6563ZM13.6563 3.24764V2.20936H13.4563V3.24764H13.6563ZM14.1088 3.83162C13.8424 3.76291 13.6563 3.52271 13.6563 3.24764H13.4563C13.4563 3.61392 13.7041 3.93378 14.0588 4.02528L14.1088 3.83162ZM16.283 4.73418C15.6034 4.33223 14.8718 4.02856 14.1088 3.83163L14.0588 4.02528C14.8036 4.2175 15.5177 4.51393 16.1812 4.90632L16.283 4.73418ZM17.0165 4.6415C16.8218 4.83623 16.52 4.87434 16.283 4.73418L16.1812 4.90632C16.4967 5.09297 16.8987 5.04221 17.158 4.78291L17.0165 4.6415ZM17.7522 3.90579L17.0165 4.64149L17.158 4.78291L17.8936 4.04721L17.7522 3.90579ZM19.0292 3.90612C18.6821 3.55857 18.1095 3.54801 17.7521 3.90584L17.8937 4.04716C18.1714 3.76908 18.6172 3.77661 18.8877 4.04744L19.0292 3.90612ZM20.0944 4.97131L19.0292 3.90607L18.8877 4.04749L19.953 5.11273L20.0944 4.97131ZM20.0941 6.24831C20.4517 5.89107 20.4421 5.31863 20.0944 4.97126L19.953 5.11277C20.2239 5.38331 20.2309 5.82899 19.9527 6.10681L20.0941 6.24831ZM19.3587 6.9837L20.0941 6.24827L19.9527 6.10685L19.2173 6.84227L19.3587 6.9837ZM19.266 7.71718C19.1259 7.48019 19.164 7.17838 19.3587 6.9837L19.2173 6.84227C18.958 7.10152 18.9073 7.50341 19.0939 7.81897L19.266 7.71718ZM20.1685 9.89142C19.9716 9.12831 19.6679 8.39678 19.266 7.71718L19.0939 7.81898C19.4862 8.48244 19.7826 9.19653 19.9749 9.94139L20.1685 9.89142ZM20.7525 10.3438C20.4774 10.3438 20.2373 10.1577 20.1685 9.89141L19.9749 9.94141C20.0664 10.296 20.3862 10.5438 20.7525 10.5438V10.3438ZM21.7906 10.3438H20.7525V10.5438H21.7906V10.3438ZM22.6938 11.2469C22.6938 10.7488 22.2887 10.3438 21.7906 10.3438V10.5438C22.1782 10.5438 22.4938 10.8593 22.4938 11.2469H22.6938ZM22.6938 12.7532V11.2469H22.4938V12.7532H22.6938ZM21.7906 13.6563C22.2887 13.6563 22.6938 13.2513 22.6938 12.7532H22.4938C22.4938 13.1408 22.1782 13.4563 21.7906 13.4563V13.6563ZM20.7525 13.6563H21.7906V13.4563H20.7525V13.6563ZM20.1685 14.1087C20.2373 13.8423 20.4775 13.6563 20.7525 13.6563V13.4563C20.3863 13.4563 20.0664 13.704 19.9749 14.0587L20.1685 14.1087ZM19.266 16.2829C19.668 15.6033 19.9716 14.8718 20.1685 14.1087L19.9749 14.0587C19.7826 14.8036 19.4863 15.5177 19.0939 16.1811L19.266 16.2829ZM19.3587 17.0164C19.164 16.8217 19.1259 16.5199 19.266 16.2829L19.0939 16.1811C18.9073 16.4967 18.958 16.8986 19.2173 17.1578L19.3587 17.0164ZM20.0944 17.7521L19.3587 17.0164L19.2173 17.1578L19.953 17.8935L20.0944 17.7521ZM20.0941 19.0291C20.4408 18.6828 20.4529 18.1101 20.0944 17.7521L19.953 17.8936C20.2316 18.1718 20.223 18.6176 19.9527 18.8876L20.0941 19.0291ZM19.0288 20.0944L20.0941 19.0291L19.9527 18.8876L18.8874 19.9529L19.0288 20.0944ZM17.7518 20.094C18.1085 20.4511 18.6811 20.4426 19.0288 20.0943L18.8873 19.953C18.6165 20.2242 18.1708 20.2304 17.8933 19.9526L17.7518 20.094ZM17.0165 19.3586L17.7519 20.094L17.8933 19.9526L17.1579 19.2172L17.0165 19.3586ZM16.283 19.2659C16.52 19.1257 16.8218 19.1639 17.0165 19.3586L17.1579 19.2172C16.8986 18.9579 16.4968 18.9071 16.1812 19.0938L16.283 19.2659ZM14.1087 20.1685C14.8718 19.9715 15.6033 19.6679 16.283 19.2659L16.1812 19.0938C15.5177 19.4862 14.8036 19.7826 14.0587 19.9748L14.1087 20.1685ZM13.6563 20.7525C13.6563 20.4774 13.8424 20.2372 14.1087 20.1685L14.0588 19.9748C13.7041 20.0663 13.4563 20.3862 13.4563 20.7525H13.6563ZM13.6563 21.7906V20.7525H13.4563V21.7906H13.6563ZM12.7531 22.6938C13.2512 22.6938 13.6563 22.2887 13.6563 21.7906H13.4563C13.4563 22.1782 13.1407 22.4937 12.7531 22.4937V22.6938ZM11.2469 22.6938H12.7531V22.4937H11.2469V22.6938ZM10.3438 21.7906C10.3438 22.2887 10.7489 22.6938 11.2469 22.6938V22.4937C10.8593 22.4937 10.5438 22.1782 10.5438 21.7906H10.3438ZM10.3438 20.7525V21.7906H10.5438V20.7525H10.3438ZM9.89133 20.1685C10.1577 20.2372 10.3438 20.4774 10.3438 20.7525H10.5438C10.5438 20.3862 10.296 20.0663 9.9413 19.9748L9.89133 20.1685ZM12.0003 17.1219C9.1761 17.1219 6.87838 14.8241 6.87838 12H6.67838C6.67838 14.9346 9.06564 17.3219 12.0003 17.3219V17.1219ZM17.1221 12C17.1221 14.8241 14.8244 17.1219 12.0003 17.1219V17.3219C14.9349 17.3219 17.3221 14.9346 17.3221 12H17.1221ZM12.0003 6.87811C14.8244 6.87811 17.1221 9.17587 17.1221 12H17.3221C17.3221 9.06541 14.9349 6.67811 12.0003 6.67811V6.87811ZM6.87838 12C6.87838 9.17587 9.1761 6.87811 12.0003 6.87811V6.67811C9.06564 6.67811 6.67838 9.06541 6.67838 12H6.87838ZM12.0003 8.08436C9.84104 8.08436 8.08463 9.84082 8.08463 12H8.28463C8.28463 9.95127 9.9515 8.28436 12.0003 8.28436V8.08436ZM15.9159 12C15.9159 9.84082 14.1595 8.08436 12.0003 8.08436V8.28436C14.049 8.28436 15.7159 9.95127 15.7159 12H15.9159ZM12.0003 15.9156C14.1594 15.9156 15.9159 14.1591 15.9159 12H15.7159C15.7159 14.0487 14.049 15.7156 12.0003 15.7156V15.9156ZM8.08463 12C8.08463 14.1591 9.84109 15.9156 12.0003 15.9156V15.7156C9.95155 15.7156 8.28463 14.0487 8.28463 12H8.08463Z" fill="white" mask="url(#path-1-inside-1)"/>
</svg>
