<svg width="270" height="583" viewBox="0 0 270 583" fill="none" xmlns="http://www.w3.org/2000/svg">
<g opacity="0.3">
<g opacity="0.3">
<path d="M59.3138 79.4258L213.018 2.12378L290.895 83.666L285.605 83.8643L211.841 5.3702L61.5987 81.7801L59.3138 79.4258Z" fill="#1A4D3D"/>
<path d="M262.989 84.3253L263.333 101.99L260.213 102.002L259.869 84.3377L262.989 84.3253Z" fill="#003927"/>
<path d="M291.364 100.352L233.268 100.597L233.417 102.124L291.364 101.878V100.352Z" fill="#003927"/>
<path d="M291.363 83.2498L233.998 83.4976L233.388 85.0217L291.363 84.7738V83.2498Z" fill="#003927"/>
<path d="M234.908 358.418H189.384V352.971H234.908V358.418Z" fill="#003927"/>
<path d="M234.879 423.666H189.486V419.854H234.879V423.666Z" fill="#003927"/>
<path d="M234.879 389.95H189.486V386.139H234.879V389.95Z" fill="#003927"/>
<path d="M234.879 456.834H189.486V453.022H234.879V456.834Z" fill="#003927"/>
<path d="M234.879 490.002H189.486V486.191H234.879V490.002Z" fill="#003927"/>
<path d="M234.879 522.149H189.486V518.338H234.879V522.149Z" fill="#003927"/>
<path d="M234.879 555.317H189.486V551.506H234.879V555.317Z" fill="#003927"/>
<path d="M189.486 385.038L191.523 388.044L236.274 357.756L234.239 354.748L189.486 385.038Z" fill="#003927"/>
<path d="M190.023 451.711L192.058 454.72L236.809 424.429L234.775 421.423L190.023 451.711Z" fill="#003927"/>
<path d="M189.486 518.387L191.523 521.396L236.274 491.105L234.239 488.096L189.486 518.387Z" fill="#003927"/>
<path d="M192.563 518.427L190.241 521.22L231.803 555.758L234.123 552.965L192.563 518.427Z" fill="#003927"/>
<path d="M193.26 450.765L190.94 453.558L232.5 488.096L234.822 485.303L193.26 450.765Z" fill="#003927"/>
<path d="M193.26 384.429L190.94 387.222L232.5 421.76L234.822 418.967L193.26 384.429Z" fill="#003927"/>
<path d="M189.486 582.818L191.523 585.826L236.274 555.535L234.239 552.529L189.486 582.818Z" fill="#003927"/>
<path d="M193.406 582.134H189.486V352.971H193.406V582.134Z" fill="#003927"/>
<path d="M237.347 582.344H233.426V353.184H237.347V582.344Z" fill="#003927"/>
<path d="M234.482 82.3454H189.089V78.5339H234.482V82.3454Z" fill="#003927"/>
<path d="M234.482 115.977H189.089V112.165H234.482V115.977Z" fill="#003927"/>
<path d="M234.482 149.145H189.089V145.333H234.482V149.145Z" fill="#003927"/>
<path d="M234.482 181.292H189.089V177.48H234.482V181.292Z" fill="#003927"/>
<path d="M234.482 214.46H189.089V210.648H234.482V214.46Z" fill="#003927"/>
<path d="M189.624 110.854L191.659 113.863L236.412 83.5721L234.375 80.566L189.624 110.854Z" fill="#003927"/>
<path d="M189.089 177.53L191.124 180.536L235.875 150.248L233.84 147.239L189.089 177.53Z" fill="#003927"/>
<path d="M192.164 177.57L189.845 180.363L231.404 214.901L233.726 212.108L192.164 177.57Z" fill="#003927"/>
<path d="M192.863 109.908L190.541 112.701L232.103 147.239L234.422 144.446L192.863 109.908Z" fill="#003927"/>
<path d="M189.089 241.96L191.124 244.969L235.875 214.678L233.84 211.672L189.089 241.96Z" fill="#003927"/>
<path d="M193.007 241.336H189.089V78.2612H193.007V241.336Z" fill="#003927"/>
<path d="M236.948 241.487H233.027V78.4125H236.948V241.487Z" fill="#003927"/>
<path d="M5.2942 80.8881L5.63867 107.405L1.18042 107.432L0.833463 80.9178L5.2942 80.8881Z" fill="#003927"/>
<path d="M27.4268 107.201L29.8728 106L4.7415 80.0975L2.29305 81.2995L27.4268 107.201Z" fill="#003927"/>
<path d="M81.9991 106.53L84.4475 105.328L59.3137 79.4259L56.8678 80.6253L81.9991 106.53Z" fill="#003927"/>
<path d="M136.581 106.48L139.027 105.278L113.893 79.3763L111.447 80.5783L136.581 106.48Z" fill="#003927"/>
<path d="M136.591 104.689L138.893 106.027L166.85 81.6315L164.548 80.2958L136.591 104.689Z" fill="#003927"/>
<path d="M81.2011 104.649L83.5033 105.985L112.384 80.8236L109.157 80.2537L81.2011 104.649Z" fill="#003927"/>
<path d="M26.899 105.006L29.2037 106.344L58.6124 80.8881L54.8554 80.613L26.899 105.006Z" fill="#003927"/>
<path d="M189.322 106.133L191.768 104.931L166.634 79.0294L164.188 80.2313L189.322 106.133Z" fill="#003927"/>
<path d="M188.73 103.853L188.759 106.138L1.17789 107.375L1.14815 105.09L188.73 103.853Z" fill="#003927"/>
<path d="M189.711 78.2488L189.741 80.5337L1.01945 81.7802L0.989716 79.4978L189.711 78.2488Z" fill="#003927"/>
<path d="M239.446 243.492H184.918V239.15H239.446V243.492Z" fill="#003927"/>
<path d="M236.635 281.282H184.918V276.94H236.635V281.282Z" fill="#003927"/>
<path d="M236.635 317.904H184.918V313.563H236.635V317.904Z" fill="#003927"/>
<path d="M236.635 355.694H184.918V351.353H236.635V355.694Z" fill="#003927"/>
<path d="M184.918 313.62L187.238 317.047L238.224 282.536L235.904 279.111L184.918 313.62Z" fill="#003927"/>
<path d="M188.425 313.664L185.781 316.846L231.121 354.527L235.776 353.015L188.425 313.664Z" fill="#003927"/>
<path d="M193.711 240.31L191.067 243.492L233.924 279.111L236.569 275.929L193.711 240.31Z" fill="#003927"/>
<path d="M189.384 355.588H184.918V239.15H189.384V355.588Z" fill="#003927"/>
<path d="M239.446 355.696H234.98V239.261H239.446V355.696Z" fill="#003927"/>
<path d="M259.782 585.796H167.457V578.533H259.782V585.796Z" fill="url(#paint0_linear)"/>
<path d="M249.44 268.754H174.054C173.878 268.754 173.734 268.611 173.734 268.435V266.239C173.734 266.063 173.878 265.919 174.054 265.919H249.44C249.616 265.919 249.76 266.063 249.76 266.239V268.435C249.758 268.611 249.616 268.754 249.44 268.754Z" fill="#1A4D3D"/>
<path d="M248.532 301.428H175.436V298.595H248.532V301.428Z" fill="#1A4D3D"/>
<path d="M178.267 300.911H175.434V265.922H178.267V300.911Z" fill="#1A4D3D"/>
<path d="M184.365 300.911H182.948V265.922H184.365V300.911Z" fill="#1A4D3D"/>
<path d="M191.396 300.911H189.978V265.922H191.396V300.911Z" fill="#1A4D3D"/>
<path d="M198.428 300.911H197.011V265.922H198.428V300.911Z" fill="#1A4D3D"/>
<path d="M205.461 300.911H204.043V265.922H205.461V300.911Z" fill="#1A4D3D"/>
<path d="M212.97 300.911H211.552V265.922H212.97V300.911Z" fill="#1A4D3D"/>
<path d="M220 300.911H218.583V265.922H220V300.911Z" fill="#1A4D3D"/>
<path d="M227.916 300.911H226.499V265.922H227.916V300.911Z" fill="#1A4D3D"/>
<path d="M234.949 300.911H233.532V265.922H234.949V300.911Z" fill="#1A4D3D"/>
<path d="M241.918 300.911H240.5V265.922H241.918V300.911Z" fill="#1A4D3D"/>
<path d="M248.531 300.911H245.698V265.922H248.531V300.911Z" fill="#1A4D3D"/>
<path d="M192.088 79.3763L191.049 77.8398L226.093 54.1211L227.132 55.6576L192.088 79.3763Z" fill="#003927"/>
<path d="M198.764 52.8101L197.723 51.2736L222.079 34.7863L223.119 36.3227L198.764 52.8101Z" fill="#003927"/>
<path d="M205.215 34.0429L204.174 32.5064L218.468 22.8315L219.509 24.368L205.215 34.0429Z" fill="#003927"/>
<path d="M198.841 50.6392L200.033 49.2192L233.87 77.6639L232.675 79.0839L198.841 50.6392Z" fill="#003927"/>
<path d="M204.476 33.6388L205.787 32.3279L229.268 55.8087L227.957 57.1197L204.476 33.6388Z" fill="#003927"/>
<path d="M209.09 16.5022L210.312 15.283L219.296 24.2664L218.074 25.4881L209.09 16.5022Z" fill="#003927"/>
<path d="M189.089 78.5337L213.018 2.12378L236.948 79.3763H232.086L213.018 13.0253L193.007 78.2611L189.089 78.5337Z" fill="#003927"/>
<path d="M213.643 11.1122C210.575 11.1122 208.087 8.62464 208.087 5.55609C208.087 2.48755 210.575 0 213.643 0C216.712 0 219.199 2.48755 219.199 5.55609C219.199 8.62464 216.712 11.1122 213.643 11.1122Z" fill="#1A4D3D"/>
<path d="M212.899 123.203H129.327V108.802C129.327 84.6772 148.885 65.1194 173.01 65.1194H197.349C205.938 65.1194 212.899 72.0831 212.899 80.67V123.203Z" fill="#1A4D3D"/>
<path d="M177.474 122.569L178.024 75.0445C178.061 71.7708 180.789 69.1737 184.061 69.2976L202.362 69.9816C204.954 70.0782 207.006 72.2095 207.006 74.8016V122.569H177.474Z" fill="#4D7568"/>
<path d="M202.984 103.858H182.884V78.4966C182.884 76.7792 184.222 75.3617 185.934 75.2601L196.851 74.6133C200.191 74.415 202.984 77.8424 202.984 82.142V103.858Z" fill="#1A4D3D"/>
<path d="M129.327 105.098H155.113C157.229 105.098 158.959 103.407 159.009 101.291L159.836 65.4292C146.861 67.0623 127.843 77.7309 129.327 105.098Z" fill="#4D7568"/>
<path d="M178.433 301.427H245.862V314.13H178.433V301.427Z" fill="#4D7568"/>
<path d="M91.8698 108.661H93.8672V178.772H91.8698V108.661Z" fill="#1A4D3D"/>
<path d="M80.2325 178.774L82.2299 178.767L82.0044 107.952L80.007 107.962L80.2325 178.774Z" fill="#1A4D3D"/>
<path d="M93.0917 190.055L95.5377 176.707C96.0482 173.917 93.9046 171.344 91.0671 171.344H84.9881C81.9052 171.344 79.4766 173.971 79.7145 177.044L80.7851 190.776C80.9263 192.592 81.8532 194.243 83.3054 195.343C85.5159 197.021 88.6384 200.505 89.3175 207.055C89.8057 211.756 87.8256 216.091 83.6028 218.348C81.2981 219.58 78.2201 220.497 75.6081 219.877C74.1534 219.51 68.9839 217.553 68.6271 216.076C63.4303 204.213 57.4777 215.456 65.5294 222.298C68.1091 224.645 72.2948 226.41 75.6329 226.95C92.9777 229.76 109.802 211.275 94.9776 196.324C93.3495 194.684 92.6754 192.327 93.0917 190.055Z" fill="#003927"/>
<path d="M87.1862 180.422C83.239 180.422 80.0391 177.222 80.0391 173.275C80.0391 169.328 83.239 166.128 87.1862 166.128C91.1334 166.128 94.3333 169.328 94.3333 173.275C94.3333 177.222 91.1334 180.422 87.1862 180.422Z" fill="#1A4D3D"/>
<path d="M82.941 173.275C82.941 175.619 84.8418 177.52 87.1861 177.52C89.5305 177.52 91.4313 175.619 91.4313 173.275C91.4313 170.93 89.5305 169.03 87.1861 169.03C84.8418 169.03 82.941 170.93 82.941 173.275Z" fill="#003927"/>
<path d="M86.8195 115.042C82.5656 115.042 79.1172 111.594 79.1172 107.34C79.1172 103.086 82.5656 99.6381 86.8195 99.6381C91.0733 99.6381 94.5217 103.086 94.5217 107.34C94.5217 111.594 91.0733 115.042 86.8195 115.042Z" fill="#1A4D3D"/>
<path d="M83.5869 110.576C81.8003 108.789 81.8003 105.893 83.5869 104.106C85.3734 102.32 88.2699 102.32 90.0565 104.106C91.843 105.893 91.843 108.789 90.0565 110.576C88.2699 112.362 85.3734 112.362 83.5869 110.576Z" fill="#003927"/>
</g>
</g>
<defs>
<linearGradient id="paint0_linear" x1="216.06" y1="522.567" x2="213.317" y2="589.55" gradientUnits="userSpaceOnUse">
<stop stop-color="#FDF53F"/>
<stop offset="0.4547" stop-color="#EDA150"/>
<stop offset="0.8168" stop-color="#E05E5E"/>
<stop offset="1" stop-color="#D93C65"/>
</linearGradient>
</defs>
</svg>
