<svg width="24" height="24" viewBox="0 0 24 24" fill="none" xmlns="http://www.w3.org/2000/svg">
<path fill-rule="evenodd" clip-rule="evenodd" d="M16.5364 8.61766C16.5364 11.1809 14.4929 13.2363 11.9444 13.2363C9.39592 13.2363 7.35245 11.1809 7.35245 8.61766C7.35245 6.05338 9.39592 4 11.9444 4C14.4929 4 16.5364 6.05338 16.5364 8.61766ZM11.9444 21.4545C8.20134 21.4545 5.00524 20.8611 5.00524 18.4875C5.00524 16.1128 8.18082 15.4978 11.9444 15.4978C15.6876 15.4978 18.8837 16.0912 18.8837 18.4658C18.8837 20.8395 15.7081 21.4545 11.9444 21.4545ZM18.4987 8.70097C18.4987 10.0077 18.109 11.225 17.4252 12.2369C17.3549 12.3411 17.4174 12.4816 17.5414 12.5032C17.7124 12.5326 17.8892 12.5493 18.0689 12.5543C19.8614 12.6014 21.4701 11.4411 21.9146 9.69426C22.573 7.09953 20.6399 4.77007 18.1783 4.77007C17.9107 4.77007 17.6548 4.79856 17.4057 4.84965C17.3715 4.85751 17.3353 4.87323 17.3158 4.90368C17.2924 4.94102 17.3099 4.99112 17.3334 5.02355C18.0728 6.06596 18.4987 7.33729 18.4987 8.70097ZM21.4672 14.3774C22.6716 14.6141 23.4637 15.0975 23.7919 15.8C24.0694 16.3767 24.0694 17.0458 23.7919 17.6215C23.2899 18.7111 21.6713 19.0608 21.0422 19.1512C20.9123 19.1709 20.8078 19.0579 20.8215 18.9272C21.1429 15.9081 18.5866 14.4766 17.9253 14.1475C17.8969 14.1327 17.8911 14.1101 17.894 14.0964C17.896 14.0865 17.9077 14.0708 17.9292 14.0679C19.3602 14.0413 20.8987 14.2378 21.4672 14.3774ZM5.93135 12.5542C6.11108 12.5492 6.2869 12.5335 6.45882 12.5031C6.58287 12.4815 6.64539 12.341 6.57506 12.2368C5.8913 11.2249 5.50155 10.0076 5.50155 8.70087C5.50155 7.33719 5.92744 6.06586 6.66688 5.02345C6.69032 4.99103 6.70693 4.94092 6.68446 4.90359C6.66493 4.87411 6.62781 4.85741 6.5946 4.84955C6.34453 4.79846 6.08861 4.76997 5.82097 4.76997C3.35942 4.76997 1.42633 7.09943 2.08567 9.69416C2.53012 11.441 4.13891 12.6013 5.93135 12.5542ZM6.10575 14.0958C6.10868 14.1105 6.10282 14.1321 6.07547 14.1478C5.4132 14.477 2.8569 15.9084 3.17827 18.9266C3.19195 19.0583 3.08841 19.1703 2.95849 19.1516C2.32943 19.0612 0.710868 18.7115 0.208792 17.6219C-0.0695972 17.0452 -0.0695972 16.3771 0.208792 15.8004C0.536997 15.0979 1.32821 14.6145 2.53261 14.3768C3.10208 14.2382 4.63957 14.0417 6.07156 14.0683C6.09305 14.0712 6.1038 14.0869 6.10575 14.0958Z" fill="#636363"/>
</svg>
